<svg width="505" height="535" viewBox="0 0 505 535" fill="none" xmlns="http://www.w3.org/2000/svg">
<g filter="url(#filter0_d)">
<g clip-path="url(#clip0)">
<path fill-rule="evenodd" clip-rule="evenodd" d="M149.122 162.673C147.406 170.346 138.607 188.702 151.987 186.14C156.199 185.334 169.287 177.614 172.097 183.968C174.04 188.36 165.065 210.505 175.5 208.195C177.041 207.853 178.632 207.354 180.167 207.728C188.16 209.676 168.053 229.835 164.758 232.008C149.67 241.956 126.275 232.576 111.037 228.261C104.223 226.332 96.2528 227.302 89.225 226.985C87.1601 226.892 86.134 225.516 86.0255 223.526C85.8132 219.587 87.1415 214.928 83.398 212.585C75.8151 207.837 64.4689 217.191 56.5108 216.88C52.2109 216.711 48.0741 214.289 43.8218 214.952C34.1728 216.455 34.649 236.05 32.221 243.344C18.764 283.706 69.6997 305.254 97.0637 320.302C121.879 333.948 142.892 352.905 165.799 369.386C169.707 372.198 180.911 376.787 180.015 382.606C179.68 384.779 178.445 386.688 177.53 388.687C171.271 402.359 189.436 412.449 188.621 425.733C188.228 432.143 186.134 436.565 188.199 442.971C190.41 449.766 194.375 455.859 199.694 460.633C207.24 467.395 205.639 475.111 211.465 482.596C223.795 498.438 243.462 503.888 262.759 499.61C283.496 495.012 299.314 480.568 318.64 472.729C331.786 467.397 345.38 463.044 357.823 456.122C367.67 450.644 376.814 443.928 386.457 438.094C402.902 428.146 425.999 424.117 435.369 405.484C435.974 404.28 436.554 403.001 437.603 402.156C439.417 400.696 442.007 400.961 444.332 401.026C469.925 401.749 487.525 364.726 463.854 349.257C462.296 348.238 460.505 347.257 459.852 345.515C459.189 343.751 459.917 341.808 460.49 340.013C463.725 329.891 462.086 315.6 453.774 308.157C451.164 305.817 447.641 303.901 446.914 300.472C446.587 298.928 446.914 297.327 447.262 295.789C450.572 281.263 448.606 266.186 434.768 257.631C433.437 256.808 431.939 255.97 431.392 254.503C430.826 252.985 431.473 251.313 432.039 249.796C437.511 235.123 437.246 210.532 420.694 202.992C418.482 201.984 415.911 201.084 414.872 198.886C414.255 197.581 414.324 196.072 414.374 194.629C415.087 174.04 409.751 150.7 394.716 135.735C379.56 120.651 357.981 122.851 338.394 118.717C327.014 116.315 324.531 111.483 318.109 102.405C312.644 94.678 306.33 87.6104 296.609 85.6965C285.273 83.4647 273.701 85.6216 262.391 86.8889C252.432 88.0048 242.168 88.1776 233.099 82.5727C222.152 75.805 211.857 67.7253 200.98 60.7656C189.673 53.5328 180.388 43.6912 169.12 36.4304C163.747 33.0891 158.066 30.2709 152.154 28.0144C144.858 25.1047 133.958 25.8157 126.334 27.1265C108.465 30.2003 98.9384 55.699 89.3782 68.528C79.59 81.6766 60.8831 94.8873 60.6807 113.144C60.5931 121.145 63.071 129.828 63.8622 137.893C64.9062 148.515 83.0505 130.126 86.2587 130.365C93.4953 130.904 91.8723 146.409 93.1328 151.278C96.497 164.291 108.098 146.68 115.152 144.92C128.787 141.516 112.077 179.329 134.78 165.936C135.849 165.309 150.448 156.746 149.122 162.673Z" fill="white"/>
<path fill-rule="evenodd" clip-rule="evenodd" d="M149.122 162.673C147.406 170.346 138.607 188.702 151.987 186.14C156.199 185.334 169.287 177.614 172.097 183.968C174.04 188.36 165.065 210.505 175.5 208.195C177.041 207.853 178.632 207.354 180.167 207.728C188.16 209.676 168.053 229.835 164.758 232.008C149.67 241.956 126.275 232.576 111.037 228.261C104.223 226.332 96.2528 227.302 89.225 226.985C87.1601 226.892 86.134 225.516 86.0255 223.526C85.8132 219.587 87.1415 214.928 83.398 212.585C75.8151 207.837 64.4689 217.191 56.5108 216.88C52.2109 216.711 48.0741 214.289 43.8218 214.952C34.1728 216.455 34.649 236.05 32.221 243.344C18.764 283.706 69.6997 305.254 97.0637 320.302C121.879 333.948 142.892 352.905 165.799 369.386C169.707 372.198 180.911 376.787 180.015 382.606C179.68 384.779 178.445 386.688 177.53 388.687C171.271 402.359 189.436 412.449 188.621 425.733C188.228 432.143 186.134 436.565 188.199 442.971C190.41 449.766 194.375 455.859 199.694 460.633C207.24 467.395 205.639 475.111 211.465 482.596C223.795 498.438 243.462 503.888 262.759 499.61C283.496 495.012 299.314 480.568 318.64 472.729C331.786 467.397 345.38 463.044 357.823 456.122C367.67 450.644 376.814 443.928 386.457 438.094C402.902 428.146 425.999 424.117 435.369 405.484C435.974 404.28 436.554 403.001 437.603 402.156C439.417 400.696 442.007 400.961 444.332 401.026C469.925 401.749 487.525 364.726 463.854 349.257C462.296 348.238 460.505 347.257 459.852 345.515C459.189 343.751 459.917 341.808 460.49 340.013C463.725 329.891 462.086 315.6 453.774 308.157C451.164 305.817 447.641 303.901 446.914 300.472C446.587 298.928 446.914 297.327 447.262 295.789C450.572 281.263 448.606 266.186 434.768 257.631C433.437 256.808 431.939 255.97 431.392 254.503C430.826 252.985 431.473 251.313 432.039 249.796C437.511 235.123 437.246 210.532 420.694 202.992C418.482 201.984 415.911 201.084 414.872 198.886C414.255 197.581 414.324 196.072 414.374 194.629C415.087 174.04 409.751 150.7 394.716 135.735C379.56 120.651 357.981 122.851 338.394 118.717C327.014 116.315 324.531 111.483 318.109 102.405C312.644 94.678 306.33 87.6104 296.609 85.6965C285.273 83.4647 273.701 85.6216 262.391 86.8889C252.432 88.0048 242.168 88.1776 233.099 82.5727C222.152 75.805 211.857 67.7253 200.98 60.7656C189.673 53.5328 180.388 43.6912 169.12 36.4304C163.747 33.0891 158.066 30.2709 152.154 28.0144C144.858 25.1047 133.958 25.8157 126.334 27.1265C108.465 30.2003 98.9384 55.699 89.3782 68.528C79.59 81.6766 60.8831 94.8873 60.6807 113.144C60.5931 121.145 63.071 129.828 63.8622 137.893C64.9062 148.515 83.0505 130.126 86.2587 130.365C93.4953 130.904 91.8723 146.409 93.1328 151.278C96.497 164.291 108.098 146.68 115.152 144.92C128.787 141.516 112.077 179.329 134.78 165.936C135.849 165.309 150.448 156.746 149.122 162.673ZM294.685 257.378C293.781 256.77 293.025 255.967 292.472 255.028C291.18 252.834 291.225 250.118 290.424 247.7C286.878 236.992 270.096 237.338 264.155 227.749C261.846 224.021 261.218 218.857 257.374 216.746C253.603 214.676 247.971 216.426 245.328 213.034C243.424 210.592 244.421 207.007 243.499 204.051C241.411 197.347 231.577 197.323 226.722 192.252C221.734 187.041 222.836 177.323 216.709 173.514C212.274 170.757 205.887 172.531 201.833 169.24C197.245 165.517 198.383 157.554 193.89 153.716C190.333 150.677 184.428 151.346 181.34 147.832C178.334 144.414 179.599 138.871 177.25 134.975C173.529 128.81 163.978 130.504 157.843 126.734C151.572 122.881 149.089 113.413 141.834 112.185C138.37 111.598 134.617 113.19 131.393 111.793C128.598 110.581 127.165 107.544 125.146 105.264C120.139 99.6112 111.801 98.8306 104.38 97.412C100.169 96.6064 95.859 95.1994 92.3816 92.6208C89.4652 90.4586 85.6822 86.0972 87.5748 82.3297C90.1601 77.1842 93.8584 72.335 97.0295 67.5316C100.264 62.6304 103.565 57.7759 106.934 52.9679C107.339 52.3906 107.745 51.8143 108.152 51.239C113.489 43.6766 119.483 35.8481 128.159 32.6217C136.949 29.3553 147.054 31.5633 155.084 36.4055C163.949 41.75 170.707 49.9734 177.109 58.0386C178.413 59.6428 179.318 61.5335 179.75 63.5553C182.218 75.8438 163.592 78.9107 156.954 88.7842C156.706 89.1481 156.562 89.5731 156.538 90.0131C156.515 90.453 156.612 90.891 156.821 91.2793C157.029 91.6675 157.34 91.9912 157.719 92.2149C158.099 92.4387 158.533 92.554 158.973 92.5483C167.261 92.6301 177.037 77.8511 183.805 84.1932C188.158 88.2733 183.95 95.411 179.628 99.5254C176.148 102.839 172.345 107.653 172.892 111.879C172.933 112.14 173.051 112.382 173.232 112.574C173.413 112.765 173.648 112.898 173.906 112.954C174.164 113.01 174.433 112.986 174.677 112.886C174.921 112.787 175.13 112.615 175.275 112.395C179.294 106.228 189.346 105.13 196.214 108.768C203.901 112.838 208.727 120.624 213.985 127.551C226.866 144.467 243.968 157.701 263.576 165.926C271.42 169.203 280.165 172.065 284.961 179.082C287.871 183.339 288.889 188.558 290.464 193.466C298.059 217.129 321.032 235.027 345.841 236.601C349.669 236.844 353.878 236.865 356.774 239.378C360.086 242.253 360.356 247.204 360.444 251.589C361.634 308.979 373.946 365.595 396.698 418.297C397.207 419.486 397.304 420.81 396.972 422.06C396.64 423.309 395.9 424.412 394.868 425.192C370.654 443.566 343.619 457.891 314.817 467.607C311.26 468.806 307.436 469.942 303.81 468.97C300.255 468.018 297.537 465.208 295.143 462.412C282.584 447.711 273.691 430.242 269.195 411.438C268.727 409.47 268.31 407.386 268.9 405.45C269.993 401.861 273.975 400.163 277.462 398.774C304.296 388.01 327.23 369.355 343.231 345.276C346.49 340.346 349.505 334.041 346.797 328.789C343.964 323.292 336.174 321.84 333.34 316.344C330.293 310.436 334.345 302.535 330.893 296.857C328.129 292.311 321.742 291.261 318.494 287.049C313.343 280.371 318.168 268.896 311.904 263.247C307.389 259.178 299.319 260.545 294.685 257.378ZM246.774 393.65C231.086 393.203 215.46 389.133 201.009 382.856C181.577 374.416 164.063 362.121 147.471 348.95C132.838 337.333 118.678 324.884 102.295 315.902C83.0047 305.325 60.1407 299.121 46.3432 281.987C42.4088 277.101 39.3451 271.325 38.6397 265.092C38.4013 262.983 38.6977 260.394 40.6118 259.473C42.0399 258.786 43.7273 259.368 45.1942 259.968C56.853 264.723 67.9318 270.295 78.4073 277.382C90.5238 285.577 102.073 294.56 114.251 302.676C126.186 310.633 138.698 318.323 152.554 322.357C167.067 326.583 182.078 328.911 197.141 329.993C211.481 331.021 226.247 330.367 240.103 334.807C250.374 338.098 259.332 344.559 266.654 352.38C271.812 357.89 277.537 364.704 280.427 371.751C281.754 374.988 282.259 378.697 281.076 381.989C278.514 389.122 269.727 391.806 262.979 392.767C257.612 393.52 252.191 393.815 246.774 393.65H246.774ZM205.505 322.853C191.417 321.774 177.257 321.086 163.58 317.64C141.819 312.157 122.403 299.977 103.935 287.23C81.8092 271.958 60.0136 255.166 45.0874 232.807C43.2209 230.011 40.1693 222.212 46.4552 223.571C51.3896 224.637 55.5914 228.387 59.2642 231.623C84.279 253.657 108.998 276.974 139.188 291.113C181.364 310.866 229.652 310.732 275.858 316.567C295.22 319.013 316.635 323.945 327.292 340.292C328.492 342.133 329.554 344.225 329.38 346.416C329.075 350.206 325.039 352.796 321.238 352.907C317.437 353.019 313.848 351.318 310.396 349.723C279.778 335.587 246.99 326.727 213.418 323.519C210.785 323.271 208.147 323.054 205.505 322.853H205.505ZM262.946 413.689C263.076 414.304 263.019 414.945 262.782 415.527C260.778 420.842 252.96 424.08 248.089 425.807C242.305 427.859 236.214 428.997 230.142 429.783C219.455 431.172 207.551 430.378 198.616 423.732C197.037 422.558 195.584 421.221 194.283 419.744C190.332 415.246 187.218 410.077 185.089 404.482C183.291 399.601 182.62 394.001 184.222 388.97C185.348 385.437 188.172 383.968 191.725 384.707C194.111 385.203 199.68 387.306 200.252 390.015C200.333 390.647 200.303 391.288 200.161 391.908C198.201 405.253 211.556 414.649 222.92 417.839C230.478 419.945 238.492 419.764 245.947 417.317C249.396 416.177 252.666 414.568 255.976 413.073C257.494 412.387 259.114 411.709 260.769 411.905C261.275 411.929 261.76 412.116 262.152 412.437C262.544 412.759 262.822 413.197 262.946 413.689ZM348.985 214.794C350.391 214.74 351.797 214.711 353.199 214.784C354.392 214.846 355.658 215.016 356.572 215.781C357.777 216.794 358.019 218.523 358.177 220.088C358.415 222.426 358.529 225.124 356.832 226.751C355.569 227.962 353.676 228.18 351.929 228.27C337.614 229.007 322.827 225.074 311.716 216.02C305.131 210.647 300.129 203.588 297.243 195.595C295.801 191.601 294.979 187.411 294.806 183.168C294.645 178.803 294.754 175.409 299.486 173.903C300.419 173.521 301.451 173.452 302.427 173.707C303.733 174.174 304.435 175.562 304.948 176.852C306.415 180.538 307.384 184.416 309.008 188.034C311.78 194.197 316.36 199.37 321.275 204.007C326.602 209.031 332.785 213.717 340.037 214.724C342.998 215.135 345.992 214.909 348.985 214.794ZM269.98 439.312C271.275 439.325 272.311 440.079 272.793 442.091C273.855 446.533 269.288 450.028 266.145 452.17C248.018 464.529 218.799 475.445 201.599 455.168C198.204 451.166 189.508 437.659 194.547 432.726C195.019 432.279 195.594 431.957 196.222 431.788C199.972 430.711 207.963 433.522 210.592 436.379C212.73 438.703 211.554 442.118 212.225 444.895C213.578 450.5 220.514 452.522 225.421 453.55C233.461 455.232 241.628 454.032 249.155 450.887C252.945 449.262 256.587 447.312 260.041 445.059C261.891 443.875 266.744 439.278 269.98 439.312ZM247.184 494.809C233.804 494.229 220.25 489.19 214.594 476.591C214.057 475.572 213.902 474.393 214.156 473.269C214.989 470.521 219.544 471.275 221.696 471.365C224.934 471.501 228.181 472.08 230.526 474.513C234.505 478.641 238.134 482.212 243.609 484.347C251.988 487.614 261.374 486.368 269.549 483.104C273.733 481.422 277.695 479.233 281.346 476.586C284.855 474.052 290.007 466.764 294.339 471.954C295.099 472.766 295.62 473.772 295.847 474.861C296.092 476.538 294.922 477.696 293.635 478.546C284.065 484.873 273.774 491.32 262.262 493.64C257.301 494.63 252.24 495.023 247.186 494.809H247.184ZM419.873 267.559C419.469 267.047 419.243 266.416 419.23 265.764C419.218 265.111 419.419 264.473 419.804 263.946C421.37 261.476 425.69 260.911 428.336 261.112C436.123 261.702 440.26 271.063 441.529 277.664C443.072 285.688 441.481 294.21 437.727 301.414C435.469 305.744 432.303 309.993 428.195 312.871C424.895 315.182 417.124 318.908 414.85 313.252C412.576 307.596 420.911 304.633 423.909 301.726C427.994 297.765 429.713 291.856 430.21 286.338C430.522 283.66 430.338 280.947 429.668 278.335C428.918 275.787 427.402 273.532 425.325 271.876C423.899 270.703 421.126 269.343 419.873 267.559ZM407.679 303.779C407.981 312.358 404.275 321.056 398.552 327.368C395.53 330.701 392.148 333.979 388.185 336.169C385.615 337.59 381.654 338.773 378.807 337.539C373.694 335.323 377.527 331.153 381.069 329.976C388.234 327.592 394.243 321.446 395.628 314.023C396.912 307.131 395.276 298.817 391.863 292.712C390.51 290.292 387.115 283.178 392.869 283.454C402.08 283.894 407.402 295.909 407.679 303.778V303.779ZM444.235 309.429C444.624 309.472 445.007 309.558 445.377 309.686C448.082 310.614 449.822 313.224 451.045 315.808C453.05 320.074 454.191 324.696 454.403 329.405C454.615 334.115 453.893 338.819 452.28 343.249C450.618 347.661 448.069 351.686 444.791 355.075C441.513 358.465 437.575 361.147 433.221 362.956C430.651 363.999 427.195 364.491 425.545 362.26C424.222 360.473 424.929 357.815 426.432 356.177C427.934 354.539 430.036 353.618 431.965 352.514C437.005 349.629 441.21 345.121 443.186 339.661C445.162 334.201 444.735 327.799 441.562 322.938C440.571 321.422 439.33 320.056 438.565 318.415C436.783 314.595 439.865 308.96 444.235 309.428V309.429ZM400.473 250.069C400.237 252.719 399.75 255.341 399.017 257.899C397.392 263.603 394.681 269.075 390.597 273.377C386.514 277.678 380.987 280.739 375.079 281.264C373.615 281.479 372.12 281.28 370.763 280.691C369.451 280.024 368.443 278.584 368.675 277.131C368.82 276.529 369.106 275.969 369.509 275.499C369.913 275.028 370.422 274.66 370.995 274.423C372.142 273.962 373.327 273.604 374.538 273.353C380.633 271.671 385.464 266.672 387.975 260.869C389.924 256.364 390.6 251.413 390.527 246.532C390.549 244.241 390.288 241.957 389.748 239.731C389.151 237.5 388.114 235.39 387.87 233.069C387.729 232.163 387.858 231.235 388.24 230.402C389.151 228.662 391.607 228.214 393.402 229.004C395.198 229.794 396.434 231.484 397.369 233.211C400.146 238.328 400.976 244.232 400.473 250.068V250.069ZM403.577 415.15L403.572 415.123C403.039 412.537 405.874 411.255 407.609 410.03C410.184 408.297 412.637 406.39 414.951 404.322C417.84 401.621 420.192 397.994 420.145 394.04C420.092 389.594 417.218 385.808 414.779 382.33C414.025 381.251 413.743 380.282 414.508 379.191C415.72 377.465 418.801 372.554 421.483 373.83C425.03 375.52 426.615 378.618 427.582 382.223C428.47 385.537 429.578 388.811 430.032 392.212C430.881 398.328 429.408 404.54 425.905 409.625C424.14 412.128 421.861 414.226 419.22 415.777C416.579 417.328 413.638 418.298 410.592 418.62C409.163 418.809 407.71 418.657 406.351 418.178C405.679 417.932 405.077 417.529 404.594 417.002C404.112 416.475 403.763 415.839 403.577 415.149V415.15ZM362.751 212.872C362.809 208.604 363.512 204.035 366.7 202.088C370.391 199.832 375.164 199.8 379.349 200.004C383.318 200.198 385.357 202.227 386.682 205.906C387.554 208.331 388.061 210.872 388.187 213.445C388.291 215.913 387.949 218.922 385.982 220.664C381.44 224.692 374.269 225.566 368.472 226.124C364.253 226.53 363.078 222.412 362.937 218.921C362.874 217.269 362.723 215.112 362.751 212.871V212.872ZM446.02 395.581C445.742 395.589 445.464 395.593 445.185 395.591C443.475 395.576 441.68 395.328 440.308 394.307C438.936 393.286 438.167 391.299 438.982 389.796C439.616 388.627 440.959 388.069 442.197 387.582C447.005 385.693 451.899 383.483 455.29 379.586C458.681 375.689 460.148 369.664 457.42 365.277C456.465 363.743 455.086 362.519 454.05 361.038C451.082 356.795 454.572 352.064 459.547 353.925C461.844 354.785 463.51 356.804 464.761 358.913C469.048 366.149 469.499 375.596 465.631 383.064C461.889 390.286 454.133 395.32 446.02 395.581ZM407.323 329.808C409.225 329.932 411.486 331.49 412.625 332.799C416.466 337.2 417.951 343.242 418.053 349.082C418.281 362.081 411.556 375.355 400.13 381.564C398.123 382.654 395.849 383.546 393.601 383.15C391.352 382.754 389.287 380.623 389.714 378.38C390.12 376.253 392.344 375.08 394.275 374.103C399.322 371.551 404.114 368.198 407.32 363.542C410.527 358.886 411.947 352.759 410.033 347.439C409.065 344.748 407.328 342.414 405.96 339.904C404.817 337.807 403.708 334.306 404.447 331.932C404.966 330.272 406.066 329.727 407.323 329.808ZM260.724 262.783C260.727 263.859 260.631 264.932 260.437 265.99C259.655 270.12 258.415 274.149 256.74 278.004C252.549 288.112 246.429 297.9 237.112 303.639C235.906 304.382 234.583 305.07 233.168 305.047C231.753 305.023 230.26 304.047 230.131 302.636C230.031 301.534 230.745 300.537 231.426 299.662C239.318 289.517 247.913 279.043 249.98 266.358C250.406 263.748 249.91 258.517 252.156 256.863C254.32 255.27 258.067 256.501 259.49 258.494C260.33 259.764 260.761 261.261 260.724 262.783ZM428.146 230.382C428.246 236.967 426.681 243.471 423.596 249.29C420.73 254.545 415.915 260.292 409.89 261.915C409.446 262.064 408.974 262.111 408.51 262.053C408.045 261.995 407.599 261.833 407.206 261.58C404.724 259.701 406.576 255.58 408.157 253.835C409.709 252.122 411.719 250.896 413.418 249.327C418.749 244.406 420.591 236.47 420.657 229.456C420.712 223.714 418.419 219.195 413.805 215.812C412.763 215.143 411.806 214.353 410.951 213.458C408.599 210.66 411.067 206.143 414.718 206.468C415.89 206.639 416.999 207.105 417.941 207.824C421.589 210.43 424.367 214.073 425.915 218.28C427.37 222.15 428.125 226.248 428.146 230.382ZM205.159 176.241C213.587 176.387 219.473 182.83 217.387 190.943C216.398 194.789 213.927 198.425 211.489 201.68C208.862 205.187 204.737 204.177 202.89 200.08C202.281 198.792 201.532 197.574 200.657 196.448C198.06 192.986 195.287 189.653 192.781 186.128C190.925 183.516 191.305 181.382 193.921 179.727C197.205 177.643 200.737 176.071 205.159 176.241ZM252.094 125.407C252.546 126.05 252.775 126.825 252.743 127.611C252.657 128.692 251.931 129.602 251.241 130.438L242.926 140.479C242.12 141.451 241.229 142.48 240.003 142.778C238.746 143.084 237.447 142.546 236.304 141.943C233.608 140.519 231.161 138.666 229.059 136.458C227.85 135.187 226.635 133.642 226.286 131.879C225.932 130.101 226.961 128.524 227.774 126.988C229.636 123.472 232.088 120.303 235.025 117.619C236.282 116.472 237.782 115.361 239.484 115.406C240.876 115.442 242.117 116.247 243.24 117.067C246.038 119.113 248.627 121.431 250.969 123.987C251.384 124.427 251.761 124.902 252.094 125.407ZM227.338 201.523C230.521 200.87 233.724 201.305 235.737 204.335C236.431 205.492 236.885 206.778 237.071 208.114C237.709 211.212 237.639 214.414 236.867 217.481C236.077 220.563 234.223 223.266 231.634 225.114C230.314 226.092 228.69 226.569 227.051 226.461C224.811 226.197 223.061 224.474 221.498 222.848L214.177 215.233C209.46 210.326 216.4 206.792 220.338 204.42C222.498 203.08 224.863 202.102 227.338 201.523ZM114.172 267.305C114.176 267.234 114.183 267.164 114.195 267.095C114.671 264.137 119.811 263.383 122.037 262.629C125.07 261.599 128.104 260.569 131.137 259.54C133.369 258.783 136.653 257.025 138.961 258.335C139.671 258.739 139.984 259.579 140.226 260.358C141.792 265.426 142.273 270.615 142.653 275.863C142.769 277.46 142.679 279.159 141.816 280.508C139.535 284.07 134.077 280.941 131.425 279.546C126.69 277.056 122.02 274.546 117.648 271.442C116.359 270.522 114.08 269.062 114.174 267.305H114.172ZM319.089 169.275C320.291 169.279 321.49 169.384 322.674 169.588C323.38 169.711 324.159 169.924 324.518 170.543C324.895 171.197 324.647 172.017 324.41 172.733C323.196 176.182 322.64 179.828 322.769 183.482C322.909 187.152 324.161 190.693 326.359 193.636C329.028 196.935 332.852 199.095 337.055 199.677C341.247 200.229 345.507 199.469 349.25 197.502C350.852 196.679 352.914 195.704 354.272 196.883C355.074 197.582 355.215 198.759 355.263 199.822C355.347 201.698 355.311 203.577 355.155 205.448C355.147 206.113 354.98 206.766 354.669 207.353C354.131 208.207 353.083 208.58 352.094 208.778C348.655 209.466 345.086 208.748 341.747 207.676C333.975 205.182 326.777 200.688 321.516 194.445C318.587 190.978 316.32 187.001 314.829 182.714C313.887 179.988 311.059 172.076 314.303 170.063C314.997 169.685 315.765 169.464 316.553 169.415C317.395 169.319 318.242 169.272 319.089 169.275ZM271.546 141.591C271.234 142.51 270.861 143.406 270.428 144.275C268.375 148.071 266.202 151.803 264.163 155.606C262.552 158.613 261.24 159.171 258.102 157.653C254.926 156.117 251.843 154.392 248.69 152.808C245.052 150.979 244.243 148.707 246.648 145.509C249.59 141.596 252.734 137.814 256.04 134.2C258.622 131.378 261.536 131.484 264.499 133.805C265.779 134.807 267.186 135.635 268.684 136.266C270.771 137.142 271.632 138.614 271.547 141.591H271.546ZM325.701 306.805C325.766 309.672 324.884 312.481 323.19 314.795C321.875 316.535 319.988 318.003 317.813 318.181C314.821 318.425 312.195 316.246 310.247 313.963C307.461 310.697 305.288 306.955 303.831 302.918C300.086 292.523 315.875 292.029 321.387 296.9C322.752 298.163 323.841 299.695 324.583 301.4C325.326 303.105 325.707 304.946 325.701 306.805ZM275.252 274.305C275.122 275.316 274.921 276.317 274.65 277.299C272.086 287.189 267.152 302.262 256.379 305.927C254.414 306.596 251.874 306.75 250.624 305.092C249.667 303.824 249.925 301.966 250.74 300.602C251.556 299.237 252.824 298.217 253.954 297.099C260.382 290.739 262.312 281.294 265.505 272.834C266.463 270.296 268.136 267.4 270.849 267.388C272.906 267.378 274.607 269.218 275.105 271.216C275.337 272.228 275.386 273.274 275.249 274.305H275.252ZM321.717 155.169C321.781 154.268 321.793 152.912 321.984 151.582C322.718 146.489 323.666 145.633 328.898 145.551C333.024 145.483 337.156 145.453 341.28 145.585C346.481 145.751 348.617 148.971 346.629 153.793C345.444 156.531 344.064 159.182 342.5 161.724C341.34 163.68 338.066 164.708 336.062 163.476C332.859 161.504 329.545 161.583 326.053 161.904C322.979 162.186 321.697 160.822 321.716 157.644C321.721 156.966 321.717 156.292 321.717 155.169ZM287.128 270.334C287.964 268.004 291.285 266.912 294.012 265.901C296.431 264.92 299.053 264.544 301.651 264.806C302.946 264.945 304.197 265.357 305.322 266.015C306.447 266.672 307.42 267.559 308.178 268.618C310.085 271.507 309.776 275.335 308.77 278.647C307.582 282.561 305.217 286.476 301.378 287.886C300.236 288.362 298.964 288.424 297.781 288.064C296.569 287.626 295.67 286.608 294.862 285.603C291.941 281.971 289.471 277.998 287.506 273.771C287.216 273.253 287.033 272.682 286.968 272.091C286.904 271.501 286.958 270.903 287.128 270.334ZM230.917 109.077C231.144 109.694 231.223 110.356 231.149 111.009C231.002 112.246 230.273 113.326 229.549 114.339C227.453 117.271 225.218 120.097 222.845 122.817C222.033 123.749 221.037 124.743 219.8 124.711C218.746 124.684 217.879 123.912 217.132 123.167C215.164 121.197 213.332 119.096 211.65 116.878C207.714 111.69 209.489 106.305 212.503 101.028C213.26 99.7017 214.339 98.3022 215.864 98.2054C216.677 98.2191 217.474 98.4401 218.178 98.8474C221.675 100.534 224.937 102.668 227.884 105.195C229.131 106.264 230.387 107.581 230.916 109.077H230.917ZM283.832 142.4C285.153 142.632 286.5 142.778 287.79 143.126C289.866 143.685 290.842 145.172 290.521 147.267C289.748 152.301 289.051 157.359 287.96 162.33C286.938 166.992 283.68 168.502 279.226 166.858C277.072 166.063 274.904 165.304 272.724 164.58C269.558 163.528 268.672 161.807 270.222 158.92C272.438 154.789 275.184 150.916 277.111 146.665C278.551 143.488 280.508 142.186 283.832 142.4ZM347.998 167.824C348.467 166.074 348.597 164.126 349.475 162.613C351.296 159.552 353.309 156.61 355.502 153.804C356.963 151.897 359.538 151.711 361.411 153.362C363.982 155.63 366.305 158.179 368.827 160.506C371.26 162.751 371.629 166.849 368.994 168.8C365.276 171.498 361.386 173.952 357.348 176.145C356.283 176.736 354.192 176.751 353.262 176.078C350.553 174.119 347.792 171.915 347.998 167.824ZM259.031 234.87C258.647 237.149 257.403 239.161 256.205 241.402C255.287 243.121 253.934 245.023 251.986 244.998C250.951 244.984 250.02 244.404 249.15 243.843L239.881 237.866C238.055 236.69 236.012 235.122 236.08 232.952C236.13 231.307 237.411 229.99 238.645 228.901C241.305 226.555 244.148 224.425 247.147 222.531C247.884 222.002 248.721 221.627 249.607 221.429C251.294 221.161 252.932 222.136 254.198 223.281C256.649 225.523 258.322 228.487 258.976 231.743C259.188 232.772 259.206 233.832 259.031 234.868V234.87ZM372.664 194.076C371.151 194.2 369.038 194.356 366.928 194.55C361.846 195.018 360.912 194.383 359.589 189.562C359.395 188.817 359.147 188.087 358.846 187.378C357.886 185.191 358.352 183.243 360.308 182.056C364.132 179.666 368.082 177.481 372.14 175.511C374.911 174.213 378.1 175.304 378.912 177.549C380.229 181.049 381.306 184.635 382.133 188.281C382.924 191.993 381.188 193.855 377.311 194.065C375.969 194.139 374.617 194.076 372.664 194.076ZM120.012 114.851C119.976 115.945 119.856 117.033 119.653 118.108C119.247 120.254 118.257 122.702 116.109 123.599C114.322 124.344 112.286 123.841 110.419 123.329L104.521 121.714C102.742 121.227 100.895 120.703 99.5179 119.476C95.1728 115.603 99.9993 110.103 103.279 107.684C104.839 106.442 106.546 105.397 108.361 104.571C110.194 103.745 112.257 103.579 114.199 104.101C116.568 104.843 118.354 106.925 119.217 109.253C119.836 111.051 120.106 112.951 120.012 114.851ZM92.6925 103.908C92.8361 105.775 92.5976 107.652 91.9919 109.423C91.2332 111.428 89.6717 113.22 87.6114 113.815C85.3231 114.477 82.902 113.603 80.6811 112.742L75.2699 110.642C74.1161 110.274 73.0409 109.695 72.0994 108.934C67.401 104.62 76.1898 96.5432 79.8 94.7824C82.6172 93.4078 86.1607 92.9021 88.786 94.6159C91.4774 96.3732 92.399 99.8728 92.6415 103.078C92.662 103.354 92.6788 103.631 92.6919 103.908H92.6925ZM172.718 145.518C172.816 147.266 172.405 149.006 171.533 150.524C170.662 152.043 169.368 153.277 167.809 154.074C164.659 155.769 161.913 153.696 159.394 151.802C156.791 149.845 154.157 147.93 151.563 145.964C149.499 144.398 149.264 142.832 151.01 140.828C152.203 139.458 153.709 138.365 155.024 137.094C158.33 133.9 162.221 133.03 166.477 134.542C169.93 135.765 172.744 140.727 172.718 145.518ZM313.505 110.09C313.767 110.173 314.019 110.282 314.259 110.415C314.693 110.586 315.061 110.89 315.311 111.283C315.562 111.676 315.682 112.138 315.654 112.603C315.627 113.068 315.453 113.513 315.158 113.874C314.863 114.235 314.462 114.493 314.012 114.612C313.172 114.888 312.288 115 311.406 114.943C293.296 114.827 275.518 109.06 259.682 100.275C256.349 98.4263 257.252 94.2059 261.297 94.6594C263.11 94.863 264.653 96.0113 266.162 97.0373C272.723 101.494 280.309 104.261 288.029 106.067C295.75 107.872 303.658 108.755 311.531 109.716C312.2 109.776 312.861 109.901 313.505 110.09ZM299.41 146.784C299.544 146.639 299.688 146.504 299.84 146.378C301.201 145.261 303.103 145.111 304.862 145.178C306.72 145.249 308.566 145.506 310.372 145.946C311.392 146.13 312.352 146.556 313.172 147.188C314.319 148.195 314.059 149.493 314.004 150.842C313.822 155.324 314.863 160.196 310.867 163.44C309.408 164.625 307.554 165.191 305.732 165.651C303.444 166.228 301.126 166.679 298.789 167.001C298.024 167.176 297.225 167.129 296.486 166.868C294.819 166.101 294.838 163.762 295.124 161.951C295.762 157.916 296.439 153.867 297.734 149.993C298.06 148.817 298.631 147.723 299.41 146.784H299.41ZM176.966 288.081C176.972 290.13 176.624 292.154 175.533 293.691C173.673 296.31 170.529 295.243 168.034 294.335C164.06 292.889 156.858 291.79 154.065 288.4C150 283.464 167.232 274.78 170.496 275.067C174.256 275.397 175.69 279.251 176.308 282.446C176.701 284.3 176.921 286.186 176.966 288.081ZM284.033 254.585C284.128 256.036 283.877 257.488 283.301 258.823C282.934 259.681 282.356 260.433 281.62 261.007C280.883 261.581 280.014 261.959 279.092 262.106C276.989 262.331 275.052 261.056 273.324 259.839L265.787 254.534C264.731 253.791 263.634 253.001 263.05 251.849C262.073 249.918 262.862 247.47 264.353 245.901C265.883 244.29 267.912 243.608 269.8 242.562C271.734 241.491 273.409 240.544 275.706 241.286C277.6 241.991 279.241 243.247 280.418 244.89C282.321 247.347 283.533 250.268 283.928 253.351C283.979 253.755 284.016 254.171 284.033 254.585ZM147.259 127.895C147.241 129.135 147.057 130.366 146.713 131.557C145.947 134.23 144.061 136.941 141.298 137.25C139.489 137.453 137.752 136.584 136.141 135.739L128.558 131.765C127.692 131.378 126.907 130.832 126.242 130.157C123.711 127.24 128.415 122.815 130.472 121.037C133.124 118.746 136.665 117.105 140.093 117.831C141.483 118.171 142.773 118.832 143.86 119.761C144.947 120.69 145.801 121.861 146.353 123.18C146.984 124.67 147.294 126.277 147.26 127.895H147.259ZM103.788 237.489C105.496 239.495 104.901 242.583 104.587 244.95C104.189 247.957 104.422 252.061 103.274 254.868C102.578 256.572 101.275 256.805 99.736 256.292C95.3749 254.828 91.5796 252.039 88.8793 248.315C87.9195 247.107 87.2746 245.68 87.0023 244.161C86.4304 239.71 90.6734 237.764 94.352 237.032C96.6977 236.568 99.3787 236.046 101.804 236.429C102.574 236.526 103.28 236.904 103.789 237.489H103.788ZM191.519 166.031C191.482 166.368 191.419 167.528 191.211 168.66C190.714 171.36 189.604 173.812 186.732 174.508C183.743 175.232 181.645 173.532 179.858 171.242C178.447 169.435 176.587 167.963 175.289 166.09C174.461 164.898 173.618 163.055 173.964 161.84C174.845 158.741 181.079 155.675 184.259 156.314C189.202 157.305 191.564 160.2 191.519 166.031ZM269.263 305.655C269.247 305.556 269.24 305.456 269.242 305.356C269.306 304.796 269.521 304.263 269.864 303.815C272.641 299.46 275.723 295.265 277.996 290.61C279.107 288.336 280.815 278.995 285.305 282.341C286.783 283.443 287.224 285.466 287.243 287.309C287.307 293.175 284.252 298.618 280.731 303.312C279.397 305.086 277.914 306.86 275.894 307.778C273.873 308.696 271.185 308.5 269.798 306.769C269.528 306.449 269.344 306.065 269.263 305.655ZM191.31 298.807C189.179 297.698 188.062 296.128 189.466 293.849C191.723 290.187 199.818 285.524 204.226 286.527C205.533 286.881 206.684 287.664 207.495 288.749C210.286 292.234 213.564 302.743 205.697 302.051C201.174 301.653 195.378 300.923 191.313 298.807H191.31ZM193.573 90.65C193.194 85.9522 195.859 84.1578 200.19 85.9035C208.938 89.4286 210.232 92.6892 206.213 101.087C206.089 101.348 205.974 101.615 205.829 101.863C203.94 105.085 201.162 105.644 198.158 103.444C197.23 102.764 196.103 102.3 195.316 101.494C194.567 100.73 193.736 99.6831 193.652 98.6995C193.425 96.0334 193.575 93.3342 193.575 90.65H193.573ZM131.91 158.536C130.733 158.732 129.433 158.695 128.7 157.801C128.358 157.31 128.135 156.748 128.047 156.157C127.387 153.251 126.726 150.346 126.066 147.441C125.507 144.979 124.175 139.628 128.588 139.881C129.994 139.962 131.231 140.795 132.379 141.612C135.922 144.091 139.32 146.771 142.556 149.638C143.133 150.06 143.556 150.659 143.762 151.343C143.974 152.503 142.962 153.494 142.004 154.178C139.118 156.232 135.848 157.683 132.389 158.444C132.233 158.478 132.072 158.509 131.91 158.536ZM97.5713 128.761C97.9727 128.42 98.4648 128.202 98.9877 128.136C102.348 127.595 106.238 129.631 109.218 130.946C110.281 131.36 111.28 131.92 112.188 132.611C113.783 133.945 114.311 136.052 113.097 137.846C112.263 139.078 110.937 139.87 109.655 140.622L104.463 143.668C103.718 144.152 102.911 144.532 102.064 144.797C101.639 144.926 101.193 144.969 100.751 144.921C100.309 144.874 99.8816 144.737 99.4941 144.52C97.8822 143.5 98.0509 141.346 97.87 139.697C97.5689 136.934 97.2795 134.169 96.8538 131.421C96.7387 130.953 96.7442 130.464 96.8697 129.999C96.9951 129.533 97.2365 129.108 97.5713 128.761ZM76.0947 235.676C72.9404 237.077 68.9567 234.609 66.7218 232.034C63.2862 228.075 59.9116 221.62 67.0571 219.706C71.2154 218.592 78.1358 219.037 79.695 223.954C80.666 227.019 80.1758 231.287 78.1927 233.939C77.6562 234.69 76.9341 235.288 76.097 235.676H76.0947ZM153.346 174.672C153.846 171.072 154.139 167.426 154.907 163.885C155.652 160.451 157.836 159.443 160.625 161.491C163.445 163.561 165.875 166.234 168.194 168.889C169.418 170.29 169.496 172.504 167.682 173.461C164.317 175.27 160.793 176.765 157.153 177.927C156.675 178.091 156.162 178.127 155.665 178.032C155.168 177.937 154.705 177.714 154.321 177.386C153.936 177.057 153.644 176.634 153.473 176.158C153.302 175.682 153.258 175.17 153.346 174.672ZM344.801 181.239C344.838 181.239 344.877 181.239 344.917 181.239C345.308 181.291 345.679 181.447 345.99 181.691C346.301 181.935 346.54 182.258 346.683 182.627C347.567 184.475 346.927 186.783 345.571 188.32C342.906 191.341 337.85 191.529 334.584 189.171C330.292 186.072 328.162 177.928 333.049 174.374C334.123 173.593 335.704 173.19 336.729 174.034C337.627 174.773 337.691 176.155 337.328 177.261C336.966 178.366 336.269 179.335 335.862 180.424C335.455 181.514 335.398 182.873 336.202 183.716C337.207 184.771 338.963 184.481 340.288 183.876C341.219 183.451 342.094 182.913 342.894 182.273C343.468 181.812 344.077 181.273 344.801 181.239ZM182.595 184.639C182.948 184.819 183.283 185.034 183.594 185.281C186.12 187.236 187.973 189.921 189.596 192.674C190.118 193.555 190.632 194.609 190.25 195.559C189.902 196.425 188.946 196.849 188.078 197.19L182.18 199.505C181.184 199.896 180.058 200.286 179.079 199.853C177.802 199.292 177.454 197.665 177.396 196.274C177.286 193.625 177.477 185.254 180.957 184.385C181.516 184.27 182.097 184.36 182.595 184.639ZM336.153 340.847C335.012 340.935 333.87 340.678 332.878 340.108C329.444 338.122 324.169 325.216 331.26 325.23C332.557 325.279 333.82 325.659 334.93 326.332C336.883 327.436 338.51 329.037 339.646 330.972C340.577 332.486 341.064 334.231 341.051 336.009C340.956 338.858 338.664 340.66 336.153 340.847ZM69.0477 121.516C69.0547 118.46 70.7014 116.338 73.0257 116.993C76.0929 117.915 78.9959 119.314 81.6283 121.139C83.3051 122.267 82.9688 124.142 81.1352 125.434C79.5726 126.536 78.0732 127.726 76.5558 128.889C73.615 131.145 70.6562 130.17 69.7763 126.536C69.4453 124.877 69.2021 123.201 69.0477 121.516ZM299.983 306.839C300.028 307.088 300.056 307.34 300.07 307.593C300.244 311.619 293.322 312.353 290.591 311.212C286.689 309.582 288.015 304.676 289.842 301.951C290.667 300.723 292.011 299.051 293.57 298.753C296.757 298.145 299.462 303.815 299.983 306.839ZM317.211 457.541C317.72 457.484 318.222 457.375 318.709 457.217C341.764 450.442 362.53 437.502 378.768 419.791C380.071 418.365 381.406 416.285 380.347 414.671C379.201 412.926 376.506 413.576 374.675 414.578C369.173 417.584 364.558 421.939 359.762 425.976C353.078 431.699 345.802 436.69 338.056 440.865C333.568 443.235 328.909 445.253 324.339 447.457C321.694 448.733 313.562 451.302 314.283 455.357C314.391 455.903 314.663 456.402 315.063 456.79C315.463 457.177 315.971 457.433 316.52 457.523C316.75 457.555 316.982 457.561 317.212 457.541H317.211ZM117.181 78.7454C117.154 80.1403 119 81.0584 120.227 81.0654C121.543 80.9853 122.809 80.5363 123.881 79.7697C128.236 77.0438 131.968 72.6261 137.092 72.2468C139.635 72.0589 142.118 72.9324 144.613 73.4648C147.108 73.9972 149.915 74.1283 152 72.6598C154.262 71.0666 155.024 67.962 154.599 65.2262C154.405 63.453 153.544 61.8198 152.191 60.6572C150.103 59.0512 147.125 59.3296 144.615 60.1352C140.323 61.5086 136.556 64.1312 132.863 66.7168L120.428 75.4234C119.515 76.0613 117.364 77.3234 117.195 78.5645C117.188 78.6245 117.183 78.6849 117.181 78.7454ZM250.249 173.856C250.032 173.413 249.701 173.035 249.291 172.761C244.337 168.936 238.407 166.637 232.913 163.638C225.035 159.331 218.041 153.575 212.3 146.672C211.665 145.763 210.828 145.014 209.854 144.483C204.372 142.095 209.115 151.327 210.165 152.728C214.084 157.956 218.974 162.388 224.155 166.368C228.758 169.906 233.683 173.147 239.17 175.045C242.225 176.101 245.578 176.724 248.678 175.81C249.441 175.586 250.302 175.107 250.328 174.311C250.333 174.156 250.306 174.001 250.249 173.856ZM350.059 249.185C349.886 248.91 349.658 248.674 349.39 248.491C349.122 248.308 348.819 248.182 348.5 248.12C339.145 245.835 329.027 246.445 320.276 242.424C318.855 241.771 317.456 240.992 315.909 240.756C313.106 240.328 310.093 242.659 312.739 245.274C313.552 245.982 314.49 246.533 315.505 246.898C324.674 250.837 334.356 254.717 344.298 253.862C346.278 253.692 350.301 252.868 350.309 250.19C350.316 249.839 350.23 249.492 350.059 249.185ZM341.188 414.038C340.806 412.632 338.876 412.342 337.012 413.431C330.732 417.098 324.541 420.91 318.358 424.74C315.271 426.654 312.164 428.536 309.096 430.479C307.657 431.39 306.131 432.21 305.058 433.573C304.838 433.804 304.706 434.104 304.682 434.422C304.712 434.649 304.817 434.859 304.98 435.019C305.143 435.18 305.355 435.281 305.582 435.307C306.038 435.349 306.497 435.284 306.923 435.117C316.369 432.202 325.42 428.135 333.872 423.008C336.693 421.3 339.189 419.355 340.743 416.363C341.175 415.67 341.334 414.841 341.188 414.038ZM335.57 393.009C336.404 392.813 337.205 392.496 337.948 392.069C342.425 389.609 346.73 386.851 350.836 383.813C352.789 382.367 354.683 380.852 356.547 379.293C357.877 378.18 359.763 377.18 360.684 375.684C361.548 374.279 361.52 372.178 360.178 371.218C359.672 370.912 359.094 370.742 358.502 370.727C357.91 370.712 357.324 370.852 356.803 371.133C355.768 371.706 354.833 372.443 354.035 373.316C348.751 378.423 342.785 382.772 336.307 386.24C335.089 386.891 333.812 387.547 332.993 388.657C332.174 389.766 331.99 391.484 332.979 392.446C333.328 392.75 333.749 392.961 334.202 393.06C334.655 393.158 335.125 393.14 335.569 393.008L335.57 393.009ZM324.149 399.528C324.478 398.17 323.685 397.034 321.959 396.838C318.854 396.487 315.621 398.752 313.102 400.266C309.958 402.16 306.738 403.926 303.547 405.74C301.226 407.057 298.446 407.88 296.511 409.8C293.304 412.98 297.091 415.512 300.584 414.016C304.857 412.172 309.031 410.107 313.089 407.827C316.395 405.98 321.267 403.96 323.538 400.8C323.822 400.419 324.029 399.987 324.148 399.528H324.149ZM367.633 400.456C370.376 398.709 368.469 394.437 365.313 395.221C364.676 395.365 364.063 395.604 363.496 395.929C359.629 398.27 355.899 400.83 352.324 403.596C352.138 403.747 351.986 403.937 351.879 404.152C351.684 404.55 351.588 404.989 351.599 405.432C351.61 405.875 351.727 406.308 351.94 406.697C352.154 407.085 352.457 407.416 352.826 407.662C353.194 407.909 353.616 408.063 354.056 408.112C354.354 408.162 354.661 408.122 354.935 407.996C359.265 405.713 363.413 403.079 367.576 400.491L367.633 400.456ZM275.185 202.919C275.254 202.89 275.319 202.855 275.38 202.813C275.694 202.561 275.922 202.218 276.034 201.832C277.072 199.106 276.895 196.057 276.296 193.2C275.774 190.706 274.877 188.181 273.039 186.42C272.93 186.289 272.795 186.182 272.641 186.108C272.487 186.034 272.319 185.994 272.149 185.99C271.929 186.036 271.727 186.144 271.569 186.304C267.168 190.086 269.836 197.97 272.841 201.789C273.417 202.522 274.382 203.255 275.185 202.919ZM332.14 267.073C332.199 267.154 332.264 267.23 332.334 267.302C332.736 267.666 333.216 267.931 333.738 268.077C336.846 269.183 340.081 269.892 343.366 270.187C344.925 270.326 346.858 270.164 347.515 268.744C347.693 268.269 347.733 267.754 347.63 267.258C347.528 266.762 347.287 266.305 346.935 265.94C346.22 265.221 345.35 264.675 344.392 264.343C342.346 263.422 340.122 262.964 337.878 263.002C336.506 263.073 330.44 264.782 332.14 267.073ZM270.339 380.021C271.517 378.945 271.956 377.377 270.647 375.653C269.53 374.183 267.547 373.6 265.701 373.665C263.855 373.729 262.079 374.339 260.301 374.836C247.399 378.442 233.594 376.206 220.66 372.716C209.006 369.573 197.643 365.437 186.696 360.355C185.103 359.615 181.574 357.023 179.829 358.522C177.789 360.274 180.395 362.624 181.849 363.571C196.901 373.387 214.274 379.235 231.931 382.571C238.965 383.9 246.154 384.848 253.276 384.111C256.512 383.757 259.724 383.21 262.894 382.472C265.224 381.94 268.509 381.692 270.339 380.021ZM241.351 363.366C241.678 364.648 244.425 364.868 245.545 364.728C250.038 364.168 254.478 364.507 258.993 364.23C260.333 364.147 261.802 363.461 262.135 362.16C264.345 353.507 246.193 359.329 243.212 360.897C242.611 361.163 242.086 361.574 241.685 362.095C241.542 362.271 241.439 362.475 241.381 362.694C241.323 362.913 241.313 363.142 241.351 363.366ZM214.7 359.356C215.15 360.464 216.011 361.354 217.103 361.84C220.464 363.443 224.528 363.371 228.171 363.439C232.729 363.522 232.412 357.987 229.075 356.448C225.879 354.975 220.421 354.882 217.084 355.765C214.777 356.375 214.185 357.914 214.7 359.356Z" fill="#181818"/>
</g>
</g>
<defs>
<filter id="filter0_d" x="0" y="0" width="505" height="535" filterUnits="userSpaceOnUse" color-interpolation-filters="sRGB">
<feFlood flood-opacity="0" result="BackgroundImageFix"/>
<feColorMatrix in="SourceAlpha" type="matrix" values="0 0 0 0 0 0 0 0 0 0 0 0 0 0 0 0 0 0 127 0"/>
<feOffset dy="4"/>
<feGaussianBlur stdDeviation="15"/>
<feColorMatrix type="matrix" values="0 0 0 0 0.691667 0 0 0 0 0.679217 0 0 0 0 0.613854 0 0 0 0.7 0"/>
<feBlend mode="normal" in2="BackgroundImageFix" result="effect1_dropShadow"/>
<feBlend mode="normal" in="SourceGraphic" in2="effect1_dropShadow" result="shape"/>
</filter>
<clipPath id="clip0">
<rect width="445" height="475" rx="20" transform="matrix(-1 0 0 1 475 26)" fill="white"/>
</clipPath>
</defs>
</svg>
