<svg width="444" height="537" viewBox="0 0 444 537" fill="none" xmlns="http://www.w3.org/2000/svg">
<g filter="url(#filter0_d)">
<path d="M282.083 61.3872C282.083 63.1183 282.059 64.8589 282.121 66.6185C282.388 74.2277 282.245 82.0413 283.41 89.5792C285.694 104.096 289.984 118.226 296.155 131.563C302.257 144.817 304.644 158.799 308.401 172.757C309.381 176.39 309.167 180.038 309.9 183.652C310.613 187.181 311.944 190.21 312.125 193.91C312.444 200.278 310.513 206.822 315.245 211.887C319.977 216.952 323.054 222.017 326.017 228.185C329.236 234.876 329.897 242.58 331.491 249.757C334.644 263.919 344.193 274.962 349.919 288.14C355.916 301.932 362.241 315.476 369.351 328.745C370.811 331.479 372.366 334.87 375.871 335.217C379.057 335.531 382.653 333.21 385.406 331.917C389.563 329.972 393.753 326.243 398.542 326.082C406.626 325.81 401.533 335.246 400.073 339.084C398.727 342.612 397.296 346.151 396.321 349.808C395.602 352.519 393.967 356.466 395.17 359.205C396.268 361.697 399.497 362.444 399.925 365.388C400.724 370.719 393.006 378.171 390.228 382.218C385.981 388.381 381.156 394.125 375.819 399.372C370.839 404.327 365.832 409.759 360.248 414.048C354.366 418.585 348.254 422.865 342.343 427.364C330.363 436.519 318.408 445.179 305.424 452.874C292.28 460.664 278.436 466.337 263.945 471.165C256.811 473.542 249.34 475.197 242.021 476.838C238.968 477.518 234.778 478.664 231.739 477.242C228.615 475.787 229.285 472.487 229.704 469.609C230.788 462.076 227.801 460.516 221.671 456.55C218.342 454.401 206.206 449.526 210.6 444.323C214.847 439.296 224.201 438.954 228.234 433.385C229.97 430.974 229.228 426.589 229.157 423.778C229.085 420.434 228.553 417.115 227.578 413.915C225.585 407.443 221.671 402.939 216.212 399.068C209.354 394.212 204.527 395.292 198.639 400.927C193.156 406.158 189.375 411.77 185.903 418.49C182.432 425.21 182.484 431.901 181.015 439.139C179.407 447.067 176.625 449.193 168.73 449.807C161.549 450.368 168.678 458.69 166.524 463.375C164.217 468.406 156.537 470.237 153.655 464.992C152.637 463.142 150.987 458.809 149.222 463.308C148.181 465.952 149.508 471.212 149.86 473.989C150.516 479.164 154.264 487.491 147.139 489.845C144.914 490.582 141.357 490.373 139.668 488.523C137.604 486.259 138.299 481.099 138.57 478.279C138.893 474.95 140.615 471.084 139.35 467.816C137.747 463.684 135.545 466.518 132.934 467.816C126.21 471.145 125.159 461.158 124.312 456.641C123.052 449.925 123.984 443.443 118.391 438.326C116.589 436.676 113.545 433.918 111.258 433.095C108.223 431.996 104.552 432.686 101.38 431.782C94.8931 429.937 89.9233 424.202 82.8944 424.696C76.1079 425.172 70.3773 424.221 64.347 420.892C58.4452 417.667 52.2675 413.34 47.916 408.17C44.4443 403.976 40.088 395.91 41.1676 390.346C41.8286 386.96 44.449 384.201 46.4465 381.529C48.772 378.409 51.031 375.203 53.4849 372.184C58.1931 366.391 63.082 360.689 67.3384 354.535C75.6276 342.546 81.6816 329.468 88.8343 316.836C92.6388 310.117 94.2177 304.842 92.7007 297.124C91.331 290.157 88.021 284.593 89.3241 277.216C90.3323 271.51 94.0465 264.652 97.9653 260.376C99.9181 258.183 102.01 256.118 104.229 254.194C106.416 252.377 109.46 251.854 111.5 249.966C113.664 247.973 114.491 244.573 115.685 241.991C117.112 238.942 119.409 235.918 118.667 232.375C118.011 229.217 115.585 225.783 114.216 222.83C112.618 219.387 111.02 215.944 109.365 212.534C106.079 205.747 102.445 200.254 96.5766 195.413C94.0085 193.302 90.3941 191.475 88.3634 188.822C86.3327 186.168 85.1866 182.054 84.3496 178.835C80.6592 164.629 74.4101 151.251 69.6734 137.388C68.1754 133.013 63.8001 123.464 69.2359 120.648C75.6704 117.319 82.2333 119.098 88.1447 122.574C94.3557 126.222 99.3492 131.135 103.976 136.618C108.899 142.444 113.645 144.113 120.75 146.519C134.156 151.066 145.955 159.912 153.607 171.991C155.51 174.968 157.326 178.002 158.977 181.122C160.037 183.124 161.326 188.617 163.257 189.792C165.421 191.114 167.622 188.28 169.439 187.224C172.293 185.583 175.465 184.651 178.542 183.538C185.288 181.017 192.453 179.807 199.652 179.971C203.195 180.024 206.738 180.128 210.277 180.242C214.248 180.371 215.551 180.081 217.03 176.276C219.712 169.361 223.25 162.356 225.328 155.265C227.312 148.522 227.231 140.97 227.706 133.993C228.724 118.836 229.499 104.983 236.856 91.3863C243.595 78.9501 250.577 66.8943 258.19 55.0288C260.164 51.9518 262.162 48.8987 264.088 45.7932C265.8 43.0348 267.417 39.2255 269.98 37.1758C270.936 36.4032 272.089 35.9128 273.309 35.7599C274.529 35.607 275.768 35.7976 276.885 36.3102C280.095 37.794 280.59 41.104 281.232 44.238C282.411 49.9734 282.15 55.6803 282.083 61.3872Z" fill="white"/>
<path d="M282.083 61.3872C282.083 63.1183 282.059 64.8589 282.121 66.6185C282.388 74.2277 282.245 82.0413 283.41 89.5791C285.695 104.096 289.984 118.226 296.155 131.563C302.257 144.817 304.644 158.799 308.401 172.757C309.381 176.39 309.167 180.038 309.9 183.652C310.613 187.181 311.944 190.21 312.125 193.91C312.444 200.278 310.513 206.822 315.245 211.887C319.977 216.952 323.054 222.017 326.017 228.185C329.236 234.876 329.897 242.58 331.491 249.757C334.644 263.919 344.193 274.962 349.919 288.14C355.916 301.932 362.241 315.476 369.351 328.745C370.811 331.479 372.366 334.87 375.871 335.217C379.057 335.531 382.653 333.21 385.406 331.917C389.563 329.972 393.753 326.243 398.542 326.082C406.626 325.81 401.533 335.246 400.073 339.084C398.727 342.612 397.296 346.151 396.321 349.808C395.602 352.519 393.966 356.466 395.17 359.205C396.268 361.697 399.497 362.444 399.925 365.388C400.724 370.719 393.006 378.171 390.229 382.218C385.981 388.381 381.156 394.125 375.819 399.372C370.839 404.327 365.832 409.759 360.248 414.048C354.366 418.585 348.254 422.865 342.343 427.364C330.363 436.519 318.408 445.179 305.424 452.874C292.28 460.664 278.436 466.337 263.945 471.165C256.811 473.542 249.34 475.197 242.021 476.838C238.968 477.518 234.778 478.664 231.739 477.242C228.615 475.787 229.285 472.487 229.704 469.609C230.788 462.076 227.801 460.516 221.671 456.55C218.342 454.401 206.206 449.526 210.6 444.323C214.847 439.296 224.201 438.954 228.234 433.385C229.97 430.974 229.228 426.589 229.157 423.778C229.085 420.434 228.553 417.115 227.578 413.915C225.585 407.443 221.671 402.939 216.212 399.068C209.354 394.212 204.527 395.292 198.639 400.927C193.156 406.158 189.375 411.77 185.903 418.49C182.432 425.21 182.484 431.901 181.015 439.139C179.407 447.067 176.625 449.193 168.73 449.807C161.549 450.368 168.678 458.69 166.524 463.375C164.217 468.406 156.537 470.237 153.655 464.992C152.637 463.142 150.987 458.809 149.222 463.308C148.181 465.952 149.508 471.212 149.86 473.989C150.516 479.164 154.264 487.491 147.139 489.845C144.914 490.582 141.357 490.373 139.668 488.523C137.604 486.259 138.299 481.099 138.57 478.279C138.893 474.95 140.615 471.084 139.35 467.816C137.747 463.684 135.545 466.518 132.934 467.816C126.21 471.145 125.159 461.158 124.312 456.641C123.052 449.925 123.984 443.443 118.391 438.326C116.589 436.676 113.545 433.918 111.258 433.095C108.223 431.996 104.552 432.686 101.38 431.782C94.8931 429.937 89.9233 424.202 82.8944 424.696C76.1079 425.172 70.3773 424.221 64.347 420.892C58.4452 417.667 52.2675 413.34 47.916 408.17C44.4443 403.976 40.088 395.91 41.1676 390.346C41.8286 386.96 44.449 384.201 46.4465 381.529C48.772 378.409 51.031 375.203 53.4849 372.184C58.1931 366.391 63.082 360.689 67.3384 354.535C75.6276 342.546 81.6816 329.468 88.8343 316.836C92.6388 310.117 94.2177 304.842 92.7007 297.124C91.331 290.157 88.021 284.593 89.3241 277.216C90.3323 271.51 94.0465 264.652 97.9653 260.376C99.9181 258.183 102.01 256.118 104.229 254.194C106.416 252.377 109.46 251.854 111.5 249.966C113.664 247.973 114.491 244.573 115.685 241.991C117.112 238.942 119.409 235.918 118.667 232.375C118.011 229.217 115.585 225.783 114.216 222.83C112.618 219.387 111.02 215.944 109.365 212.534C106.079 205.747 102.445 200.254 96.5766 195.413C94.0085 193.302 90.3941 191.475 88.3634 188.822C86.3327 186.168 85.1866 182.054 84.3496 178.835C80.6592 164.629 74.4101 151.251 69.6734 137.388C68.1754 133.013 63.8001 123.464 69.2359 120.648C75.6704 117.319 82.2333 119.098 88.1447 122.574C94.3557 126.222 99.3492 131.135 103.976 136.618C108.899 142.444 113.645 144.113 120.75 146.519C134.156 151.066 145.955 159.912 153.607 171.991C155.51 174.968 157.326 178.002 158.976 181.122C160.037 183.124 161.326 188.617 163.257 189.792C165.421 191.114 167.622 188.28 169.439 187.224C172.293 185.583 175.465 184.651 178.542 183.538C185.288 181.017 192.453 179.807 199.652 179.971C203.195 180.024 206.738 180.128 210.277 180.242C214.248 180.371 215.551 180.081 217.03 176.276C219.712 169.361 223.25 162.356 225.328 155.265C227.312 148.522 227.231 140.97 227.706 133.993C228.724 118.836 229.499 104.983 236.856 91.3863C243.595 78.9501 250.577 66.8943 258.19 55.0288C260.164 51.9518 262.162 48.8987 264.088 45.7932C265.8 43.0348 267.417 39.2255 269.98 37.1758C270.936 36.4032 272.089 35.9128 273.309 35.7599C274.529 35.607 275.768 35.7976 276.885 36.3102C280.095 37.794 280.59 41.104 281.232 44.238C282.411 49.9734 282.15 55.6803 282.083 61.3872ZM263.374 328.231C263.265 321.074 262.475 314.302 256.046 309.318C252.479 306.555 248.503 304.338 244.066 303.359C234.892 301.328 225.481 304.067 218 309.479C210.143 315.158 202.339 322.586 191.796 320.379C189.565 319.904 187.107 318.639 184.786 319.105C182.465 319.571 180.653 321.749 178.912 323.181C175.246 326.191 171.565 330.737 166.429 328.992C162.386 327.618 159.057 325.877 154.82 328.041C150.968 330 148.809 334.276 145.099 336.601C141.295 338.979 136.682 339.226 133.048 341.804C129.22 344.51 128.04 347.035 126.148 351.078C124.05 355.538 121.948 359.847 120.303 364.579C118.657 369.311 117.654 373.8 115.357 378.337C113.194 382.514 110.345 386.298 106.93 389.532C104.076 392.281 98.6786 393.855 97.9748 397.902C97.5372 400.399 97.2424 403.081 96.8191 405.612C96.491 407.566 96.4672 409.858 98.6073 410.462C102.74 411.623 106.278 401.992 107.838 399.301C109.455 396.509 113.255 390.35 117.207 392.643C121.463 395.111 115.723 401.707 114.254 404.456C113.545 405.773 112.061 407.557 111.919 409.212C111.896 409.417 111.933 409.624 112.026 409.808C112.119 409.992 112.263 410.145 112.442 410.249C112.62 410.353 112.824 410.403 113.03 410.392C113.236 410.382 113.435 410.312 113.602 410.191C116.503 408.161 118.976 402.806 121.031 400.442C122.876 398.321 127.555 396.585 128.82 400.509C129.948 403.985 123.408 407.904 125.016 410.562C126.49 412.94 131.198 409.692 132.92 413.264C133.452 414.381 132.772 416.849 134.118 417.544C136.263 418.628 135.697 415.228 135.797 414.153C136.178 410.087 138.479 410.291 141.98 410.12C146.64 409.896 149.042 406.563 152.166 403.414C155.291 400.266 158.349 396.756 160.56 392.847C165.111 384.815 168.726 376.635 172.388 368.174C176.016 359.804 181.866 353.66 188.034 347.126C193.379 341.471 200.014 336.187 208.422 337.139C212.702 337.614 213.425 340.563 211.874 344.187C209.634 349.418 210.286 352.238 212.074 357.569C213.339 361.326 215.237 364.936 211.152 367.475C207.547 369.715 203.766 370.895 200.27 373.558C193.085 379.07 188.781 386.203 183.264 393.223C177.747 400.242 173.353 408.503 167.285 415.147C162.277 420.625 156.446 428.886 148.528 430.237C145.737 430.712 125.815 421.329 130.789 431.811C132.582 435.615 137.514 436.833 141.171 437.993C145.713 439.42 149.731 440.799 154.44 439.258C163 436.467 168.654 429.4 173.405 422.138C178.679 414.096 183.654 406.444 190.05 399.168C202.415 385.076 222.48 383.635 237.541 373.644C244.675 368.888 248.574 362.42 252.022 354.806C255.256 347.672 263.46 340.663 263.436 332.549C263.393 331.104 263.398 329.663 263.374 328.231ZM238.012 458.804C237.47 463.65 236.462 470.08 242.292 469.966C245.93 469.89 249.35 468.268 252.859 467.474C256.528 466.729 260.151 465.777 263.712 464.621C271.004 462.084 278.222 459.377 285.365 456.498C298.99 451 312.239 442.858 323.805 433.818C329.607 429.286 335.129 424.653 341.168 420.402C347.037 416.269 352.91 412.037 358.379 407.381C369.31 398.115 378.822 387.294 386.609 375.265C391.579 367.537 385.183 364.375 380.598 358.815C378.144 355.852 375.795 352.804 373.417 349.779C371.101 346.84 368.718 343.93 366.631 340.824C364.79 338.08 363.615 333.852 361.318 331.541C358.831 329.04 357.038 332.273 355.136 334.261C352.46 337.055 349.779 339.845 347.094 342.631C341.896 348.034 336.807 353.493 331.215 358.497C308.749 378.594 285.056 397.964 258.476 412.417C255.47 414.053 252.726 416.16 249.578 417.515C246.43 418.871 243.224 419.465 240.033 420.459C234.264 422.257 236.528 429.086 236.704 434.051C236.947 441.398 238.34 448.794 238.235 456.122C238.216 456.907 238.121 457.825 238.012 458.804ZM258.062 204.772C258.02 206.994 258.098 209.217 258.295 211.43C258.528 214.07 260.35 215.497 262.442 212.7C264.154 210.422 264.487 205.567 265.229 202.799C266.099 199.57 267.279 196.388 267.954 193.164C268.515 190.467 269.119 186.406 271.254 184.399C272.924 182.825 275.953 182.749 277.347 184.722C279.011 187.1 277.009 191.409 276.457 193.863C275.625 197.577 274.702 201.282 273.999 205.02C273.48 207.754 271.507 213.242 272.391 215.887C273.818 220.167 276.376 214.674 277.033 212.909C278.294 209.373 279.268 205.741 279.943 202.047C280.813 197.582 280.333 192.35 286.516 192.855C293.307 193.406 288.418 202.328 287.524 206.237C287.005 208.563 282.345 225.66 287.89 223.496C290.496 222.478 291.571 216.8 292.375 214.526C293.578 211.117 294.89 207.716 295.813 204.216C298.919 192.46 297.349 180.685 290.805 170.398C286.568 163.74 281.574 157.229 277.884 150.267C274.151 143.214 271.782 135.049 269.048 127.568C266.137 119.607 266.004 111.731 265.267 103.414C264.844 98.6578 263.94 93.9402 263.698 89.1464C263.56 86.4451 264.173 83.7201 264.249 81.0188C264.392 76.7862 263.022 72.9579 259.865 78.2653C257.163 82.807 256.612 88.2856 255.004 93.2315C252.74 100.194 250.819 107.318 248.318 114.2C245.906 120.858 244.037 127.601 244.104 134.744C244.156 141.645 246.995 148.679 245.531 155.579C244.018 162.789 240.994 169.889 238.721 176.885C236.343 184.199 235.691 190.648 237.389 198.257C237.974 200.896 238.725 203.788 240.1 206.137C242.478 210.218 244.342 208.106 246.282 204.791C249.564 199.251 251.775 192.664 253.187 186.444C254.034 182.711 254.709 172.053 261.087 174.364C266.608 176.362 260.854 187.366 259.874 191.09C258.729 195.563 258.121 200.156 258.062 204.772ZM145.494 269.688C145.379 272.056 145.763 274.422 146.621 276.631C147.548 278.924 150.559 285.158 153.493 285.192C156.989 285.254 158.144 277.511 158.967 275.081C160.475 270.601 161.583 265.57 163.647 261.289C165.511 257.485 168.512 253.029 171.826 250.328C174.376 248.254 180.258 248.045 181.752 244.844C183.854 240.35 175.655 238.928 172.83 239.018C168.031 239.175 164.598 240.897 160.56 243.341C156.28 245.943 154.059 248.454 151.524 252.762C149.28 256.567 146.683 259.834 146.036 264.295C145.751 266.081 145.57 267.881 145.494 269.688ZM241.018 281.682C241.07 282.39 241.23 283.086 241.493 283.746C243.619 288.778 247.652 281.796 248.779 279.718C251.894 273.959 254.12 269.255 252.046 262.783C250.077 256.629 246.753 250.456 241.312 246.723C236.081 243.123 225.842 238.605 222.546 247.236C219.593 254.988 229.68 261.066 234.683 264.642C237.917 266.944 240.865 268.414 241.369 272.675C241.693 275.262 240.765 278.81 241.018 281.677V281.682ZM197.046 263.553C197.136 267.738 197.155 271.942 195.928 275.999C194.502 280.669 192.305 286.238 188.091 289.044C183.526 292.078 177.999 293.058 172.64 292.939C169.704 292.84 166.768 293.109 163.899 293.738C161.697 294.213 157.341 294.622 155.876 296.472C151.448 302.079 164.179 298.46 165.668 298.146C175.859 295.987 189.175 296.839 197.098 288.844C201.017 284.887 201.669 277.64 201.769 272.38C201.873 267.201 202.334 262.036 202.639 256.871C202.748 254.917 202.905 246.49 198.568 250.77C196.704 252.606 196.989 256.586 196.98 258.94C196.989 260.467 197.013 262.008 197.046 263.553ZM98.0413 278.89C97.9659 280.341 98.2467 281.787 98.8593 283.104C100.762 286.961 107.791 282.053 110.549 280.726C115.78 278.187 119.504 272.099 118.8 266.302C118.41 263.063 116.631 255.768 111.942 257.414C107.424 258.997 103.777 264.547 101.504 268.433C99.9151 271.115 98.146 275.186 98.0413 278.89ZM292.76 281.711C292.712 285.738 293.629 289.718 295.433 293.319C296.617 295.664 299.713 301.808 303.232 300.058C305.61 298.86 304.83 295.174 305.134 293.039C305.648 289.71 307.712 286.528 307.441 283.052C307.17 279.575 304.083 278.182 302.685 275.267C301.168 272.156 302.447 268.77 301.33 265.693C298.757 258.602 293.906 273.302 293.421 275.68C293.001 277.663 292.779 279.684 292.76 281.711ZM154.692 197.477C154.78 196.778 154.74 196.069 154.573 195.385C153.983 193.007 152.328 183.8 149.17 183.429C146.488 183.11 144.343 195.651 143.692 197.663C142.027 202.818 138.527 206.951 136.596 211.93C135.835 213.908 135.55 215.758 138.113 215.53C140.391 215.325 142.541 212.11 144.02 210.646C147.296 207.412 154.064 202.518 154.692 197.477ZM57.242 387.112C54.7785 386.945 50.3129 386.636 50.037 389.233C49.823 391.287 55.5251 392.262 57.1373 392.757C63.4529 394.702 69.1741 390.707 75.4136 389.642C78.4145 389.128 81.5009 389.903 84.1974 391.392C85.1486 391.925 86.5753 393.884 87.574 393.955C91.5926 394.236 87.9544 388.448 86.951 387.364C85.7347 386.069 84.2465 385.061 82.5937 384.41C80.9408 383.76 79.1643 383.484 77.392 383.602C74.3626 383.835 71.59 385.447 68.6414 386.113C65.2567 386.849 61.7993 387.199 58.3358 387.155C58.0599 387.155 57.6842 387.155 57.242 387.112ZM202.501 350.726C202.211 347.958 201.488 345.609 198.069 347.325C195.305 348.709 193.313 351.605 191.201 353.803C189.484 355.6 187.872 357.198 188.89 359.795C189.58 361.535 192.024 364.365 193.532 365.502C196.357 367.67 202.801 364.988 204.175 361.792C204.998 359.89 203.533 357.122 203.019 355.263C202.696 354.102 202.696 352.343 202.501 350.726ZM294.819 357.346C295.187 354.788 294.937 352.179 294.091 349.737C292.037 343.863 288.385 348.876 287.043 352.462C285.85 355.657 285.079 358.516 283.239 361.398C282.017 363.3 278.155 368.355 280.98 370.386C283.605 372.288 288.589 367.808 290.358 366.158C292.808 363.816 294.382 360.706 294.819 357.346ZM104.533 168.363V168.191C104.794 164.705 101.775 158.095 100.082 155.089C98.6311 152.516 94.2653 148.208 91.2787 147.566C85.8334 146.401 91.7543 153.368 92.8766 154.923C95.5256 158.609 97.2899 162.594 99.1304 166.717C100.148 168.976 104.005 174.426 104.533 168.363ZM184.624 272.313C184.614 271.746 184.528 271.183 184.367 270.639C183.587 268.005 179.612 263.586 177.02 266.792C174.642 269.736 181.97 272.347 178.118 275.989C176.088 277.892 169.51 274.762 170.737 279.271C171.65 282.628 176.235 282.695 178.679 281.363C181.771 279.675 184.714 275.989 184.624 272.313ZM71.9134 401.745C71.827 402.689 71.9355 403.641 72.232 404.542C72.855 406.239 76.2887 409.954 78.0483 410.206C84.8727 411.185 81.9527 394.226 74.5148 397.08C72.8883 397.703 72.056 399.767 71.9134 401.745ZM182.503 379.545C184.691 379.374 188.743 375.641 189.099 373.506C189.537 370.904 185.271 366.129 182.441 366.881C180.258 367.461 178.08 372.516 178.042 374.585C178.004 376.654 180.101 379.712 182.465 379.55L182.503 379.545ZM167.551 396.462C167.577 396.682 167.632 396.897 167.713 397.104C169.101 400.675 171.622 396.595 172.759 395.073C174.247 393.075 178.047 389.951 177.386 387.098C176.853 384.8 175.151 385.038 173.548 386.08C171.365 387.502 167.142 393.242 167.551 396.462ZM185.623 258.655C189.751 257.361 188.253 251.203 183.721 252.277C182.213 252.634 177.538 253.742 177.538 255.773C177.538 258.56 183.602 259.197 185.433 258.712L185.623 258.655ZM148.005 423.117C149.432 423.16 150.778 422.471 150.473 420.935C149.998 418.647 144.291 417.658 144.985 421.177C145.204 422.404 146.635 423.079 148.005 423.117ZM162.52 407.756C162.496 406.682 162.22 405.854 161.787 406.049C160.46 406.682 157.136 409.72 159.162 411.047C161.659 412.698 162.534 409.792 162.496 407.756H162.52Z" fill="black"/>
<path d="M254.533 326.281C254.757 328.659 254.091 331.108 252.864 333.89C251.837 336.216 249.63 338.08 248.108 340.073C246.387 342.298 244.09 344.7 243.619 347.568C243.143 350.345 243.957 353.065 243.277 355.9C241.912 361.569 238.098 366.467 233.242 369.634C230.322 371.537 220.73 375.474 219.384 369.801C218.219 364.888 226.874 364.608 229.466 362.62C233.974 359.172 233.451 354.383 234.317 349.351C235.444 342.803 239.41 339.236 242.982 334.019C246.239 329.263 245.726 323.861 240.956 320.379C239.196 319.095 235.677 317.35 236.747 314.439C237.784 311.634 241.056 313.132 242.929 313.964C246.392 315.514 249.73 317.426 252.075 320.479C253.437 322.136 254.29 324.151 254.533 326.281Z" fill="black"/>
<path d="M130.376 374.019C133.481 374.086 134.874 374.97 134.832 376.773C134.779 379.27 132.53 381.277 129.886 381.186C127.346 381.101 126.233 379.983 126.267 377.543C126.3 374.79 127.289 373.948 130.376 374.019Z" fill="black"/>
<path d="M141.861 390.812C139.92 390.869 138.622 389.413 138.508 387.05C138.408 384.995 140.039 383.526 142.55 383.407C144.533 383.317 146.098 384.429 146.16 385.975C146.25 388.272 144.053 390.745 141.861 390.812Z" fill="black"/>
<path d="M135.769 358.202C137.894 358.202 138.998 359.153 139.007 361.055C139.007 363.319 137.01 364.931 134.213 364.902C132.268 364.902 131.089 363.69 131.132 361.783C131.184 359.481 132.815 358.216 135.769 358.202Z" fill="black"/>
<path d="M150.749 346.912C152.471 346.964 153.916 347.311 154.554 348.971C155.029 350.207 154.273 351.653 152.613 352.661C152.006 353.031 151.345 353.304 150.654 353.47C148.633 353.945 147.225 353.132 146.807 351.344C146.331 349.251 147.206 347.687 149.227 347.159C149.73 347.048 150.238 346.965 150.749 346.912Z" fill="black"/>
<path d="M163.257 364.327C162.379 364.322 161.536 363.987 160.894 363.389C160.253 362.791 159.86 361.973 159.794 361.098C159.695 359.11 161.564 357.231 163.732 357.141C165.601 357.06 167.037 358.278 167.133 360.023C167.256 362.187 165.382 364.265 163.257 364.327Z" fill="black"/>
<path d="M151.091 377.491C149.318 377.491 148.053 376.136 148.038 374.276C148.038 372.217 149.332 371.38 152.532 371.423C154.535 371.423 155.324 372.022 155.324 373.487C155.324 375.413 153.103 377.52 151.091 377.491Z" fill="black"/>
<path d="M288.08 433.613C287.938 437.418 286.801 441.313 285.255 444.908C281.898 452.727 274.075 454.391 266.014 452.655C258.404 451.019 252.108 444.599 251.404 436.543C250.733 428.838 256.73 421.201 262.789 417.439C269.309 413.392 278.131 416.012 283.32 421.044C287.001 424.63 288.256 429.052 288.08 433.613Z" fill="black"/>
<path d="M299.261 411.78C299.408 404.77 303.722 397.066 309.809 393.832C315.759 390.674 324.552 391.649 329.279 396.633C334.881 402.578 332.608 412.859 327.886 418.633C324.381 422.913 313.885 426.313 308.53 424.734C301.801 422.751 299.142 417.496 299.261 411.78Z" fill="black"/>
<path d="M351.869 390.783C346.509 390.688 341.692 387.497 339.861 380.121C338.382 374.186 343.822 366.386 348.597 363.29C352.877 360.527 360.248 358.858 364.538 362.429C369.979 366.962 371.572 377.129 367.254 382.679C363.268 387.806 357.29 390.883 351.869 390.783Z" fill="black"/>
<path d="M260.378 132.162C260.407 133.013 260.411 133.817 260.454 134.487C260.661 137.308 261.351 140.071 262.494 142.658C263.709 145.784 264.749 148.975 265.609 152.217C266.328 154.747 268.938 158.1 268.211 160.848C267.464 163.702 264.649 163.16 262.88 161.405C260.835 159.278 259.141 156.84 257.862 154.181C255.035 148.721 253.344 142.745 252.893 136.613C252.736 134.335 254.02 120.582 258.918 126.293C260.098 127.672 260.307 130.06 260.378 132.162Z" fill="black"/>
</g>
<defs>
<filter id="filter0_d" x="0.557987" y="0.658875" width="442.884" height="535.417" filterUnits="userSpaceOnUse" color-interpolation-filters="sRGB">
<feFlood flood-opacity="0" result="BackgroundImageFix"/>
<feColorMatrix in="SourceAlpha" type="matrix" values="0 0 0 0 0 0 0 0 0 0 0 0 0 0 0 0 0 0 127 0"/>
<feOffset dy="5.39227"/>
<feGaussianBlur stdDeviation="20.221"/>
<feColorMatrix type="matrix" values="0 0 0 0 0.691667 0 0 0 0 0.679217 0 0 0 0 0.613854 0 0 0 0.7 0"/>
<feBlend mode="normal" in2="BackgroundImageFix" result="effect1_dropShadow"/>
<feBlend mode="normal" in="SourceGraphic" in2="effect1_dropShadow" result="shape"/>
</filter>
</defs>
</svg>
