<svg width="533" height="628" viewBox="0 0 533 628" fill="none" xmlns="http://www.w3.org/2000/svg">
<g filter="url(#filter0_d)">
<path d="M271.518 124.457C279.012 124.637 286.468 125.578 293.772 127.264C307.5 130.439 319.492 138.057 332.667 142.716C345.473 147.26 351.626 131.297 358.205 122.531C367.431 110.238 376.805 98.0695 386.588 86.2078C391.261 80.5269 396.019 74.9425 400.754 69.3241C402.308 67.4778 404.841 65.5634 405.308 63.0751C405.877 60.2347 403.6 58.644 403.6 56.116C403.668 50.6169 406.941 49.9579 411.568 49.0774C416.861 48.0719 418.495 47.18 422.98 44.135C432.854 37.4315 441.192 48.1628 449.422 53.6732C458.477 59.7177 472.569 66.4155 478.056 76.2832C481.129 81.8051 477.054 84.9693 478.056 90.548C478.87 95.1779 484.231 97.882 483.992 102.836C483.736 108.255 479.098 109.085 474.971 110.67C469.194 112.914 466.872 115.351 463.344 120.441C454.915 132.598 446.269 144.619 437.163 156.293C427.977 168.087 418.825 180.227 408.797 191.321C405.296 195.196 400.402 198.826 400.032 204.467C399.639 210.534 404.642 216.215 407.226 221.334C419.878 246.409 418.876 275.757 415.262 302.866C411.756 329.157 400.396 353.579 383.065 373.593C373.39 384.79 363.293 396.169 351.853 405.628C341.415 414.257 330.852 421.847 321.592 431.828C304.403 450.342 287.443 475.366 263.971 486.45C252.099 492.063 237.597 492.358 224.728 493.579C211.701 494.824 194.518 492 182.298 496.63C172.771 500.237 167.501 510.651 161.103 517.922C151.701 528.631 141.217 538.618 129.624 546.934C118.674 554.791 106.949 560.569 94.3652 565.323C82.7831 569.686 69.2715 576.032 56.8015 571.357C44.3314 566.681 49.0497 557.666 55.5095 549.695C64.8151 538.22 73.6767 526.568 81.8781 514.298C98.3834 489.546 113.295 462.687 132.811 440.145C143.272 428.067 140.58 416.331 139.954 401.231C139.385 387.756 139.954 373.962 138.713 360.573C137.575 348.694 130.933 343.734 124.308 334.651C116.681 324.192 115.936 311.694 115.623 299.224C115.242 284.034 118.884 274.064 123.921 260.123C128.554 247.301 129.971 233.775 135.207 221.038C155.81 170.91 196.203 136.552 249.674 126.23C256.871 124.859 264.194 124.264 271.518 124.457Z" fill="white"/>
<path d="M271.518 124.457C279.012 124.637 286.468 125.578 293.772 127.264C307.5 130.439 319.492 138.057 332.667 142.716C345.473 147.26 351.626 131.297 358.205 122.531C367.431 110.238 376.805 98.0695 386.588 86.2078C391.261 80.5269 396.019 74.9425 400.754 69.3241C402.308 67.4778 404.841 65.5634 405.308 63.0751C405.877 60.2347 403.6 58.644 403.6 56.116C403.668 50.6169 406.941 49.9579 411.568 49.0774C416.861 48.0719 418.495 47.18 422.98 44.135C432.854 37.4315 441.192 48.1628 449.422 53.6732C458.477 59.7177 472.569 66.4155 478.056 76.2832C481.129 81.8051 477.054 84.9693 478.056 90.548C478.87 95.1779 484.231 97.882 483.992 102.836C483.736 108.255 479.098 109.085 474.971 110.67C469.194 112.914 466.872 115.351 463.344 120.441C454.914 132.598 446.269 144.619 437.163 156.293C427.977 168.087 418.825 180.227 408.796 191.321C405.296 195.196 400.402 198.826 400.032 204.467C399.639 210.534 404.642 216.215 407.226 221.334C419.878 246.409 418.876 275.757 415.262 302.866C411.756 329.157 400.396 353.579 383.065 373.593C373.39 384.79 363.293 396.169 351.853 405.628C341.415 414.257 330.852 421.847 321.592 431.828C304.403 450.342 287.443 475.366 263.971 486.45C252.099 492.063 237.597 492.358 224.728 493.579C211.701 494.824 194.518 492 182.299 496.63C172.771 500.237 167.501 510.651 161.103 517.922C151.701 528.631 141.217 538.618 129.624 546.934C118.673 554.791 106.949 560.569 94.3652 565.323C82.783 569.686 69.2715 576.032 56.8015 571.357C44.3314 566.681 49.0497 557.666 55.5095 549.695C64.8151 538.22 73.6767 526.568 81.8781 514.298C98.3834 489.546 113.295 462.687 132.811 440.145C143.272 428.067 140.58 416.331 139.954 401.231C139.385 387.756 139.954 373.962 138.713 360.573C137.575 348.694 130.933 343.734 124.308 334.651C116.681 324.192 115.936 311.694 115.623 299.224C115.242 284.034 118.884 274.064 123.921 260.123C128.554 247.301 129.971 233.775 135.207 221.038C155.81 170.91 196.203 136.552 249.674 126.23C256.871 124.859 264.194 124.264 271.518 124.457ZM359.019 316.199C354.676 315.926 350.089 316.455 346.037 315.216C337.704 312.671 329.224 310.348 321.996 304.883C315.507 299.986 309.827 294.657 306.868 286.92C304.739 281.375 303.015 275.654 300.579 270.246C297.063 262.346 291.489 255.53 284.438 250.511C278.502 246.267 272.264 242.557 264.597 242.069C261.894 241.899 260.107 240.109 259.902 237.212C259.697 234.314 261.29 231.775 264.205 231.389C266.834 231.042 270.124 230.781 272.173 232.025C278.382 235.78 282.463 234.343 287.01 229.009C291.427 223.833 292.656 218.618 291.216 212.29C290.123 207.518 289.19 202.706 288.371 197.877C288.161 196.281 288.199 194.662 288.484 193.077C288.98 189.697 290.761 188.384 294.068 189.282C295.775 189.748 297.42 190.907 298.866 192.043C301.267 193.94 303.356 194.276 305.223 192.526C306.709 191.2 308.063 189.733 309.264 188.146C316.048 178.572 322.776 168.963 329.446 159.321C331.444 156.446 331.182 154.06 328.53 151.868C326.435 150.129 324.244 148.34 321.802 147.215C315.445 144.301 309.082 141.29 302.423 139.171C295.732 137.123 288.893 135.59 281.968 134.586C276.845 133.791 271.564 133.927 266.356 133.853C257.306 133.723 248.359 134.422 239.982 138.273C238.677 138.821 237.478 139.59 236.436 140.546C232.862 144.107 232.389 149.067 230.858 153.549C230.01 156.02 229.674 158.662 228.741 161.11C227.523 164.286 225.804 167.269 224.58 170.438C223.954 172.069 223.442 174.029 223.732 175.671C225.212 183.561 226.92 191.418 228.701 199.246C230.164 205.683 233.22 210.71 240.243 212.631C243.658 213.562 246.8 215.698 247.437 219.601C247.963 223.148 248.213 226.73 248.183 230.315C248.183 232.883 246.419 234.207 243.84 234.087C240.517 233.94 238.877 232.105 238.838 228.486C238.764 222.271 235.827 217.936 229.76 216.789C224.193 215.732 222.463 212.182 221.462 207.404C220.266 201.695 218.815 196.042 217.415 190.361C217.132 189.359 216.739 188.391 216.242 187.475C215.104 185.203 213.243 184.152 210.659 184.504C205.742 185.186 201.945 188.055 198.434 191.174C197.142 192.31 196.356 194.383 195.975 196.167C194.268 204.086 192.97 212.074 191.206 219.982C190.807 221.76 189.544 223.896 188.041 224.771C183.522 227.415 178.396 228.852 173.158 228.94C171.177 228.98 169.231 228.435 168.673 226.225C168.115 224.015 168.941 221.97 171.103 221.021C173.336 219.988 175.684 219.225 178.098 218.749C180.722 218.294 182.6 217.238 183.277 214.63C185.338 206.677 187.409 198.763 189.31 190.77C190.289 186.64 191.809 182.953 195.867 181.05C199.282 179.448 202.981 178.369 206.299 176.591C209.06 175.108 212.133 173.432 213.869 170.995C218.838 164.03 221.74 155.992 224.176 147.834C224.973 145.164 223.294 143.341 220.511 143.681C219.475 143.807 218.463 144.083 217.506 144.499C205.728 149.737 194.78 156.663 185.008 165.059C172.282 175.972 162.811 189.594 153.705 203.416C148.497 211.324 145.059 220.169 141.781 229.071C138.89 236.916 136.311 244.688 136.294 253.209C136.331 258.666 134.527 263.977 131.172 268.286C127.669 272.808 125.629 278.287 125.321 283.994C124.632 293.595 125.167 303.269 124.752 312.898C124.484 319.386 128.286 323.823 131.468 328.697C135.833 335.406 143.329 337.514 149.76 341.167C151.496 342.155 153.961 341.911 154.729 339.957C154.999 339.096 155.077 338.186 154.957 337.292C154.837 336.398 154.522 335.541 154.035 334.781C152.714 333.077 150.506 331.998 148.514 330.964C145.913 329.617 143.022 328.811 140.5 327.356C136.829 325.232 134.103 321.675 133.722 317.699C132.908 309.251 132.999 300.707 132.879 292.197C132.811 287.147 134.018 282.801 138.224 279.097C143.642 274.331 150.421 272.848 156.596 276.404C160.051 278.393 162.071 277.904 164.183 274.592C165.89 271.95 168.167 270.809 170.312 271.683C173.107 272.82 172.435 275.217 172.02 277.302C170.529 285.073 168.48 292.76 167.467 300.594C165.85 313.035 164.433 325.533 163.807 338.053C163.272 348.705 163.892 359.419 164.16 370.105C164.308 375.86 165.378 376.82 171.12 376.968C174.239 377.041 177.381 376.888 180.489 376.848C189.396 376.746 198.388 377.416 207.187 376.377C220.403 374.849 233.573 373.604 246.891 373.923C252.486 374.053 254.62 372.218 256.424 366.816C256.922 365.108 257.737 363.508 258.826 362.101C265.758 354.017 274.273 348.08 284.017 343.785C294.18 339.313 305.08 336.745 316.173 336.207C329.804 335.514 343.492 335.071 357.112 335.27C367.767 335.412 378.467 335.298 388.984 338.332C394.801 340.036 395.928 337.792 396.981 333.787C398.119 329.504 400.054 325.442 401.306 321.187C402.315 317.767 403.034 314.268 403.458 310.728C403.754 308.257 401.841 307.212 399.474 308.206C398.427 308.643 397.453 309.285 396.378 309.621C384.209 313.427 371.865 316.074 359.019 316.199ZM210.653 433.316C198.292 433.885 185.935 434.532 173.608 435.634C169.487 435.998 168.349 437.202 168.093 441.315C167.854 445.093 169.76 454.154 163.408 454.199C161.297 454.199 159.595 452.098 159.709 448.678C160.045 438.128 158.406 427.755 157.529 417.296C156.226 401.662 156.209 385.926 155.549 370.236C155.385 366.468 155.022 362.711 154.461 358.982C154.097 356.556 151.73 354.625 149.965 355.045C147.575 355.613 147.507 357.709 147.501 359.59C147.501 365.646 147.41 371.707 147.666 377.769C148.474 397.084 149.254 416.342 150.375 435.606C150.842 443.559 151.695 451.552 152.304 459.528C153.215 471.498 159.174 483.274 172.521 484.819C180.343 485.667 188.21 486.046 196.078 485.956C212.014 485.887 227.836 484.007 243.579 481.564C254.307 479.9 264.011 476.196 271.78 468.191C277.614 462.175 283.846 456.546 289.691 450.535C305.195 434.629 319.935 418.12 333.971 400.884C341.37 391.795 348.712 382.387 355.428 372.758C359.412 367.009 363.595 361.22 366.856 355.017C368.643 351.608 367.226 343.183 361.813 346.762C356.401 350.341 350.931 353.761 346.816 359.073C342.832 364.186 338.04 368.446 331.011 369.213C326.64 369.69 323.379 368.077 322.662 363.833C322.229 361.254 322.798 358.471 323.145 355.806C323.589 352.398 322.309 350.051 319.492 349.949C316.492 349.836 313.527 350.262 311.381 352.636C307.71 356.698 303.681 360.544 300.658 365.049C295.394 372.877 290.567 381.024 285.957 389.261C281.347 397.498 277.369 406.077 272.867 414.376C269.093 421.335 265.326 428.351 260.835 434.828C258.507 438.191 254.899 440.946 251.336 443.076C248.769 444.604 243.482 445.349 241.12 443.173C237.17 439.486 244 436.509 245.138 433.402C246.897 428.613 236.783 432.038 234.728 432.192C226.726 432.834 218.667 432.947 210.653 433.316ZM401.25 185.516C401.25 184.198 400.715 182.806 399.371 181.261C395.957 177.284 391.102 174.87 386.981 171.722C381.028 167.178 374.995 162.729 368.933 158.321C366.088 156.236 363.151 154.219 360.345 152.072C358.12 150.368 355.763 147.919 352.895 147.391C348.296 146.539 345.456 151.572 343.31 154.776C340.863 158.44 337.363 161.275 335.035 165.002C331.575 170.535 335.741 173.171 340.072 176.273C352.024 184.84 363.407 194.088 375.12 202.973C377.277 204.603 380.521 208.228 383.504 207.927C386.486 207.626 388.444 204.075 389.975 201.962C392.172 198.923 394.619 196.065 396.964 193.134C399.087 190.469 401.244 188.146 401.25 185.516ZM327.095 179.982C326.737 180.032 326.384 180.117 326.042 180.238C322.189 181.562 320.322 186.169 317.801 189.009C314.898 192.276 309.264 197.485 311.387 202.405C313.054 206.291 319.201 208.841 322.457 211.193C333.555 219.186 344.369 227.514 355.143 235.934C357.3 237.638 360.265 239.995 363.191 238.99C365.564 238.172 366.884 235.496 368.085 233.496C369.992 230.321 371.921 227.157 374.09 224.151C375.712 221.879 377.664 219.419 376.11 216.624C374.722 214.119 371.608 212.778 369.406 211.136C366.56 209 363.811 206.7 361.005 204.507C355.382 200.11 349.713 195.775 344.056 191.441C341.426 189.424 338.734 187.464 336.173 185.351C333.612 183.238 330.8 179.465 327.095 179.982ZM423.589 158.668C423.276 156.503 421.312 154.731 418.768 152.754C416.463 150.97 414.021 149.345 411.654 147.641C406.85 144.193 402.371 140.352 397.641 136.819C392.82 133.212 387.806 129.883 382.758 126.593C380.294 124.997 377.841 123.384 375.359 121.821C372.707 120.151 371.267 119.964 369.098 122.355C367.055 124.588 365.149 126.98 363.219 129.309C361.603 131.269 359.099 133.501 358.831 136.166C358.319 141.312 365.962 144.613 369.44 147.067C379.622 154.265 389.741 161.463 399.502 169.223C403.39 172.313 408.262 178.091 412.991 173.438C416.012 170.391 418.872 167.19 421.562 163.849C423.236 161.821 423.799 160.15 423.589 158.668ZM393.003 96.138C391.6 96.0479 390.211 96.4609 389.087 97.3026C387.345 98.5864 385.518 99.9783 384.323 101.734C379.201 109.238 376.281 109.999 386.161 117.243C391.352 121.049 396.839 124.452 402.007 128.286C410.06 134.257 417.943 140.472 425.911 146.528C429.087 148.936 432.701 148.647 434.738 145.931C437.349 142.451 439.933 138.951 442.49 135.433C444.323 132.91 444.01 131.422 441.431 129.508C434.744 124.537 428.142 119.464 421.386 114.59C416.723 111.215 412.029 107.884 407.305 104.597C403.731 102.086 398.057 96.3822 393.003 96.138ZM450.259 120.952C454.812 120.327 457.089 114.942 458.984 111.374C461.363 106.829 463.537 103.245 458.415 99.6942C457.174 98.8364 455.899 98.024 454.681 97.1264C450.037 93.7179 445.37 90.3094 440.794 86.7986C433.15 80.9188 425.529 75.005 417.994 68.9833C415.825 67.2506 413.97 67.1086 412.137 69.2446C408.808 73.1076 405.507 76.999 402.2 80.8791C399.605 83.9354 400.054 86.56 403.424 88.9687C415.334 97.509 427.229 106.068 439.109 114.646C441.574 116.413 444.004 118.231 446.508 119.918C447.584 120.722 448.923 121.091 450.259 120.952ZM355.268 256.896C358.501 256.993 362.974 256.368 362.667 253.249C362.479 251.215 358.347 248.926 356.913 247.75C354.636 245.887 352.347 244.036 350.043 242.2C340.596 234.667 330.96 227.344 321.279 220.107C316.458 216.505 311.569 212.988 306.663 209.5C305.149 208.427 301.973 205.132 300.01 205.183C297.426 205.251 297.875 208.995 298.126 210.733C298.928 216.312 302.44 219.385 306.521 222.89C310.954 226.696 315.581 230.275 320.243 233.786C325.616 237.837 331.057 241.791 336.475 245.779C341.506 249.477 346.361 255.436 352.77 256.657C353.595 256.808 354.43 256.896 355.268 256.919V256.896ZM311.506 276.688C311.273 281.233 312.889 286.67 316.56 288.584C321.421 291.112 326.486 281.074 328.791 278.16C331.461 274.78 334.158 271.434 336.788 268.025C340.043 263.815 341.62 260.68 337.044 256.72C332.975 253.203 328.08 253.351 324.238 257.135C319.918 261.384 314.984 266.872 312.451 272.399C311.872 273.766 311.552 275.228 311.506 276.711V276.688ZM64.4906 562.358C64.6785 563.466 67.1998 564 69.0438 563.494C75.4012 561.79 81.8098 560.143 87.9794 557.859C95.33 555.167 102.532 552.087 109.556 548.633C128.77 539.1 143.016 523.194 157.569 507.924C159.897 505.481 166.96 500.612 165.742 496.471C164.661 492.812 153.534 506.191 152.936 506.884C146.795 514.025 140.489 521.086 133.016 526.881C123.38 534.34 112.794 540.441 102.31 546.611C97.545 549.319 92.5767 551.655 87.4501 553.598C82.5632 555.535 77.5485 557.133 72.4416 558.381C70.2959 558.898 68.025 559.341 66.0956 560.461C64.8321 561.171 64.4053 561.824 64.4906 562.358ZM429.445 51.3213C427.829 51.4293 426.326 52.2132 426.326 53.9175C426.326 57.0079 432.154 59.2178 434.232 60.6948C438.755 63.9178 443.285 67.137 447.823 70.3524C452.809 73.8916 457.783 77.4535 462.763 80.9927C464.004 81.8732 466.65 84.566 468.403 83.9524C471.869 82.7424 467.379 78.6351 466.127 77.6694C458.375 71.6022 450.61 65.5785 442.832 59.5984C439.462 57.0136 436.002 54.514 432.587 52.0315C431.645 51.4591 430.542 51.2097 429.445 51.3213ZM180.665 416.654C180.665 415.052 181.018 413.337 180.546 411.888C180.198 410.82 178.867 409.485 177.825 409.343C175.423 409.019 172.93 409.292 170.477 409.423C168.582 409.525 167.148 410.428 166.954 412.445C166.619 415.238 166.471 418.051 166.51 420.864C166.607 423.358 168.246 424.886 170.813 424.841C178.901 424.63 180.523 426.198 180.665 416.654ZM220.295 423.403C222.731 423.449 225.417 422.835 227.022 421.392C234.723 414.53 222.685 405.486 215.406 409.201C212.873 410.491 213.402 413.251 213.636 415.666C213.926 418.717 214.028 422.017 217.46 423.006C218.384 423.261 219.337 423.395 220.295 423.403ZM196.829 409.423C189.936 409.724 189.515 410.053 189.749 415.814C189.982 421.421 188.514 423.665 197.665 423.716C203.989 423.755 204.495 423.636 204.814 417.376C205.15 410.758 203.511 409.127 196.812 409.423H196.829ZM242.156 397.64C248.929 397.64 250.585 396.118 250.602 389.772C250.602 385 249.116 383.336 244.797 383.319C237.728 383.285 236.305 384.745 236.316 392.022C236.305 396.328 237.659 397.612 242.139 397.64H242.156ZM268.752 383.131C260.46 382.853 259.469 383.859 259.845 391.886C259.879 392.539 259.942 393.198 260.027 393.851C260.289 395.817 261.382 396.839 263.408 396.942C268.479 397.192 271.171 394.806 273.277 390.346C275.474 385.688 274.517 382.529 268.724 383.126C268.632 383.137 268.536 383.131 268.735 383.131H268.752ZM219.555 398.339C220.62 398.328 221.681 398.204 222.719 397.97C225.713 397.214 227.842 395.129 227.608 391.891C227.341 388.341 224.387 386.051 220.995 385.733C217.836 385.438 213.818 385.233 212.845 388.869C211.325 394.487 213.55 398.475 219.538 398.339H219.555ZM196.891 386.818C190.301 386.159 188.673 389.449 188.508 394.039C188.4 396.936 190.38 398.731 193.75 399.299C198.872 400.163 202.025 399.146 203.146 396.266C204.888 391.766 201.598 386.818 196.891 386.818ZM250.83 414.035C250.482 408.15 250.295 407.997 244.404 408.684C243.937 408.735 243.459 408.758 242.987 408.769C239.407 408.843 237.796 409.866 237.432 412.308C236.959 415.45 239.31 420.466 241.581 421.182C247.824 423.119 251.211 420.506 250.83 414.013V414.035ZM171.542 398.748C176.146 399.089 177.597 398.39 178.445 395.805C179.236 393.385 178.28 388.795 176.357 388.42C173.511 387.852 170.238 387.642 167.626 388.585C165.19 389.466 165.799 392.562 166.106 394.948C166.59 398.85 169.43 398.748 171.542 398.748Z" fill="black"/>
<path d="M245.987 327.991C242.516 327.943 239.061 327.514 235.686 326.711C228.336 324.921 223.878 320.933 219.898 314.763C215.585 308.062 211.737 301.383 211.104 293.304C210.529 286.019 212.255 278.088 218.294 273.318C223.528 269.183 230.884 267.591 237.377 266.645C251.354 264.617 266.549 267.211 277.299 276.751C288.353 286.591 288.624 303.626 279.536 314.877C272.14 324.054 258.439 328.218 245.987 327.991Z" fill="black"/>
<path d="M170.142 352.181C170.398 349.67 170.925 347.181 171.181 345.188C172.409 335.752 172.014 326.214 173.631 316.789C174.681 310.687 176.069 303.722 180.041 298.836C183.374 294.749 187.885 294.937 189.424 300.332C190.696 304.773 189.863 309.562 190.679 314.089C192.696 325.255 198.268 335.073 201.495 345.805C202.678 349.732 203.901 354.71 202.051 358.626C199.579 363.804 193.163 363.598 188.346 363.552C183.858 363.512 178.069 364.991 173.903 362.782C170.081 360.761 169.709 356.463 170.142 352.181Z" fill="black"/>
</g>
<defs>
<filter id="filter0_d" x="0.702526" y="0.142189" width="531.595" height="627.595" filterUnits="userSpaceOnUse" color-interpolation-filters="sRGB">
<feFlood flood-opacity="0" result="BackgroundImageFix"/>
<feColorMatrix in="SourceAlpha" type="matrix" values="0 0 0 0 0 0 0 0 0 0 0 0 0 0 0 0 0 0 127 0"/>
<feOffset dy="6.43966"/>
<feGaussianBlur stdDeviation="24.1487"/>
<feColorMatrix type="matrix" values="0 0 0 0 0.690196 0 0 0 0 0.678431 0 0 0 0 0.615686 0 0 0 0.7 0"/>
<feBlend mode="normal" in2="BackgroundImageFix" result="effect1_dropShadow"/>
<feBlend mode="normal" in="SourceGraphic" in2="effect1_dropShadow" result="shape"/>
</filter>
</defs>
</svg>
