<svg width="505" height="549" viewBox="0 0 505 549" fill="none" xmlns="http://www.w3.org/2000/svg">
<g filter="url(#filter0_d)">
<g clip-path="url(#clip0)">
<path fill-rule="evenodd" clip-rule="evenodd" d="M140.762 461.425C141 453.789 141.706 446.201 144.674 439.228C145.494 437.301 147.007 435.145 149.084 435.41C149.699 435.536 150.27 435.824 150.737 436.244C151.204 436.665 151.55 437.203 151.739 437.802C152.101 439.004 152.233 440.265 152.127 441.516C151.94 448.719 150.291 455.777 149.738 462.946C149.503 465.998 148.904 479.173 155.957 475.198C158.769 473.611 158.256 468.71 158.657 465.953C159.345 461.237 159.954 456.494 160.386 451.748C160.739 447.869 160.236 443.5 161.912 439.868C163.55 436.315 169.348 433.009 172.283 437.201C172.993 438.35 173.456 439.634 173.642 440.972C175.049 448.223 174.124 455.501 172.244 462.572C171.068 466.996 168.997 471.144 167.906 475.61C167.522 477.185 166.528 480.156 167.372 481.736C168.891 484.575 172.852 482.895 174.564 480.948C178.172 476.844 179.622 469.078 181.008 463.933C182.822 457.04 183.33 449.868 182.506 442.789C182.186 440.025 178.062 426.564 185.482 430.088C188.239 431.396 189.716 434.503 190.711 437.199C193.625 444.964 194.733 453.291 193.951 461.548C192.757 473.234 190.108 484.448 184.843 494.953C182.49 499.649 176.13 506.669 176.267 512.107C176.36 515.793 180.228 515.489 182.384 513.8C188.667 508.88 192.186 498.427 195.863 491.583C196.678 490.064 197.865 489.512 199.609 490.026C235.29 500.542 272.97 505.787 309.953 497.403C341.805 490.182 371.865 475.346 397.261 454.838C422.392 434.541 442.157 408.728 455.857 379.526C466.265 357.342 474.315 333.32 474.951 308.619C475.264 296.449 474.338 283.438 470.695 271.517C468.862 265.234 466.067 259.273 462.411 253.846C459.043 248.987 451.283 245.335 449.902 239.507C449.641 238.023 449.731 236.499 450.165 235.057C453.701 220.391 455.996 205.065 452.866 190.107C451.025 181.526 447.416 173.423 442.27 166.316C439.615 162.67 436.731 159.197 433.637 155.916C431.344 153.435 426.105 151.006 424.632 148.33C423.798 146.817 424.315 144.947 424.849 143.303C431.314 123.42 433.492 102.335 430.577 81.5983C427.78 61.701 421.76 43.6393 403.341 33.5176C401.121 32.2981 397.808 32.1518 397.253 35.3612C397.025 36.6775 397.443 38.0107 397.855 39.2814C401.213 49.6361 403.431 58.0211 402.398 69.0455C401.919 74.4198 400.485 79.8707 399.019 85.0418C397.501 90.379 394.327 106.014 385.943 100.08C379.891 95.7978 377.621 88.3373 372.84 82.9433C369.544 79.2241 364.964 77.2843 360.807 74.7485C357.466 72.7102 354.755 69.4698 351.935 66.6285C348.265 62.93 343.49 60.67 339.593 57.2563C335.746 53.8871 333.38 49.1572 328.468 47.0705C323.855 45.1087 318.946 43.8628 314.201 42.2015C309.906 40.6995 306.792 37.1806 302.757 35.0641C297.553 32.3353 291.618 32.2852 285.893 32.4388C281.293 32.5626 277.015 32.4951 272.745 30.6009C267.782 28.4005 262.839 28.719 257.678 29.9284C251.842 31.2959 248.24 29.293 242.995 27.2834C237.181 25.0549 230.943 25.8461 225.458 28.5929C216.063 33.297 206.2 26.8805 196.655 32.0995C192.395 34.4287 187.465 35.9566 183.928 39.081C178.195 44.1458 172.677 43.1075 165.978 44.8369C159.25 46.5741 152.983 50.7734 148.526 56.0571C145.447 59.7083 142.794 64.1349 137.509 64.2131C132.466 64.2874 128.733 66.4371 125.48 70.6933C120.171 77.6394 116.82 86.2022 112.898 93.9717C109.754 100.199 106.872 106.553 104.254 113.033C103.073 115.959 102.088 118.95 101.151 121.96C100.45 124.211 100.123 127.864 98.2731 129.488C94.1884 133.072 83.8379 121.911 80.8732 119.521C65.1413 106.836 49.3492 91.1219 41.6163 72.148C40.4839 69.3685 38.8102 67.6589 35.8827 67.7433C26.2112 68.0247 31.2033 101.105 32.0899 105.601C35.2847 121.806 39.6636 138.008 47.0669 152.84C50.6707 160.238 55.2275 167.132 60.6212 173.347C64.5326 177.764 69.0848 181.53 73.56 185.354C76.5274 187.891 83.4548 192.19 83.147 196.683C82.7713 202.125 75.89 207.732 72.6176 211.782C67.9518 217.553 62.9377 223.145 56.9223 227.549C48.1667 233.96 57.6283 240.511 64.1568 243.117C72.6323 246.525 81.768 247.974 90.8816 247.354C95.3868 247.023 99.8448 246.22 104.183 244.959C106.571 244.271 113.292 240.147 114.911 243.375C115.126 243.749 115.259 244.164 115.301 244.593C115.344 245.022 115.295 245.455 115.158 245.864C115.021 246.273 114.799 246.648 114.507 246.964C114.215 247.281 113.859 247.532 113.462 247.701C109.93 249.467 105.946 250.124 102.038 250.361C100.194 250.473 97.5024 250.051 96.1095 251.585C93.8953 254.026 96.2119 257.255 98.8609 257.945C102.314 258.839 108.307 256.144 109.809 261.03C110.187 262.567 110.061 264.185 109.45 265.645C106.868 272.825 100.781 274.67 93.7996 274.75C90.9722 274.782 87.949 275.763 88.1527 279.146C88.4902 284.665 98.3828 280.602 101.124 283.046C103.736 285.374 102.395 291.044 102.322 294.099C102.255 296.889 101.039 298.738 98.0745 298.857C96.4833 298.88 94.8967 299.035 93.331 299.319C91.4498 299.713 90.1289 301.134 90.6566 302.96C91.1589 304.456 92.2157 305.703 93.6095 306.444C94.9281 307.068 96.7289 306.679 98.3232 306.725C101.397 306.812 102.727 308.594 103.382 311.4C104.138 314.633 105.769 318.378 105.229 321.831C104.129 328.854 92.9783 324.877 92.0793 330.587C91.0526 337.108 104.733 333.285 107.797 334.331C109.238 334.823 110.559 335.963 110.821 337.465C111.683 342.417 105.442 344.395 102.08 346.24C100.118 347.318 97.544 348.609 96.5843 350.786C94.7543 354.938 98.1032 355.851 101.233 354.732C104.15 353.69 114.939 345.965 117.337 349.763C119.735 353.561 114.943 359.897 113.399 363.282C110.89 368.782 108.593 375.013 108.856 381.152C109.112 387.117 113.498 391.363 117.247 395.516C121.719 400.468 122.799 406.628 124.938 412.816C127.684 420.758 123.209 426.527 120.381 433.719C117.399 441.303 115.183 449.251 114.496 457.394C113.685 466.986 114.029 476.64 116.282 486.171C117.93 493.145 120.496 505.611 127.102 509.769C129.068 511.007 132.43 510.816 132.972 508.134C133.154 507.234 132.734 506.333 132.326 505.513C129.022 498.86 126.461 492.42 125.043 485.081C122.989 474.452 121.534 463.704 123.574 452.956C125.055 445.147 127.506 437.545 131.863 430.727C132.834 429.208 133.866 427.82 135.892 428.641C137.754 429.394 138.309 431.102 137.786 432.854C135.68 439.911 133.59 447.023 132.623 454.344C131.843 460.246 130.337 469.988 135.285 474.517C136.121 475.281 137.241 475.92 138.341 475.65C140.124 475.212 140.542 472.902 140.581 471.065C140.645 467.867 140.662 464.642 140.762 461.425Z" fill="white"/>
<path fill-rule="evenodd" clip-rule="evenodd" d="M140.762 461.425C141 453.789 141.706 446.201 144.674 439.228C145.494 437.301 147.007 435.145 149.084 435.41C149.699 435.536 150.27 435.824 150.737 436.244C151.204 436.665 151.55 437.203 151.739 437.802C152.101 439.004 152.233 440.265 152.127 441.516C151.94 448.719 150.291 455.777 149.738 462.946C149.503 465.998 148.904 479.173 155.957 475.198C158.769 473.611 158.256 468.71 158.657 465.953C159.345 461.237 159.954 456.494 160.386 451.748C160.739 447.869 160.236 443.5 161.912 439.868C163.55 436.315 169.348 433.009 172.283 437.201C172.993 438.35 173.456 439.634 173.642 440.972C175.049 448.223 174.124 455.501 172.244 462.572C171.068 466.996 168.997 471.144 167.906 475.61C167.522 477.185 166.528 480.156 167.372 481.736C168.891 484.575 172.852 482.895 174.564 480.948C178.172 476.844 179.622 469.078 181.008 463.933C182.822 457.04 183.33 449.868 182.506 442.789C182.186 440.025 178.062 426.564 185.482 430.088C188.239 431.396 189.716 434.503 190.711 437.199C193.625 444.964 194.733 453.291 193.951 461.548C192.757 473.234 190.108 484.448 184.843 494.953C182.49 499.649 176.13 506.669 176.267 512.107C176.36 515.793 180.228 515.489 182.384 513.8C188.667 508.88 192.186 498.427 195.863 491.583C196.678 490.064 197.865 489.512 199.609 490.026C235.29 500.542 272.97 505.787 309.953 497.403C341.805 490.182 371.865 475.346 397.261 454.838C422.392 434.541 442.157 408.728 455.857 379.526C466.265 357.342 474.315 333.32 474.951 308.619C475.264 296.449 474.338 283.438 470.695 271.517C468.862 265.234 466.067 259.273 462.411 253.846C459.043 248.987 451.283 245.335 449.902 239.507C449.641 238.023 449.731 236.499 450.165 235.057C453.701 220.391 455.996 205.065 452.866 190.107C451.025 181.526 447.416 173.423 442.27 166.316C439.615 162.67 436.731 159.197 433.637 155.916C431.344 153.435 426.105 151.006 424.632 148.33C423.798 146.817 424.315 144.947 424.849 143.303C431.314 123.42 433.492 102.335 430.577 81.5983C427.78 61.701 421.76 43.6393 403.341 33.5176C401.121 32.2981 397.808 32.1518 397.253 35.3612C397.025 36.6775 397.443 38.0107 397.855 39.2814C401.213 49.6361 403.431 58.0211 402.398 69.0455C401.919 74.4198 400.485 79.8707 399.019 85.0418C397.501 90.379 394.327 106.014 385.943 100.08C379.891 95.7978 377.621 88.3373 372.84 82.9433C369.544 79.2241 364.964 77.2843 360.807 74.7485C357.466 72.7102 354.755 69.4698 351.935 66.6285C348.265 62.93 343.49 60.67 339.593 57.2563C335.746 53.8871 333.38 49.1572 328.468 47.0705C323.855 45.1087 318.946 43.8628 314.201 42.2015C309.906 40.6995 306.792 37.1806 302.757 35.0641C297.553 32.3353 291.618 32.2852 285.893 32.4388C281.293 32.5626 277.015 32.4951 272.745 30.6009C267.782 28.4005 262.839 28.719 257.678 29.9284C251.842 31.2959 248.24 29.293 242.995 27.2834C237.181 25.0549 230.943 25.8461 225.458 28.5929C216.063 33.297 206.2 26.8805 196.655 32.0995C192.395 34.4287 187.465 35.9566 183.928 39.081C178.195 44.1458 172.677 43.1075 165.978 44.8369C159.25 46.5741 152.983 50.7734 148.526 56.0571C145.447 59.7083 142.794 64.1349 137.509 64.2131C132.466 64.2874 128.733 66.4371 125.48 70.6933C120.171 77.6394 116.82 86.2022 112.898 93.9717C109.754 100.199 106.872 106.553 104.254 113.033C103.073 115.959 102.088 118.95 101.151 121.96C100.45 124.211 100.123 127.864 98.2731 129.488C94.1884 133.072 83.8379 121.911 80.8732 119.521C65.1413 106.836 49.3492 91.1219 41.6163 72.148C40.4839 69.3685 38.8102 67.6589 35.8827 67.7433C26.2112 68.0247 31.2033 101.105 32.0899 105.601C35.2847 121.806 39.6636 138.008 47.0669 152.84C50.6707 160.238 55.2275 167.132 60.6212 173.347C64.5326 177.764 69.0848 181.53 73.56 185.354C76.5274 187.891 83.4548 192.19 83.147 196.683C82.7713 202.125 75.89 207.732 72.6176 211.782C67.9518 217.553 62.9377 223.145 56.9223 227.549C48.1667 233.96 57.6283 240.511 64.1568 243.117C72.6323 246.525 81.768 247.974 90.8816 247.354C95.3868 247.023 99.8448 246.22 104.183 244.959C106.571 244.271 113.292 240.147 114.911 243.375C115.126 243.749 115.259 244.164 115.301 244.593C115.344 245.022 115.295 245.455 115.158 245.864C115.021 246.273 114.799 246.648 114.507 246.964C114.215 247.281 113.859 247.532 113.462 247.701C109.93 249.467 105.946 250.124 102.038 250.361C100.194 250.473 97.5024 250.051 96.1095 251.585C93.8953 254.026 96.2119 257.255 98.8609 257.945C102.314 258.839 108.307 256.144 109.809 261.03C110.187 262.567 110.061 264.185 109.45 265.645C106.868 272.825 100.781 274.67 93.7996 274.75C90.9722 274.782 87.949 275.763 88.1527 279.146C88.4902 284.665 98.3828 280.602 101.124 283.046C103.736 285.374 102.395 291.044 102.322 294.099C102.255 296.889 101.039 298.738 98.0745 298.857C96.4833 298.88 94.8967 299.035 93.331 299.319C91.4498 299.713 90.1289 301.134 90.6566 302.96C91.1589 304.456 92.2157 305.703 93.6095 306.444C94.9281 307.068 96.7289 306.679 98.3232 306.725C101.397 306.812 102.727 308.594 103.382 311.4C104.138 314.633 105.769 318.378 105.229 321.831C104.129 328.854 92.9783 324.877 92.0793 330.587C91.0526 337.108 104.733 333.285 107.797 334.331C109.238 334.823 110.559 335.963 110.821 337.465C111.683 342.417 105.442 344.395 102.08 346.24C100.118 347.318 97.544 348.609 96.5843 350.786C94.7543 354.938 98.1032 355.851 101.233 354.732C104.15 353.69 114.939 345.965 117.337 349.763C119.735 353.561 114.943 359.897 113.399 363.282C110.89 368.782 108.593 375.013 108.856 381.152C109.112 387.117 113.498 391.363 117.247 395.516C121.719 400.468 122.799 406.628 124.938 412.816C127.684 420.758 123.209 426.527 120.381 433.719C117.399 441.303 115.183 449.251 114.496 457.394C113.685 466.986 114.029 476.64 116.282 486.171C117.93 493.145 120.496 505.611 127.102 509.769C129.068 511.007 132.43 510.816 132.972 508.134C133.154 507.234 132.734 506.333 132.326 505.513C129.022 498.86 126.461 492.42 125.043 485.081C122.989 474.452 121.534 463.704 123.574 452.956C125.055 445.147 127.506 437.545 131.863 430.727C132.834 429.208 133.866 427.82 135.892 428.641C137.754 429.394 138.309 431.102 137.786 432.854C135.68 439.911 133.59 447.023 132.623 454.344C131.843 460.246 130.337 469.988 135.285 474.517C136.121 475.281 137.241 475.92 138.341 475.65C140.124 475.212 140.542 472.902 140.581 471.065C140.645 467.867 140.662 464.642 140.762 461.425ZM360.12 201.03C357.065 201.907 354.739 201.01 351.778 199.266C348.887 197.564 346.419 195.121 343.668 193.192C340.896 191.244 337.999 189.48 334.994 187.914C328.672 184.628 321.807 183.274 315.361 180.411C312.08 178.953 309.796 176.649 307.743 173.758C305.57 170.697 303.519 167.552 301.443 164.424C300.068 162.352 296.291 158.639 296.518 155.99C296.827 152.388 301.041 153.042 303.494 153.208C307.306 153.468 311.122 153.768 314.945 153.727C325.853 153.611 336.729 151.442 347.035 147.928C356.97 144.539 367.576 139.931 375.628 133.047C385.541 124.632 393.877 114.52 400.249 103.184C403.424 97.5376 405.932 91.5407 407.722 85.3142C409.619 78.569 409.854 72.0039 409.907 65.037C409.886 62.3303 410.042 59.6251 410.376 56.9389C410.726 54.4527 412.467 52.4527 414.814 54.3959C417.214 56.3829 418.415 59.8957 419.501 62.7072C422.072 69.3697 423.378 76.4756 424.305 83.5331C427.929 111.146 422.759 137.847 406.951 161.107C398.747 173.129 388.476 183.601 376.616 192.034C374.676 193.415 372.699 194.741 370.684 196.011C367.706 197.805 364.579 199.34 361.339 200.6C360.941 200.766 360.534 200.91 360.12 201.03ZM320.654 235.652C320.359 240.231 318.934 245.069 318.074 248.248C316.488 254.244 314.527 260.134 312.203 265.885C309.953 271.361 306.62 275.581 302.752 280.004C298.654 284.69 293.991 287.039 288.355 289.508C282.963 291.872 277.329 293.919 272.086 296.599C266.964 299.215 262.782 303.651 258.605 307.523C254.474 311.35 250.733 316.04 245.875 318.97C240.886 321.98 234.895 323.285 229.204 324.174C224.462 324.916 218.948 326.266 215.516 321.983C211.746 317.28 213.062 312.48 216.068 307.9C222.025 298.827 225.05 286.528 220.509 276.126C219.399 273.584 217.937 271.286 217.716 268.441C217.482 265.429 218.878 262.891 219.812 260.12C221.681 254.582 223.195 248.958 226.507 244.045C232.766 234.763 243.684 229.132 253.353 224.173C264.392 218.51 276.992 218.127 289.072 218.939C298.029 219.542 307.313 220.494 315.602 224.18C319.985 226.125 320.973 230.739 320.654 235.652ZM133.494 368.025C133.55 369.388 133.639 370.74 134.36 371.886C136.305 374.978 140.845 374.404 142.644 371.514C147.88 363.103 136.732 357.991 131.513 354.29C127.679 351.571 129.708 348.212 132.846 346.025C144.283 338.052 155.195 351.318 167.019 347.831C172.184 346.309 177.198 342.566 182.766 343.191C189.642 343.965 194.821 349.607 198.776 354.809C203.243 360.569 206.177 367.369 207.303 374.572C208.45 382.338 207.743 390.712 200.279 395.016C192.77 399.345 185.612 396.066 178.275 393.102C173.223 391.06 168.046 387.793 162.717 386.7C156.956 385.455 151.023 385.217 145.181 385.995C136.713 387.233 121.232 394.568 118.431 381.247C117.528 376.952 121.43 353.514 128.754 359.853C130.146 361.057 131.736 362.174 132.685 363.792C133.42 365.047 133.435 366.542 133.494 368.025ZM394.049 447.216C392.361 447.074 390.991 445.919 389.199 444.495C377.976 435.58 367.136 424.349 358.197 413.157C355.894 410.274 355.062 407.819 357.621 404.78C359.676 402.339 362.372 400.492 364.684 398.312C367.425 395.729 370.071 393.03 372.737 390.369C374.778 388.331 376.512 385.707 378.885 384.042C383.307 380.942 387.414 384.204 391.402 386.346C394.737 388.138 398.174 389.744 401.515 391.527C407.929 394.948 414.181 398.723 420.671 401.99C423.77 403.55 429.436 405.162 429.939 409.276C430.579 414.506 423.195 421.272 420.049 424.777C415.241 430.134 410.309 435.37 405.004 440.242C402.543 442.502 400.03 445.022 397.008 446.527C396.105 447.028 395.08 447.267 394.049 447.216ZM166.963 211.928C171.228 212.024 175.475 212.521 179.647 213.41C185.161 214.615 190.569 216.262 195.82 218.333C205.642 222.116 214.726 229.109 215.435 240.519C215.624 243.573 214.909 246.466 214.162 249.403C213.413 252.349 212.825 255.951 211.272 258.596C208.31 263.642 202.052 258.726 201.986 254.331C201.942 251.438 203.631 247.813 202.301 245.074C200.996 242.388 198.637 241.991 197.056 244.581C195.127 247.741 196.95 254.704 191.901 255.304C189.293 255.614 186.437 254.217 183.978 253.568C181.982 253.04 179.217 252.789 178.001 250.853C176.728 248.827 177.565 245.722 177.821 243.547C178.148 240.767 179.185 237.092 178.426 234.336C177.841 232.209 175.128 231.035 173.484 232.865C171.83 234.707 171.796 238.794 171.331 241.091C170.804 243.684 170.712 247.248 169.274 249.542C168.14 251.353 166.076 251.383 164.137 251.463C160.713 251.604 157.212 251.714 153.786 251.548C152.042 251.463 150.311 251.202 149.586 249.418C148.624 247.049 149.539 243.661 149.893 241.262C150.282 238.628 151.214 235.433 150.561 232.769C150.201 231.299 149.143 230.273 147.523 230.508C145.681 230.776 145.114 232.671 144.732 234.251C143.96 237.448 143.646 240.779 142.974 244.006C142.396 246.779 142.172 250.049 140.199 252.252C138.707 253.918 136.469 254.829 134.325 255.298C129.844 256.278 128.044 251.8 127.518 248.17C126.799 243.195 127.95 238.809 129.176 234.021C132.057 222.77 143.887 216.519 154.25 213.458C158.386 212.311 162.672 211.795 166.962 211.927L166.963 211.928ZM435.048 400.613C433.227 400.711 431.363 399.611 429.557 398.652C426.234 396.887 422.899 395.143 419.571 393.386C412.933 389.881 406.315 386.343 399.668 382.86C396.163 381.023 385.875 377.859 387.493 372.485C388.337 369.684 390.749 367.348 392.324 364.944C394.655 361.381 396.848 357.72 399.112 354.115C401.234 350.733 403.43 347.388 405.459 343.949C406.792 341.691 408.218 339.121 411.013 338.57C414.371 337.908 417.76 340.09 420.765 341.231C424.259 342.558 427.853 343.659 431.397 344.856C438.324 347.199 445.338 349.235 452.301 351.459C454.412 352.134 457.261 352.983 458.126 355.294C459.046 357.752 457.17 360.564 456.195 362.722C453.232 369.285 450.567 375.935 447.251 382.344C445.592 385.548 443.696 388.625 442.04 391.829C440.767 394.292 439.851 397.367 437.808 399.334C437.08 400.09 436.095 400.546 435.048 400.613ZM361.088 236.678C361.121 236.219 361.195 235.765 361.308 235.32C363.028 228.652 370.02 235.531 372.533 237.824C375.683 240.752 379.218 243.235 383.039 245.207C391.774 249.635 401.729 251.393 411.195 253.578C420.517 255.73 429.442 258.261 436.988 264.423C442.249 268.72 446.453 274.075 450.836 279.224C453.711 282.6 458.614 287.524 458.897 292.234C459.32 299.282 448.887 293.177 446.146 292.077C436.927 288.378 426.583 288.599 416.95 286.783C412.112 285.87 407.707 283.822 403.018 282.412C398.734 281.124 394.345 280.081 390.284 278.158C382.173 274.319 375.092 267.072 370.271 259.607C367.748 255.632 365.625 251.416 363.935 247.021C362.722 243.949 360.829 240.161 361.088 236.678ZM166.4 327.099C166.608 323.4 167.376 313.312 162.077 314.994C159.264 315.886 159.332 321.741 159.193 324.027C158.965 327.81 159.519 331.733 158.687 335.46C157.609 340.283 151.735 339.647 148.247 338.114C142.987 335.802 141.534 330.636 142.766 325.33C143.293 323.058 144.421 319.477 142.66 317.458C140.687 315.196 137.801 316.706 136.81 318.993C134.809 323.617 136.21 329.246 134.142 333.85C132.043 338.527 126.389 338.474 124.41 333.845C119.853 323.194 125.668 308.408 135.418 302.864C146.022 296.834 160.67 298.053 172.283 299.519C182.05 300.753 195.554 303.282 201.614 312.002C205.144 317.083 206.962 323.764 207.285 329.891C207.481 333.593 207.405 345.823 201.274 344.83C194.805 343.782 194.509 335.119 194.986 330.286C195.288 327.219 197.422 315.169 190.732 317.729C184.164 320.243 189.001 329.784 186.625 334.513C184.19 339.365 171.574 339.976 167.774 336.817C165.476 334.907 166.319 330.599 166.357 327.989C166.364 327.767 166.379 327.465 166.4 327.099ZM385.866 453.326C385.348 456.821 380.767 459.192 378.025 461.26C375.281 463.405 372.391 465.356 369.378 467.1C363.938 470.132 358.043 472.211 352.589 475.188C347.936 477.728 344.082 479.596 340.655 474.456C337.409 469.585 335.717 463.846 333.355 458.536C330.44 451.983 327.58 445.371 324.508 438.891C323.308 436.359 321.205 433.365 321.791 430.408C322.348 427.594 325.245 426.265 327.48 424.941C330.878 422.926 334.33 420.977 337.675 418.876C342.007 416.155 345.974 413.266 350.811 416.619C354.722 419.331 357.091 423.644 360.374 426.989C365.381 432.092 370.669 436.917 375.866 441.821C379.091 444.86 386.686 447.782 385.866 453.324V453.326ZM161.141 258.308C172.696 257.974 184.214 259.786 195.109 263.651C201.105 265.833 207.324 268.322 210.315 274.328C213.344 280.21 214.219 286.966 212.79 293.426C211.866 297.365 209.011 305.14 203.36 302.461C200.787 301.242 200.691 298 200.84 295.54C201.065 291.85 201.607 288.144 201.961 284.462C202.243 281.561 203.012 278.116 201.941 275.289C201.061 272.966 198.542 271.575 196.531 273.577C194.422 275.677 194.572 279.563 194.311 282.279C194.014 285.368 193.963 288.754 193.126 291.761C191.519 297.536 183.517 295.572 179.478 294.174C176.829 293.258 174.113 292.165 172.824 289.483C171.361 286.43 171.854 282.678 171.954 279.412C172.028 277.016 172.52 273.469 170.509 271.66C168.315 269.685 165.414 271.828 164.549 274.066C163.453 276.899 163.821 280.347 163.767 283.326C163.73 285.376 164.148 288.35 162.325 289.798C159.189 292.292 148.247 292.222 146.762 287.686C145.924 285.13 146.742 281.94 146.949 279.318C147.127 277.063 147.502 273.776 145.278 272.328C144.035 271.518 142.958 271.894 142.015 272.935C136.711 278.802 140.196 288.906 134.239 294.448C130.609 297.824 126.016 297.172 124.645 292.341C123.508 288.337 123.787 283.566 124.542 279.522C125.534 274.211 128 269.151 132.176 265.629C137.239 261.357 144.256 259.877 150.665 259.079C154.141 258.645 157.638 258.387 161.141 258.307V258.308ZM296.147 493.303C293.848 493.571 291.569 493.504 289.775 492.548C287.2 491.177 287.172 488.471 286.803 485.892C286.323 482.541 286.048 479.165 285.697 475.799C284.979 468.905 283.971 462.045 283.063 455.176C282.644 451.999 281.303 447.562 282.051 444.421C282.799 441.279 286.785 440.373 289.42 439.424C292.926 438.228 296.492 437.217 300.104 436.397C305.016 435.194 310.568 431.839 314.445 436.634C317.129 439.954 318.09 444.28 319.826 448.092C322.673 454.342 325.58 460.558 328.631 466.711C330.184 469.844 331.85 472.944 333.287 476.131C334.112 477.96 334.975 479.992 333.716 481.84C331.342 485.329 325.517 485.653 321.816 486.806C315.524 488.766 309.234 490.697 302.768 492.015C300.875 492.401 298.501 493.028 296.147 493.303ZM94.8347 145.595C94.8141 147.039 94.6358 148.476 94.3031 149.881C92.6239 157.445 79.9933 177.197 70.5446 171.361C65.2763 168.107 61.7153 162.47 58.9621 157.083C55.8383 150.972 52.8702 144.72 50.1092 138.437C46.9255 131.053 44.5038 123.363 42.8815 115.487C41.9814 111.31 41.1668 107.115 40.3927 102.914C39.9477 100.501 38.9723 95.6599 40.2358 93.4387C42.5366 89.3931 49.5371 99.6403 51.0431 101.336C53.489 104.094 56.1387 106.67 58.6893 109.328C63.4598 114.299 67.7982 119.546 73.1105 123.974C78.1949 128.213 83.6781 131.923 89.0438 135.787C93.0745 138.689 94.833 141.579 94.8347 145.595ZM457.933 345.596C452.968 345.267 448.017 342.769 443.385 341.123C437.938 339.187 432.501 337.218 427.048 335.299C423.581 334.078 415.128 332.987 413.808 328.854C412.778 325.625 414.4 322.309 415.389 319.287C416.779 314.89 417.733 310.366 418.236 305.781C418.619 302.615 419 298.473 422.145 296.761C424.822 295.304 429.083 296.296 431.892 296.805C435.792 297.588 439.638 298.616 443.409 299.882C446.158 300.65 448.85 301.606 451.468 302.744C454.248 304.069 456.357 306.514 459.132 307.73C462.964 309.41 469.346 306.059 470.053 311.957C470.578 316.341 469.478 320.748 468.381 324.96C467.119 329.803 466.508 334.843 465.122 339.644C464.092 343.213 461.946 345.861 457.933 345.596ZM240.813 478.452C240.872 476.876 240.993 475.372 241.098 474.053C241.581 468.05 242.812 462.138 243.426 456.15C243.867 451.849 244.18 446.875 249.019 445.359C252.139 444.381 255.62 444.887 258.835 444.605C262.721 444.264 267.944 442.504 271.305 445.376C273.854 447.554 274.052 451.462 274.28 454.556C274.721 460.568 275.736 466.515 276.558 472.483C277.002 475.713 277.377 478.951 277.814 482.181C278.142 484.608 279.046 487.246 278.829 489.707C278.408 494.478 273.628 494.874 269.779 494.685C264.308 494.415 258.888 494.253 253.409 494.165C249.846 494.109 245.369 493.744 243.114 490.56C240.932 487.473 240.652 482.701 240.813 478.452ZM161.033 428.616C157.375 428.803 153.728 428.065 150.431 426.469C141.818 422.403 135.23 414.257 131.731 405.526C130.368 402.124 129.712 398.538 133.354 396.456C137.832 393.896 144.447 393.065 149.491 392.404C155.901 391.565 160.465 392.935 166.209 395.653C171.731 398.266 177.558 401.403 183.508 402.862C185.697 403.398 188.452 403.927 190.09 405.616C192.244 407.836 191.049 410.554 190.015 413.018C187.866 418.136 183.377 420.908 178.525 423.109C172.635 425.78 166.959 428.322 161.033 428.616ZM232.932 482.385C232.804 485.306 233.382 490.286 229.291 490.433C225.396 490.574 221.641 488.754 218.097 487.37C215.021 486.167 211.858 485.212 208.712 484.218C206.443 483.499 203.373 483.205 201.718 481.283C198.894 478.007 201.38 470.205 201.661 466.347C202.206 459.642 202.164 452.902 201.537 446.204C201.154 442.474 200.784 437.006 206.292 438.55C212.48 440.285 218.624 442.276 225.025 443.085C229.083 443.598 235.279 443.554 235.663 448.965C236.102 455.14 234.892 461.571 234.25 467.701C233.744 472.541 233.205 477.377 232.942 482.235C232.932 482.285 232.932 482.335 232.932 482.385ZM460.062 269.367C459.767 274.776 454.769 271.141 452.594 268.273C450.364 265.389 447.822 262.76 445.013 260.435C438.736 255.151 431.535 251.075 423.775 248.414C414.705 245.298 405.082 244.119 395.89 241.386C386.698 238.652 377.536 233.982 372.381 225.893C371.776 224.943 371.212 223.857 371.381 222.742C372.031 218.48 383.266 222.629 385.801 223.13C391.638 224.287 397.484 225.409 403.281 226.757C414.568 229.38 425.8 232.903 435.696 239.076C441.447 242.664 446.419 247.349 450.807 252.488C454.606 256.939 459.891 262.273 460.071 268.505C460.08 268.815 460.077 269.103 460.062 269.367ZM275.401 375.417C274.352 375.472 273.307 375.241 272.379 374.747C269.076 372.967 268.065 367.006 266.823 363.822C263.335 354.889 259.601 346.054 256.308 337.046C254.683 332.6 250.531 321.303 258.68 319.914C263.322 319.126 266.305 324.126 268.416 327.358C274.007 336.055 280.041 344.459 286.493 352.538C288.154 354.59 289.849 356.613 291.516 358.659C292.733 360.153 294.917 362.048 295.054 364.108C295.291 367.69 290.394 369.458 287.77 370.531C283.89 372.118 279.605 375.261 275.401 375.417ZM276.934 305.147C282.154 305.215 284.706 310.106 287.617 313.762C290.989 317.994 294.456 322.14 297.968 326.255C301.461 330.348 304.964 334.432 308.478 338.507C310.759 341.162 317.463 346.434 315.904 350.349C315.081 352.413 312.364 354.144 310.711 355.526C309.098 356.877 307.121 358.919 305.014 359.449C300.944 360.473 297.561 354.227 295.363 351.613C288.645 343.626 282.502 335.173 276.981 326.317C275.434 323.835 273.915 321.336 272.399 318.835C271.147 316.77 269.091 314.415 268.799 311.95C268.288 307.617 272.954 305.209 276.675 305.145C276.762 305.146 276.848 305.146 276.934 305.147ZM447.947 209.44C446.968 214.408 445.809 221.205 444.242 227.908C443.322 231.844 440.59 232.748 436.951 230.856C436.12 230.424 435.299 229.971 434.459 229.556C429.922 227.317 429.512 226.21 431.099 221.373C431.999 218.627 432.806 215.839 433.457 213.024C434.953 206.558 434.45 200.199 433.321 193.628C431.945 185.615 429.827 178.193 424.663 171.783C422.611 169.236 420.772 166.509 418.966 163.778C417.894 162.156 416.544 160.246 418.42 158.466C420.208 156.769 422.675 156.38 424.616 157.981C428.356 161.066 432.481 164.005 435.273 167.856C443.779 179.589 446.648 193.279 447.947 209.44ZM299.676 295.462C303.978 295.494 306.862 298.878 309.549 301.813C312.567 305.109 315.955 308.056 319.281 311.036C322.769 314.162 326.185 317.407 329.834 320.346C333.087 322.965 334.265 326.213 332.506 330.081C330.928 333.554 327.863 338.185 324.44 340.01C320.609 342.052 317.131 337.236 314.96 334.708C308.529 327.219 302.46 319.422 295.945 312.002C293.964 309.745 286.053 304.526 289.49 300.826C291.991 298.132 295.65 295.483 299.572 295.462H299.676L299.676 295.462ZM235.833 344.253C235.76 342.012 235.759 339.777 235.872 337.557C236.057 333.947 238.235 330.301 242.292 330.766C246.348 331.232 247.828 335.318 248.766 338.737C250.074 343.632 251.754 348.42 253.79 353.059C255.867 357.73 258.276 362.236 260.42 366.871C261.83 369.92 264.122 375.2 261.294 378.136C259.331 380.177 255.803 379.927 253.227 379.893C249.851 379.849 245.857 380.4 242.736 378.863C237.885 376.473 237.365 369.92 237.203 365.188C236.966 358.267 236.058 351.227 235.833 344.252V344.253ZM376.715 103.918C380.042 104.104 383.203 105.186 384.336 108.463C385.703 112.413 382.218 115.354 379.828 117.956C377.269 120.744 375.215 123.883 372.372 126.416C369.625 128.795 366.614 130.849 363.398 132.54C360.701 134.003 357.7 135.587 354.847 133.537C352.09 131.553 351.539 127.337 349.795 124.569C348.445 122.43 346.203 119.919 346.836 117.162C347.441 114.53 350.513 112.773 352.585 111.428C357.898 107.898 363.883 105.504 370.165 104.397C372.325 104.006 374.521 103.846 376.715 103.918ZM312.985 50.4566C318.438 50.344 326.752 51.4087 329.108 56.0408C330.743 59.2564 326.954 60.9897 324.434 61.674C320.136 62.7562 316.092 64.6679 312.527 67.3015C309.208 69.7608 306.213 73.2313 302.214 74.5982C297.837 76.0946 291.846 74.1081 287.965 72.0141C281.705 68.6375 283.404 64.3369 288.503 60.5158C295.012 55.6384 302.498 51.3485 310.746 50.5792C311.409 50.5179 312.163 50.4729 312.984 50.456L312.985 50.4566ZM346.479 300.663C346.223 303.183 344.748 305.701 343.844 307.997C342.814 310.608 341.855 314.224 339.142 315.611C336.288 317.075 333.316 313.336 331.302 311.716C325.308 306.895 320.067 301.574 314.753 296.021C312.6 293.77 308.046 290.569 308.59 286.961C309.05 283.918 312.963 282.086 315.755 282.222C319.547 282.408 323.166 285.261 326.529 286.761C330.263 288.426 334.006 290.07 337.759 291.693C340.849 293.033 344.198 293.936 345.853 297.138C346.408 298.225 346.626 299.452 346.479 300.663ZM230.664 370.141C230.725 373.992 229.673 376.781 226.055 376.139C215.36 374.241 209.285 360.925 211.97 350.841C213.363 345.607 213.344 331.532 221.84 333.367C225.823 334.228 226.906 337.876 227.209 341.478C227.611 346.247 227.508 351.028 228.255 355.772C229.01 360.576 230.585 365.244 230.664 370.143V370.141ZM344.782 259.141C342.483 259.1 340.186 258.978 337.9 258.718C332.725 258.131 326.172 257.722 326.511 251.238C326.732 247 327.458 242.719 328.014 238.513C328.508 234.778 328.326 230.343 333.341 231.501C339.067 232.823 344.001 237.068 348.26 240.899C351.825 244.107 358.436 250.825 356.073 256.353C354.928 259.03 351.888 259.084 349.404 259.13C347.863 259.159 346.323 259.168 344.782 259.141ZM341.551 107.365C340.145 107.365 338.775 106.668 336.904 105.072C334.956 103.411 331.109 100.851 331.049 97.9486C330.989 95.1073 334.635 93.1697 336.626 91.7989C342.904 87.4752 350.67 82.4217 358.648 82.9518C363.884 83.2996 371.488 87.1308 371.115 93.2941C370.935 96.2666 368.271 96.6622 365.862 97.1872C362.32 97.9697 358.868 99.1132 355.559 100.6C352.494 101.979 349.519 103.55 346.651 105.304C344.51 106.606 343.011 107.365 341.551 107.368V107.365ZM218.408 138.035C218.753 136.298 218.978 134.526 219.47 132.831C220.301 129.979 221.004 127.025 222.339 124.409C223.183 122.761 224.895 120.902 226.547 120.501C228.409 120.051 230.755 120.844 232.691 121.605C235.989 122.899 239.104 124.655 242.344 126.107C246.549 127.989 247.688 130.552 245.465 134.617C243.229 138.834 240.675 142.874 237.825 146.702C236.813 148.024 234.169 148.987 232.497 148.715C229.546 148.238 226.799 146.597 223.911 145.608C220.062 144.292 218.457 142.128 218.405 138.037L218.408 138.035ZM276.224 178.169C273.682 178.124 271.167 177.632 268.795 176.715C263.725 174.601 260.727 169.849 264.788 165.261C267.14 162.604 270.105 160.576 272.65 158.119C274.707 156.133 277.008 153.537 280.144 153.729C283.321 153.924 285.278 156.805 287.172 158.994C289.506 161.69 292.09 164.171 294.265 167.003C295.792 168.993 298.402 172.693 296.709 175.269C295.035 177.815 290.919 177.511 288.285 177.576C284.254 177.672 280.27 178.337 276.224 178.169ZM348.007 287.287C344.856 287.884 340.796 285.347 337.116 283.667C333.736 282.124 330.358 280.572 326.968 279.052C324.616 277.996 321.263 277.162 319.953 274.704C318.59 272.149 319.728 268.217 321.655 266.223C326.156 261.567 336.935 265.022 342.177 266.054C345.215 266.652 349.012 266.805 351.837 268.115C356.975 270.499 353.488 278.365 352.321 282.297C351.357 285.538 349.832 286.941 348.005 287.287H348.007ZM188.862 125.927C188.858 124.332 188.918 122.748 189.013 121.256C189.173 118.766 189.9 116.067 192.398 114.997C195.72 113.576 199.892 115.057 203.343 115.117C205.706 115.159 208.098 115.048 210.431 115.495C217.933 116.935 215.027 123.996 212.945 129.093C211.852 131.771 211.544 134.831 210.183 137.384C208.664 140.234 206.036 140.198 203.138 139.791C200.375 139.403 197.536 139.105 194.793 138.634C191.265 138.027 189.83 135.711 189.299 132.267C188.998 130.167 188.852 128.048 188.862 125.927ZM337.123 67.6257C341.451 67.552 347.122 68.1096 348.103 72.4091C348.766 75.318 346.19 77.156 343.976 78.3586C340.737 80.1177 337.414 81.6524 334.279 83.6113C331.206 85.532 328.594 88.3683 325.32 89.9333C321.864 91.585 319.394 89.9947 316.569 87.9535C314.581 86.5174 311.541 85.1623 310.393 82.8797C308.942 79.9956 311.4 77.4278 313.514 75.7175C320.111 70.3832 328.609 67.772 337.123 67.6257ZM86.4194 240.893C83.8317 241.047 81.3356 240.592 79.3098 238.774C75.6819 235.519 84.5416 231.64 86.5184 230.719C88.7878 229.663 91.1185 228.757 93.4379 227.82C96.7328 226.488 99.6823 224.479 102.676 222.583C107.345 219.625 117.057 211.856 122.412 217.264C127.949 222.856 119.532 228.998 115.162 231.509C108.968 235.07 102.078 237.382 95.1621 239.072C92.5356 239.716 89.4195 240.715 86.4194 240.894V240.893ZM74.671 223.404C74.7092 219.428 79.1714 216.533 81.2816 213.592C86.0121 207.001 92.1575 196.966 101.65 197.757C104.8 198.019 108.294 200.541 109.999 203.114C112.957 207.576 107.874 210.853 104.457 212.76C100.268 215.099 95.9238 217.617 91.735 220.126C87.8039 222.481 83.8396 225.577 79.3554 226.776C76.946 227.421 74.6457 226.021 74.671 223.405V223.404ZM279.992 210.184C278.105 210.27 276.214 210.176 274.344 209.903C271.532 209.441 270.27 207.713 269.551 205.087C268.571 201.511 267.755 197.896 266.882 194.293C266.379 192.216 265.363 189.187 267.76 187.88C270.128 186.59 274.254 186.876 276.909 186.623C279.89 186.337 283.332 185.632 286.314 185.996C289.216 186.349 289.646 188.416 289.774 190.965C289.942 194.348 290.052 197.733 290.138 201.119C290.194 203.365 291.008 206.909 289.2 208.683C287.664 210.19 284.868 209.938 282.893 210.05C281.941 210.103 280.97 210.156 279.992 210.184ZM292.741 39.6792C294.722 39.9764 296.51 40.6804 297.588 42.0574C298.678 43.4536 297.583 44.3861 296.336 45.6349C294.119 47.8555 291.213 49.2579 288.532 50.8156C282.842 54.1207 279.76 59.9356 274.355 63.4433C270.907 65.6797 262.435 67.153 260.456 62.0572C258.115 56.0278 266.663 49.4678 270.76 46.6298C274.933 43.7389 279.583 41.2544 284.567 40.1345C287.246 39.5148 290.011 39.3608 292.741 39.6792ZM253.822 162.225C253.74 162.231 253.657 162.236 253.573 162.238C250.998 162.311 248.614 160.389 246.863 158.702C243.901 155.847 244.146 152.529 245.886 149.028C247.441 145.896 249.481 142.962 251.264 139.955C252.516 137.845 253.769 134.455 256.609 134.177C259.971 133.849 263.078 137.716 265.452 139.576C267.304 141.029 271.063 143.041 271.311 145.653C271.57 148.382 268.013 150.751 266.309 152.427C264.025 154.674 261.723 156.902 259.375 159.08C257.884 160.461 256.015 162.052 253.822 162.225ZM220.096 59.7702C217.078 60.0234 214.177 59.5636 212.4 58.0369C209.531 55.5731 212.953 51.1623 214.594 48.9568C218.502 43.8792 223.243 39.501 228.614 36.0084C231.981 33.8395 242.252 30.7556 242.171 38.041C242.14 40.8391 239.588 43.125 237.963 45.1599C232.897 51.4994 229.044 59.0155 220.096 59.769V59.7702ZM204.717 36.8311C205.044 36.8585 205.372 36.9018 205.703 36.9611C214.299 38.5025 207.134 47.2556 204.417 50.9737C202.183 54.0329 200.456 57.5332 197.031 59.4556C194.597 60.8208 191.754 61.3881 189.095 62.1737C186.389 62.9739 180.288 65.3657 177.988 62.6329C174.296 58.2434 182.954 51.0452 185.644 48.6377C190.741 44.076 197.074 36.1885 204.717 36.83V36.8311ZM252.655 192.377C255.558 191.996 258.079 192.925 259.195 197.021C260.004 199.988 260.722 202.99 261.345 206.001C261.945 208.893 261.606 210.976 258.947 212.623C256.748 213.985 253.997 214.745 251.588 215.679C245.794 217.925 244.388 213.878 241.592 209.76C239.762 207.065 236.043 202.5 238.409 199.15C239.967 196.945 243.3 195.83 245.658 194.769C247.901 193.763 250.394 192.673 252.655 192.377ZM183.983 124.902C183.973 127.423 183.594 129.928 182.858 132.339C181.5 136.768 178.935 138.149 174.47 138.624C171.988 138.887 169.069 139.366 167.494 136.925C165.816 134.319 165.552 131.168 164.972 128.202C164.422 125.394 162.733 122.167 163.805 119.314C164.714 116.894 167.771 116.752 169.933 116.471C172.502 116.127 175.091 115.959 177.682 115.97C180.23 115.991 182.464 116.295 183.225 119.024C183.744 120.94 183.999 122.917 183.983 124.901V124.902ZM306.704 212.679C304.277 212.647 301.579 212.078 300.566 210.622C299.626 209.271 299.643 207.163 299.505 205.6C299.197 202.105 299.055 198.596 298.813 195.096C298.669 192.998 297.698 189.552 299.079 187.661C300.405 185.845 303.613 185.973 305.573 186.08C308.624 186.243 312.755 187.179 314.952 189.481C317.168 191.805 315.839 195.321 315.25 198.017C314.463 201.613 313.989 205.262 312.923 208.795C312.448 210.374 311.889 211.75 310.217 212.275C309.072 212.581 307.888 212.717 306.704 212.679ZM158.406 131.836C158.35 133.109 158.243 134.361 158.164 135.532C157.972 138.367 157.38 141.522 154.483 142.743C151.571 143.971 147.694 144.038 144.863 142.546C141.51 140.776 139.948 136.394 138.278 133.223C137.411 131.577 135.758 129.064 136.855 127.172C138.131 124.973 142.382 124.121 144.555 123.315C148.451 121.869 154.344 118.757 157.064 123.673C158.385 126.061 158.528 129.003 158.406 131.836ZM216.557 218.147C216.723 216.932 217.147 215.767 217.8 214.73C219.179 212.549 221.404 211.123 223.346 209.496C225.044 208.078 226.946 205.899 229.416 206.35C231.734 206.774 232.695 209.223 233.711 211.052C234.922 213.229 236.374 215.422 236.799 217.921C237.539 222.264 234.658 226.224 231.111 228.417C227.378 230.724 222.799 230.737 219.677 227.41C218.515 226.186 217.634 224.723 217.095 223.123C216.557 221.523 216.373 219.825 216.557 218.147ZM246.867 61.6706C242.523 62.0566 238.096 60.3341 240.415 55.4977C242.819 50.4864 247.697 46.9737 251.601 43.2094C253.969 40.9274 256.543 38.5233 259.729 37.4693C261.992 36.7203 265.559 36.059 264.782 39.3309C263.813 43.4103 259.643 46.3119 257.566 49.7818C255.04 54.0025 252.845 61.0032 247.181 61.6391C247.077 61.6503 246.972 61.6605 246.867 61.6706ZM320.301 213.859C320.245 211.46 321.28 208.619 321.734 206.597C322.503 203.177 322.128 198.712 324.723 195.919C327.463 192.972 332.467 194.112 335.008 196.769C336.487 198.314 336.021 200.258 335.699 202.147C334.868 207.04 334.496 212.817 331.67 217.091C329.806 219.909 325.586 219.04 322.897 217.941C320.984 217.159 320.344 215.63 320.301 213.859ZM117.431 144.034C117.478 143.02 117.81 142.039 118.388 141.205C119.678 139.307 121.828 137.85 123.522 136.328C125.027 134.977 127 133.152 129.207 133.588C131.533 134.047 132.869 136.614 134.046 138.415C135.204 140.191 136.59 141.912 137.35 143.912C138.966 148.164 135.984 150.821 132.431 152.536C128.983 154.2 125.343 155.416 122.159 152.549C119.858 150.479 117.284 147.222 117.431 144.034ZM339.505 223.591C339.508 222.797 339.637 222.009 339.888 221.255C340.624 218.843 341.23 216.388 342.048 214.002C343.437 209.946 346.206 204.637 350.517 209.337C352.992 212.038 352.142 217.484 352.244 220.844C352.319 223.264 353.828 230.877 350.693 231.813C348.534 232.455 344.828 229.54 343.223 228.43C340.935 226.851 339.554 225.673 339.505 223.591ZM154.529 70.7208C152.837 70.8216 151.293 70.3714 151.053 68.5402C150.686 65.7528 154.291 61.4725 156.052 59.5923C158.359 57.1286 163.062 53.0644 166.718 53.4257C171.402 53.8882 168.194 60.5727 166.749 62.8316C164.76 65.9639 161.845 68.3989 158.409 69.7985C157.168 70.2932 155.86 70.604 154.529 70.7208ZM108.426 161.37C108.464 160.563 108.505 159.759 108.534 158.96C108.613 156.718 107.684 151.858 110.102 150.497C113.871 148.376 117.806 157.526 118.194 159.994C118.633 162.776 117.632 165.734 116.186 168.087C115.173 169.733 112.257 173.724 109.942 171.998C107.465 170.152 108.306 163.941 108.426 161.37ZM134.986 73.7485C136.383 72.6646 137.763 74.2775 138.357 75.4598C139.159 77.0552 137.528 78.398 136.421 79.3046C135.144 80.3502 134.516 80.5195 133.267 79.4171C131.742 78.0665 132.217 77.0462 133.361 75.654C133.832 74.9616 134.377 74.3228 134.986 73.749V73.7485ZM263.521 275.356C264.05 275.328 264.576 275.265 265.097 275.166C272.401 273.786 279.248 271.545 283.71 265.21C285.539 262.54 286.851 259.551 287.578 256.397C288.24 253.684 287.859 249.807 290.043 247.764C293.544 244.487 310.565 242.684 308.289 235.281C306.609 229.829 295.857 234.931 292.826 236.206C289.104 237.775 286.161 237.842 283.008 235.128C277.122 230.063 270.644 227.856 262.914 229.773C256.21 231.436 249.05 234.753 245.253 240.783C243.115 244.173 243.003 248.025 241.438 251.579C239.958 254.935 237.082 255.406 233.886 256.431C230.916 257.382 225.611 258.56 224.066 261.618C222.954 263.818 223.576 267.656 226.266 268.292C229.634 269.088 234.715 266.007 237.897 265.065C241.462 264.008 244.765 263.231 247.642 266.145C251.841 270.396 257.025 275.686 263.521 275.356ZM267.811 238.686C274.67 238.517 280.76 242.069 280.903 251.117C281.005 257.551 276.86 262.895 270.946 265.031C264.957 267.196 258.359 266.157 254.121 261.218C250.729 257.264 247.732 251.201 251.568 246.43C255.286 241.804 261.838 238.834 267.811 238.686ZM184.283 377.094C185.341 377.026 186.361 376.676 187.238 376.081C190.909 373.492 189.047 367.94 191.084 364.432C192.396 362.17 196.237 356.969 190.882 356.899C186.867 356.846 183.936 361.903 181.763 364.681C179.899 367.065 177.713 371.147 178.969 374.248C179.816 376.341 182.103 377.254 184.283 377.094ZM270.489 251.13C270.525 248.969 269.394 247.028 266.751 247.235C262.055 247.603 260.372 256.307 265.912 256.528C268.719 256.64 270.445 253.729 270.489 251.13Z" fill="#181818"/>
</g>
</g>
<defs>
<filter id="filter0_d" x="0" y="0" width="505" height="549" filterUnits="userSpaceOnUse" color-interpolation-filters="sRGB">
<feFlood flood-opacity="0" result="BackgroundImageFix"/>
<feColorMatrix in="SourceAlpha" type="matrix" values="0 0 0 0 0 0 0 0 0 0 0 0 0 0 0 0 0 0 127 0"/>
<feOffset dy="4"/>
<feGaussianBlur stdDeviation="15"/>
<feColorMatrix type="matrix" values="0 0 0 0 0.691667 0 0 0 0 0.679217 0 0 0 0 0.613854 0 0 0 0.7 0"/>
<feBlend mode="normal" in2="BackgroundImageFix" result="effect1_dropShadow"/>
<feBlend mode="normal" in="SourceGraphic" in2="effect1_dropShadow" result="shape"/>
</filter>
<clipPath id="clip0">
<rect width="445" height="489" rx="20" transform="matrix(-1 0 0 1 475 26)" fill="white"/>
</clipPath>
</defs>
</svg>
