<svg width="507" height="581" viewBox="0 0 507 581" fill="none" xmlns="http://www.w3.org/2000/svg">
<g filter="url(#filter0_d)">
<path fill-rule="evenodd" clip-rule="evenodd" d="M475.115 313.521C468.062 321.302 459.54 327.806 453.069 336.106C445.348 346.015 441.016 360.545 448.022 370.972C453.358 378.913 463.798 382.328 470.221 389.092C470.648 389.539 470.943 390.094 471.075 390.697C471.207 391.3 471.171 391.928 470.971 392.512C470.771 393.096 470.414 393.614 469.94 394.009C469.466 394.404 468.892 394.662 468.282 394.753L445.033 398.235C442.381 398.633 439.662 399.052 437.315 400.356C433.671 402.385 431.47 406.227 429.556 409.932C418.922 430.513 412.371 457.557 425.365 475.852C426.85 477.941 424.938 480.819 422.442 480.231C414.514 478.367 406.844 465.831 397.517 467.046C394.134 467.488 391.307 469.746 388.671 471.915C380.962 478.262 373.254 484.609 365.546 490.954C362.671 493.323 359.692 495.823 358.21 499.241C357.02 501.983 356.915 505.051 356.826 508.041C356.578 516.35 356.331 524.66 356.085 532.969C356.068 533.528 355.887 534.069 355.565 534.525C355.243 534.982 354.795 535.334 354.275 535.538C353.754 535.742 353.186 535.788 352.64 535.672C352.093 535.556 351.593 535.282 351.201 534.884C347.922 531.605 346.186 525.961 343.391 521.858C335.311 510 317.767 511.183 303.635 513.695C291.087 515.924 276.649 519.559 271.422 531.182C269.367 535.746 268.814 541.403 266.206 545.394C265.877 545.895 265.427 546.304 264.898 546.584C264.369 546.864 263.777 547.005 263.178 546.996C262.58 546.986 261.993 546.825 261.473 546.527C260.953 546.23 260.517 545.806 260.204 545.296C255.808 538.185 257.615 526.628 250.827 521.124C247.946 518.786 244.103 518.109 240.443 517.511L205.05 511.72C202.215 511.259 199.188 510.817 196.565 511.987C194.412 512.948 192.857 514.856 191.386 516.7C186.886 522.335 182.387 527.971 177.888 533.609C177.48 534.127 176.883 534.461 176.229 534.54C175.574 534.618 174.916 534.433 174.398 534.025C174.154 533.831 173.947 533.594 173.789 533.326C169.542 525.779 178.19 512.382 172.627 504.209C170.932 501.719 168.165 500.211 165.504 498.796C156.95 494.252 148.396 489.706 139.842 485.16C136.747 483.516 133.494 481.827 129.99 481.818C127.456 481.811 125.013 482.686 122.631 483.551C116.891 485.631 111.152 487.712 105.413 489.796C105.129 489.901 104.823 489.935 104.523 489.894C104.222 489.853 103.936 489.738 103.691 489.561C103.445 489.383 103.246 489.148 103.113 488.876C102.979 488.604 102.915 488.303 102.925 488C103.225 482.129 110.116 477.321 111.624 471.893C112.444 468.941 112.069 465.803 111.576 462.778C106.432 431.289 89.1926 398.299 102.723 369.401C104.825 364.911 107.679 359.848 105.62 355.339C104.552 353.002 102.339 351.399 100.071 350.194C88.7518 344.17 75.0267 345.694 62.5497 342.743C50.0727 339.791 37.2469 327.822 41.9536 315.896C46.6196 304.073 63.5298 303.86 75.3863 308.439C87.2429 313.018 99.6013 320.418 111.763 316.726C115.297 296.977 118.83 277.228 122.364 257.481C123.78 249.568 125.173 241.622 125.688 233.589C126.212 225.418 124.416 217.969 124.015 209.954C123.252 194.716 116.102 180.235 113.638 165.12C111.253 150.491 112.553 134.294 121.871 122.77C133.045 108.951 152.681 105.345 170.438 106.037C173.197 106.144 176.104 106.302 178.566 105.051C182.244 103.182 183.769 98.8471 185.316 95.0218C196.351 67.7439 222.733 50.4486 246.894 33.6568C251.009 30.7976 255.289 27.8242 260.24 27.0422C264.335 26.395 268.49 27.3154 272.596 27.903C298.344 31.5885 324.979 22.1677 350.349 27.903C371.557 32.6958 389.931 48.5692 397.753 68.855C400.246 75.3148 401.747 82.2044 405.169 88.2237C408.591 94.243 414.607 99.4587 421.53 99.3416C426.742 99.2536 431.932 96.1905 436.931 97.6714C440.505 98.7301 443.017 101.876 445.084 104.98C454.701 119.538 459.67 136.673 459.334 154.117C459.305 155.533 459.24 156.947 459.14 158.36C458.532 166.763 456.682 175.127 457.276 183.531C458.027 194.164 462.663 204.338 462.587 214.997C462.399 240.657 436.428 258.082 426.682 281.818C425.124 285.607 423.976 289.734 424.647 293.775C426.326 303.866 438.231 308.799 448.461 308.897C456.586 308.977 464.845 307.224 472.849 307.825C473.486 307.874 474.096 308.1 474.611 308.478C475.126 308.856 475.524 309.372 475.761 309.965C475.997 310.559 476.062 311.207 475.948 311.835C475.833 312.464 475.545 313.048 475.115 313.521ZM75.4305 209.97C69.5562 214.215 65.3287 220.56 67.5938 228.154C70.2554 237.08 78.275 244.288 76.685 254.35C76.1419 257.784 74.6798 261.028 72.7848 263.947C71.322 266.201 69.5886 268.292 68.3646 270.688C66.4146 274.507 66.643 278.609 68.6273 282.369C70.0153 285 72.4324 286.433 74.1093 288.788C74.5444 289.352 74.8221 290.021 74.9138 290.727C75.248 294.584 69.8856 294.204 67.6889 293.041C63.0082 290.56 59.8378 284.663 58.825 279.601C58.4554 277.673 58.5808 275.682 59.1894 273.815C60.918 268.413 66.11 264.644 67.7566 259.216C68.1295 257.972 68.3135 256.678 68.3026 255.38C68.2877 251.408 66.6385 247.45 64.8091 243.991C62.9434 240.463 60.7549 237.086 59.3265 233.359C55.1521 222.472 61.4485 211.268 70.9388 205.632C72.4725 204.721 74.4454 203.961 75.9657 204.893C76.5543 205.284 76.9731 205.884 77.1383 206.571C77.3034 207.258 77.2026 207.982 76.8561 208.598C76.4759 209.145 75.9914 209.611 75.4305 209.97ZM49.6876 283.221C50.669 284.436 51.4166 286.014 51.0452 287.532C50.668 289.071 49.1591 290.169 47.5863 290.367C46.0135 290.565 44.4219 289.988 43.1117 289.095C37.8272 285.495 34.1337 278.228 33.9435 271.891C33.9321 271.506 33.9353 271.121 33.9531 270.739C34.1413 266.659 35.9402 262.743 38.2778 259.363C38.7685 258.734 39.1676 258.04 39.4633 257.299C39.7734 256.369 39.7111 255.36 39.6201 254.383C39.0143 247.893 37.3223 241.55 34.6148 235.62C33.4064 232.979 31.9894 230.393 31.3655 227.557C30.5387 223.795 31.1776 219.829 32.516 216.217C34.3242 211.339 37.466 204.265 43.389 203.354C45.049 203.1 47.0167 204.02 47.289 205.675C47.4743 206.804 46.8495 207.906 46.1225 208.788C45.2865 209.803 44.288 210.672 43.4418 211.678C41.4066 214.095 41.4416 217.203 41.4922 220.21C41.5526 223.804 41.6194 227.443 42.5854 230.904C43.1846 233.05 44.1185 235.086 44.9816 237.141C46.6009 240.998 47.9794 244.952 49.1092 248.98C49.4994 250.371 49.8628 251.815 49.6679 253.247C49.4221 255.052 48.3269 256.607 47.371 258.159C45.5104 261.178 44.0568 264.513 43.6654 268.037C43.2819 271.771 44.087 275.53 45.9658 278.778C46.9385 280.472 48.4745 281.718 49.6876 283.221Z" fill="white"/>
<path fill-rule="evenodd" clip-rule="evenodd" d="M475.115 313.521C468.062 321.302 459.54 327.806 453.069 336.106C445.348 346.015 441.016 360.545 448.022 370.972C453.358 378.913 463.798 382.328 470.221 389.092C470.648 389.539 470.943 390.094 471.075 390.697C471.207 391.3 471.171 391.928 470.971 392.512C470.771 393.096 470.414 393.614 469.94 394.009C469.466 394.404 468.892 394.662 468.282 394.753L445.033 398.235C442.381 398.633 439.662 399.052 437.315 400.356C433.671 402.385 431.47 406.227 429.556 409.932C418.922 430.513 412.371 457.557 425.365 475.852C426.85 477.941 424.938 480.819 422.442 480.231C414.514 478.367 406.844 465.831 397.517 467.046C394.134 467.488 391.307 469.746 388.671 471.915C380.962 478.262 373.254 484.609 365.546 490.954C362.671 493.323 359.692 495.823 358.21 499.241C357.02 501.983 356.915 505.051 356.826 508.041C356.578 516.35 356.331 524.66 356.085 532.969C356.068 533.528 355.887 534.069 355.565 534.525C355.243 534.982 354.795 535.334 354.275 535.538C353.754 535.742 353.186 535.788 352.64 535.672C352.093 535.556 351.593 535.282 351.201 534.884C347.922 531.605 346.186 525.961 343.391 521.858C335.311 510 317.767 511.183 303.635 513.695C291.087 515.924 276.649 519.559 271.422 531.182C269.367 535.746 268.814 541.403 266.206 545.394C265.877 545.895 265.427 546.304 264.898 546.584C264.369 546.864 263.777 547.005 263.178 546.996C262.58 546.986 261.993 546.825 261.473 546.527C260.953 546.23 260.517 545.806 260.204 545.296C255.808 538.185 257.615 526.628 250.827 521.124C247.946 518.786 244.103 518.109 240.443 517.511L205.05 511.72C202.215 511.259 199.188 510.817 196.565 511.987C194.412 512.948 192.857 514.856 191.386 516.7C186.886 522.335 182.387 527.971 177.888 533.609C177.48 534.127 176.883 534.461 176.229 534.54C175.574 534.618 174.916 534.433 174.398 534.025C174.154 533.831 173.947 533.594 173.789 533.326C169.542 525.779 178.19 512.382 172.627 504.209C170.932 501.719 168.165 500.211 165.504 498.796C156.95 494.252 148.396 489.706 139.842 485.16C136.747 483.516 133.494 481.827 129.99 481.818C127.456 481.811 125.013 482.686 122.631 483.551C116.891 485.631 111.152 487.712 105.413 489.796C105.129 489.901 104.823 489.935 104.523 489.894C104.222 489.853 103.936 489.738 103.691 489.561C103.445 489.383 103.246 489.148 103.113 488.876C102.979 488.604 102.915 488.303 102.925 488C103.225 482.129 110.116 477.321 111.624 471.893C112.444 468.941 112.069 465.803 111.576 462.778C106.432 431.289 89.1926 398.299 102.723 369.401C104.825 364.911 107.679 359.848 105.62 355.339C104.552 353.002 102.339 351.399 100.071 350.194C88.7518 344.17 75.0267 345.694 62.5497 342.743C50.0727 339.791 37.2469 327.822 41.9536 315.896C46.6196 304.073 63.5298 303.86 75.3863 308.439C87.2429 313.018 99.6013 320.418 111.763 316.726C115.297 296.977 118.83 277.228 122.364 257.481C123.78 249.568 125.173 241.622 125.688 233.589C126.212 225.418 124.416 217.969 124.015 209.954C123.252 194.716 116.102 180.235 113.638 165.12C111.253 150.491 112.553 134.294 121.871 122.77C133.045 108.951 152.681 105.345 170.438 106.037C173.197 106.144 176.104 106.302 178.566 105.051C182.244 103.182 183.769 98.8471 185.316 95.0218C196.351 67.7439 222.733 50.4486 246.894 33.6568C251.009 30.7976 255.289 27.8242 260.24 27.0422C264.335 26.395 268.49 27.3154 272.596 27.903C298.344 31.5885 324.979 22.1677 350.349 27.903C371.557 32.6958 389.931 48.5692 397.753 68.855C400.246 75.3148 401.747 82.2044 405.169 88.2237C408.591 94.243 414.607 99.4587 421.53 99.3416C426.742 99.2536 431.932 96.1905 436.931 97.6714C440.505 98.7301 443.017 101.876 445.084 104.98C454.701 119.538 459.67 136.673 459.334 154.117C459.305 155.533 459.24 156.947 459.14 158.36C458.532 166.763 456.682 175.127 457.276 183.531C458.027 194.164 462.663 204.338 462.587 214.997C462.399 240.657 436.428 258.082 426.682 281.818C425.124 285.607 423.976 289.734 424.647 293.775C426.326 303.866 438.231 308.799 448.461 308.897C456.586 308.977 464.845 307.224 472.849 307.825C473.486 307.874 474.096 308.1 474.611 308.478C475.126 308.856 475.524 309.372 475.761 309.965C475.997 310.559 476.062 311.207 475.948 311.835C475.833 312.464 475.545 313.048 475.115 313.521ZM57.9193 318.307C57.9165 317.073 57.3994 315.763 56.3293 315.146C55.3149 314.561 54.0041 314.716 52.9659 315.254C49.7181 316.946 49.6972 320.479 49.888 323.767C49.8803 324.454 50.051 325.131 50.3834 325.732C51.2627 327.084 53.4044 327.011 54.6662 326.009C55.928 325.007 56.5322 323.414 57.0792 321.897C57.4951 320.743 57.9161 319.563 57.92 318.339V318.307H57.9193ZM391.647 453.187C393.323 454.09 395.209 454.555 396.894 455.439C400.729 457.449 403.467 461.56 407.709 462.435C408.282 462.553 408.93 462.591 409.398 462.241C409.865 461.898 410.005 461.293 410.024 460.695C410.031 460.546 410.027 460.397 410.021 460.25C409.862 456.835 408.533 453.594 407.175 450.456C405.292 446.118 403.315 441.822 401.305 437.541C400.583 436.002 399.797 434.393 398.401 433.426C396.153 431.871 392.938 432.51 390.779 434.186C384.365 439.16 384.05 449.098 391.647 453.187ZM386.174 388.355C388.117 389.032 390.073 387.483 391.498 386.001C399.419 377.781 405.82 367.385 406.38 355.981C406.475 354.07 406.428 352.054 407.344 350.372C408.17 348.855 409.659 347.84 410.908 346.645C414.295 343.388 415.926 338.726 418.82 335.024C420.149 333.326 421.752 331.822 422.84 329.959C423.927 328.095 424.43 325.688 423.396 323.792C422.954 322.978 422.159 322.276 421.234 322.25C419.733 322.209 418.788 323.792 418.108 325.131C414.821 331.591 410.151 337.248 404.431 341.699C402.116 343.499 399.495 345.274 398.529 348.041C398.212 349.025 398.054 350.053 398.061 351.087C398.039 352.251 398.115 353.437 398.074 354.598C397.94 358.408 396.513 362.036 395.104 365.579C393.825 368.791 392.506 372.073 390.235 374.683C388.353 376.846 385.777 378.585 384.588 381.276C383.63 383.445 383.395 387.391 386.174 388.355ZM333.132 496.055C336.309 500.561 340.243 504.399 344.021 508.375C345.34 509.764 346.479 510.07 347.833 509.484C349.404 508.81 349.465 507.424 349.462 506.015C349.462 505.697 349.401 505.382 349.382 505.067C349.144 500.841 348.907 496.617 348.673 492.395C348.771 488.359 348.717 484.362 346.536 480.717C344.227 476.857 338.274 474.758 334.42 477.051C331.463 478.812 329.45 481.668 329.138 485.287C328.776 489.466 330.849 492.814 333.132 496.055ZM335.457 452.51C343.531 449.994 350.225 444.099 355.138 437.214C360.051 430.329 363.371 422.455 366.503 414.6C369.887 406.119 373.13 397.453 374.049 388.371C376.262 366.501 363.269 343.919 343.248 334.85C342.004 334.287 340.682 333.727 339.848 332.643C338.363 330.709 338.993 327.965 339.518 325.583C341.337 317.289 340.745 307.946 335.508 301.265C332.658 297.628 327.195 295.007 323.526 297.809C322.158 298.852 321.325 300.463 319.98 301.535C318.635 302.607 316.288 302.836 315.477 301.322C314.936 300.314 315.363 299.081 315.751 298.001C317.624 292.752 318.288 286.91 316.609 281.595C314.93 276.28 310.628 271.629 305.177 270.462C299.507 269.248 293.201 272.235 290.549 277.392C289.481 279.473 288.911 281.902 287.22 283.519C285.528 285.135 282.062 285.13 281.413 282.883C281.162 282.007 281.423 281.077 281.629 280.189C282.402 276.746 282.396 273.174 281.61 269.734C280.824 266.294 279.279 263.073 277.088 260.308C275.845 258.763 274.077 257.264 272.121 257.58C268.814 258.113 268.486 262.611 267.319 265.75C266.451 268.085 264.746 269.995 263.078 271.845C254.731 281.102 246.172 290.532 235.265 296.568C230.668 299.112 225.704 301.02 221.398 304.031C212.513 310.245 211.216 319.099 214.205 328.966C214.698 330.591 215.601 332.455 217.288 332.639C219.944 332.929 220.83 329.176 222.785 327.354C225.873 324.476 231.106 327.233 233.159 330.922C235.212 334.611 235.737 339.108 238.374 342.405C238.722 342.908 239.21 343.296 239.778 343.522C241.493 344.069 242.847 342.046 243.482 340.364C245.254 335.663 246.715 330.851 247.856 325.958C248.478 323.29 249.036 320.523 250.572 318.256C252.107 315.988 254.924 314.328 257.568 315.047C261.736 316.182 262.47 321.627 262.997 325.913C264.179 335.337 268.238 344.166 274.621 351.198C275.746 352.432 277.002 353.723 277.254 355.377C277.629 357.829 275.711 359.95 274.166 361.89C269.469 367.77 267.281 375.249 267.087 382.828C267.008 385.978 267.258 389.127 267.835 392.225C269.774 402.7 274.91 412.307 280.656 421.278C286.765 430.815 293.818 440.028 303.196 446.375C312.574 452.723 324.645 455.874 335.457 452.51ZM319.681 253.608C320.022 253.637 320.364 253.623 320.702 253.568C321.465 253.42 322.209 253.188 322.921 252.876C325.306 251.928 327.825 250.88 329.323 248.796C329.634 248.415 329.825 247.951 329.873 247.462C329.85 246.962 329.693 246.478 329.418 246.06C328.36 244.176 326.911 242.541 325.17 241.263C323.888 240.323 322.133 239.585 320.759 240.384C319.967 240.844 319.512 241.705 319.121 242.532C317.824 245.283 313.782 253.076 319.681 253.608ZM311.61 237.113C310.841 235.272 308.742 233.829 306.859 234.493C305.091 235.117 304.338 237.158 303.027 238.497C302.329 239.211 301.458 239.73 300.499 240.006C299.54 240.282 298.526 240.304 297.556 240.071C296.586 239.837 295.693 239.356 294.964 238.675C294.235 237.993 293.696 237.134 293.398 236.181C293.061 235.103 293.049 233.949 292.759 232.859C292.47 231.768 291.789 230.662 290.699 230.368C289.589 230.067 288.387 230.743 287.767 231.715C285.725 234.921 287.881 238.817 289.436 241.737C290.514 243.766 291.85 245.739 293.761 247.014C295.783 248.363 298.273 248.81 300.696 248.993C300.999 249.015 301.304 249.034 301.606 249.049C303.502 249.177 305.406 249.017 307.254 248.576C308.732 248.192 310.23 247.487 311.038 246.191C311.626 245.253 311.785 244.117 311.922 243.019C312.17 241.036 312.38 238.951 311.61 237.113ZM282.068 246.563C281.233 243.744 280.671 240.85 280.392 237.922C280.224 236.185 280.046 234.214 278.662 233.148C277.96 232.646 277.111 232.39 276.249 232.421C274.544 232.431 272.957 233.222 271.437 233.995L265.519 237.007C264.832 237.313 264.197 237.725 263.638 238.228C261.956 239.909 261.759 243.845 262.325 246.048C262.964 248.539 265.024 250.704 267.574 251.231C269.526 251.634 271.542 251.172 273.536 251.166C273.641 251.166 273.749 251.166 273.854 251.168C275.565 251.202 277.257 251.538 278.964 251.645C279.976 251.709 281.101 251.645 281.83 250.942C282.936 249.865 282.504 248.04 282.068 246.562V246.563ZM145.784 246.038C143.363 245.212 140.924 244.38 138.712 243.095C137.594 242.446 136.452 241.657 135.159 241.674C133.604 241.694 132.275 242.931 131.661 244.36C130.516 247.028 130.693 250.813 130.369 253.687C130.063 256.409 129.825 259.144 129.787 261.883C129.776 262.623 129.781 263.363 129.801 264.103C129.847 265.704 130.108 267.544 131.462 268.401C132.568 269.1 133.997 268.87 135.278 268.617L143.727 266.948C145.923 266.514 148.186 266.08 150.384 266.505C152.002 266.818 153.833 267.548 155.166 266.577C155.656 266.167 156.046 265.649 156.305 265.064C157.839 262.119 158.849 258.93 159.287 255.638C159.493 254.452 159.48 253.239 159.249 252.058C158.97 250.891 158.288 249.773 157.229 249.207C156.201 248.657 154.976 248.685 153.821 248.524C152.569 248.308 151.341 247.974 150.152 247.526L145.784 246.038ZM149.48 235.033C149.055 233.931 148.283 232.762 147.964 232.107C147.106 230.339 146.11 228.617 145.302 226.826C145.026 226.212 144.64 225.653 144.164 225.177C143.3 224.408 142.022 224.243 140.893 224.496C135.976 225.598 136.134 231.026 139.186 233.928C140.242 234.918 141.41 235.781 142.668 236.497C143.675 237.079 144.678 237.762 145.825 238.032C146.875 238.279 148.359 238.114 149.225 237.406C149.951 236.81 149.779 235.809 149.48 235.033V235.033ZM166.233 225.747L166.227 225.756C165.384 227.001 163.608 227.207 162.23 227.016C161.173 226.869 160.381 226.11 159.767 225.29C159.029 224.384 158.457 223.354 158.079 222.248C157.879 221.565 157.901 220.704 157.331 220.208C156.761 219.711 155.912 219.758 155.183 219.937C153.388 220.376 151.255 221.468 151.784 223.651C152.425 226.302 153.953 228.815 155.723 230.86C155.74 230.88 155.757 230.899 155.775 230.92C159.175 234.925 164.188 235.596 168.96 233.941C169.663 233.725 170.324 233.39 170.914 232.952C172.788 231.451 173.29 228.301 173.128 226.042C172.984 224.051 172.091 222.372 170.599 221.338C169.734 220.738 168.373 220.529 167.572 221.374C167.319 221.665 167.143 222.015 167.06 222.391C166.766 223.514 166.88 224.782 166.233 225.745V225.747ZM168.371 254.953C166.543 257.068 167.11 259.856 170.36 259.856C171.97 259.856 173.458 259.074 174.975 258.538C178.692 257.228 182.804 257.382 186.629 258.331C190.453 259.281 194.043 260.987 197.563 262.758C199.295 263.63 201.04 264.529 202.929 264.968C204.5 265.332 206.126 265.368 207.739 265.403C211.47 265.482 215.246 265.557 218.885 264.724C221.754 264.068 224.462 262.863 227.211 261.813C235.123 258.792 244.06 257.046 251.993 260.01C253.889 260.718 256.061 261.674 257.813 260.661C259.971 259.415 259.695 256.048 258.167 254.079C256.256 251.619 253.118 250.446 250.058 249.866C242.39 248.414 234.455 249.975 227.035 252.387C221.402 254.217 215.624 256.572 209.761 255.735C207.112 255.357 204.604 254.338 202.066 253.492C195.903 251.441 189.453 250.381 182.958 250.352H182.554C179.997 250.303 177.444 250.578 174.956 251.169C172.501 251.808 170.051 253.005 168.369 254.951L168.371 254.953ZM179.509 282.764C181.487 285.373 184.189 287.266 186.794 289.194C189.193 290.97 191.118 293.09 193.917 294.309C194.682 294.643 195.572 294.918 196.334 294.572C199.493 293.137 196.66 288.266 195.486 286.575C194.434 285.059 193.373 283.531 192.042 282.252C190.007 280.297 187.405 278.996 184.689 278.227C183.415 277.866 182.041 277.62 180.778 278.02C179.514 278.421 178.432 279.654 178.615 280.967C178.747 281.606 179.038 282.202 179.461 282.699L179.509 282.764ZM187.307 357.331C185.517 358.056 184.054 359.474 182.219 360.075C178.856 361.175 175.338 359.312 172.095 357.897C170.462 357.25 168.735 356.876 166.981 356.79C163.855 356.644 161.156 357.598 163.321 361.268C165.798 365.465 172.742 367.599 177.255 367.542C181.971 367.481 186.674 365.592 191.301 366.505C197.171 367.663 201.477 373.05 207.315 374.363C216.747 376.487 225.32 367.389 234.987 367.24C242.218 367.128 249.748 372.01 256.245 368.833C258.219 367.869 259.786 366.257 261.473 364.852C262.55 363.952 263.715 363.099 264.446 361.9C265.176 360.702 265.353 359.029 264.438 357.967C263.292 356.634 261.088 356.927 259.616 357.884C258.144 358.841 257.051 360.307 255.575 361.261C252.125 363.49 247.533 362.441 243.766 360.803C239.998 359.165 236.245 356.965 232.138 357.076C224.188 357.292 218.141 366.035 210.206 365.503C206.026 365.22 202.535 362.396 199.052 360.065C195.569 357.734 191.19 355.756 187.307 357.331H187.307ZM192.91 347.437C192.889 346.608 192.697 345.791 192.345 345.04C191.239 342.274 189.864 339.624 188.24 337.127C187.606 336.154 186.665 335.086 185.524 335.299C184.923 335.41 184.449 335.865 184.049 336.329C182.107 338.571 180.589 341.907 180.861 344.97C180.965 346.312 181.467 347.594 182.304 348.649C183.066 349.585 184.051 350.314 185.169 350.77C186.287 351.225 187.501 351.393 188.7 351.257C190.747 350.999 192.834 349.498 192.91 347.437H192.91ZM167.598 344.101C166.528 338.641 164.308 333.486 162.104 328.376C161.933 327.876 161.644 327.424 161.261 327.059C160.371 326.347 158.955 326.795 158.253 327.695C155.748 330.91 155.553 337.891 154.787 341.78C154.39 343.793 154.075 346.102 155.351 347.708C156.352 348.97 158.066 349.415 159.672 349.527C160.068 349.555 160.464 349.568 160.861 349.565C162.281 349.553 163.692 349.341 165.053 348.935C165.878 348.69 166.725 348.344 167.241 347.657C167.979 346.674 167.834 345.307 167.598 344.101ZM232.69 428.037C231.013 426.44 228.654 425.855 226.469 425.092C218.234 422.217 211.315 416.054 206.935 408.511C202.555 400.968 200.639 392.124 200.837 383.404C200.879 381.553 200.985 379.585 200.058 377.982C199.175 376.456 196.786 375.448 195.483 376.923C194.355 378.198 195.283 384.686 195.329 386.422C195.498 392.868 196.271 399.324 198.023 405.544C200.625 414.776 205.492 423.531 212.793 429.751C215.584 432.126 218.798 434.155 222.394 434.868C224.013 435.159 225.658 435.272 227.302 435.205C228.033 435.189 228.765 435.157 229.496 435.125C230.781 435.068 232.167 434.973 233.157 434.155C234.941 432.683 234.366 429.63 232.69 428.037ZM242.817 428.892C247.034 432.975 252.473 435.987 258.321 436.509C262.646 436.893 267.455 435.647 269.941 432.085C272.428 428.523 271.194 422.523 267.019 421.324C264.503 420.602 261.839 421.696 259.222 421.632C256.505 421.569 253.969 420.255 251.746 418.694C245.52 414.318 240.994 407.834 237.98 400.847C234.967 393.86 233.373 386.349 232.137 378.841C231.961 377.772 231.773 376.659 231.131 375.788C230.072 374.354 227.949 373.982 226.293 374.643C223.174 375.89 222.18 378.771 222.219 382.091C222.275 386.855 224.454 392.528 225.537 395.593C227.783 401.954 230.036 408.327 232.959 414.407C235.503 419.695 238.599 424.806 242.817 428.892H242.817ZM192.268 418.582C185.783 415.173 181.371 408.654 178.976 401.731C177.222 396.659 176.424 391.332 175.897 385.977C175.704 384.018 175.547 382.059 175.395 380.103C175.321 379.171 175.184 378.122 174.429 377.572C170.273 374.554 169.641 385.7 169.542 387.357C169.272 392.142 169.819 396.939 171.16 401.54C173.857 410.883 179.701 419.393 187.842 424.803C189.436 425.862 191.215 426.841 193.129 426.8C195.043 426.758 197.047 425.334 197.064 423.419C197.085 421.018 194.393 419.702 192.268 418.582ZM259.054 341.561C258.183 339.001 257.313 336.44 256.443 333.877C256.209 333.187 255.891 332.415 255.203 332.182C254.056 331.798 253.151 333.175 252.72 334.304C251.653 337.102 248.675 342.594 248.7 346.728C248.715 349.272 249.867 351.304 253.301 351.877C256.309 352.373 259.496 350.077 259.979 347.065C260.272 345.208 259.658 343.341 259.054 341.561ZM231.471 348.442C231.407 347.469 231.156 346.518 230.731 345.641C230.235 344.515 229.74 343.388 229.245 342.26C228.718 341.064 228.1 339.767 226.913 339.217C221.849 336.864 224.625 346.404 225.467 347.886C226.021 348.862 226.677 349.832 227.645 350.401C228.612 350.97 229.964 351.028 230.779 350.255C231.017 350.019 231.201 349.736 231.321 349.423C231.44 349.111 231.491 348.776 231.471 348.442ZM204.604 348.948C205.047 349.689 205.686 350.293 206.451 350.693C207.216 351.093 208.076 351.274 208.937 351.215L209.04 351.206C209.88 351.105 210.676 350.779 211.346 350.262C212.016 349.746 212.533 349.057 212.843 348.271C213.426 346.728 213.129 344.966 212.414 343.481C211.698 341.996 210.598 340.734 209.512 339.493C208.926 338.826 208.232 338.104 207.344 338.088C203.98 338.027 203.479 347.008 204.604 348.948ZM225.929 290.415C225.929 292.204 227.058 293.606 229.481 292.48C233.605 290.565 237.233 287.742 240.775 284.891C241.544 284.273 242.346 283.603 242.674 282.672C242.869 282.066 242.85 281.412 242.62 280.818C242.391 280.225 241.964 279.728 241.412 279.411C240.423 278.879 239.184 279.021 238.16 279.484C237.137 279.946 236.273 280.692 235.39 281.388C234.176 282.346 232.901 283.227 231.574 284.023C229.928 285.01 228.153 285.91 226.968 287.42C226.306 288.279 225.941 289.33 225.929 290.415ZM257.538 503.153C258.81 509.166 259.178 515.374 262.823 520.564C263.279 521.213 263.845 521.884 264.628 522.011C270.034 522.898 275.464 503.417 276.583 499.722C277.035 498.252 277.235 496.717 277.175 495.18C276.952 490.238 273.772 486.133 267.597 487.03C259.215 488.248 255.953 495.651 257.54 503.153H257.538ZM184.436 506.711C185.121 507.882 186.132 509.036 187.481 509.176C189.174 509.357 190.554 507.913 191.638 506.6C194.665 502.937 197.692 499.271 200.719 495.603C203.444 492.302 206.336 488.464 205.793 484.219C205.275 480.167 201.463 477.028 197.41 476.516C197.088 476.475 196.774 476.443 196.465 476.424C186.643 475.823 184.324 486.184 182.798 494.147C181.985 498.386 182.257 502.984 184.437 506.711H184.436ZM161.259 439.586C169.602 444.207 178.018 448.688 186.508 453.031C193.62 456.673 200.806 460.225 208.355 462.839C228.191 469.714 249.631 469.86 270.627 469.889H271.037C282.056 469.905 293.717 469.749 303.104 463.984C304.678 463.02 306.291 461.697 306.501 459.862C306.784 457.372 304.189 455.343 301.686 455.172C299.183 455 296.798 456.091 294.448 456.962C285.675 460.206 276.116 460.533 266.76 460.435C246.013 460.222 225.063 458.059 205.5 451.146C192.472 446.541 180.264 439.904 168.318 432.959C166.376 431.83 164.337 430.663 162.092 430.574C154.92 430.291 156.877 437.16 161.26 439.586H161.259ZM123.749 473.47C124.539 474.176 125.573 474.3 126.64 474.15C127.523 474.001 128.385 473.747 129.209 473.394C136.464 470.44 143.545 467.078 150.419 463.322C152.041 462.438 153.793 461.354 154.282 459.573C154.667 458.167 154.146 456.669 153.417 455.407C151.309 451.756 147.547 449.346 143.644 447.756C142.356 447.231 140.963 446.77 139.596 447.024C137.438 447.425 136.008 449.425 134.811 451.266C132.553 454.733 130.295 458.201 128.038 461.672C126.741 463.662 122.86 467.555 122.86 470.077C122.603 471.276 122.834 472.656 123.749 473.47ZM80.924 332.725C78.6159 329.064 75.8755 325.695 72.7619 322.689C71.5809 321.55 70.1282 320.39 68.4988 320.584C66.83 320.781 65.6591 322.339 65.0221 323.894C63.8567 326.74 61.2332 330.776 64.1219 333.393C65.44 334.586 67.2383 335.063 68.9628 335.498C71.4266 336.122 73.8903 336.746 76.3537 337.371C76.8485 337.495 77.3503 337.623 77.855 337.702C78.3674 337.792 78.8899 337.809 79.4071 337.753C80.4311 337.623 81.4636 337.022 81.7953 336.042C82.1753 334.923 81.5549 333.727 80.924 332.725ZM110.868 341.327C110.681 340.443 110.189 339.664 109.705 338.901L103.716 329.485C102.234 327.154 100.493 324.632 97.8078 323.996C89.7983 322.091 98.0129 335.412 99.255 337.972C100.215 339.954 101.262 342.033 103.115 343.22C104.279 343.913 105.596 344.307 106.949 344.368C107.267 344.39 107.583 344.403 107.898 344.403C108.704 344.409 109.573 344.333 110.186 343.811C110.872 343.226 111.054 342.208 110.867 341.327H110.868ZM111.581 369.796C109.822 374.404 108.959 379.304 108.133 384.144C107.025 390.638 105.904 398.013 107.454 404.487C108.828 410.227 109.56 415.7 112.633 420.912C120.886 434.914 137.494 434.717 151.156 429.779C155.894 428.065 161.883 425.368 165.438 421.692C167.466 419.596 167.892 415.856 167.173 413.105C166.777 411.592 165.655 410.164 164.116 409.881C162.71 409.626 161.332 410.348 160.075 411.029C153.519 414.571 146.425 418.387 138.745 418.823L138.381 418.842C134.781 418.961 131.2 418.265 127.907 416.807C124.613 415.348 121.691 413.164 119.359 410.418C113.835 403.756 113.152 394.667 115 386.497C115.98 382.238 117.562 378.14 119.7 374.327C121.501 371.093 123.537 366.345 127.541 365.401C128.574 365.156 129.783 365.366 130.458 366.183C131.042 366.892 131.114 367.881 131.135 368.797C131.238 373.163 130.799 377.523 130.743 381.889C130.687 386.256 131.033 390.705 132.631 394.769C134.229 398.833 137.22 402.5 141.267 404.137C145.832 405.985 149.431 404.137 152.302 400.541C158.038 393.354 161.248 384.306 164.166 375.685C165.129 372.842 165.212 369.319 163.058 367.229C162.157 366.352 160.975 365.843 159.885 365.216C155.424 362.666 152.971 358.665 147.679 357.492C141.446 356.108 135.096 355.24 128.779 354.258C126.272 353.879 123.745 353.644 121.211 353.552C118.533 353.444 117.993 353.927 117.107 356.512C115.544 361.079 113.294 365.309 111.581 369.796H111.581ZM146.83 344.161C146.842 343.678 146.815 343.195 146.75 342.717C146.512 340.927 145.779 339.098 144.304 338.055C138.809 334.175 139.327 342.221 139.862 345.112C140.089 346.336 140.472 347.656 141.501 348.359C142.844 349.275 144.827 348.67 145.814 347.379C146.481 346.439 146.836 345.314 146.829 344.161H146.83ZM116.485 332.299C116.508 335.673 119.343 341.423 119.833 342.816C120.139 343.687 120.469 344.593 121.148 345.217C121.762 345.783 122.587 346.044 123.383 346.292L126.768 347.341C127.506 347.567 128.283 347.799 129.04 347.649C130.153 347.427 130.977 346.384 131.203 345.271C131.428 344.158 131.15 343 130.707 341.954C129.925 340.106 128.648 338.516 127.312 337.018C125.78 335.304 124.151 333.679 122.522 332.054C121.523 331.059 120.417 330.009 119.018 329.828C117.122 329.583 116.474 330.661 116.484 332.299H116.485ZM122.889 295.817C121.715 301.367 121.91 307.342 122.275 313.066C122.429 315.489 122.617 317.97 123.596 320.193C125.027 323.437 128.516 325.03 131.7 326.041C136.124 327.475 140.681 328.457 145.303 328.97C149.314 329.387 150.28 325.542 150.832 322.308C151.456 318.65 152.331 315.039 153.45 311.502C153.839 310.274 154.287 309.005 155.206 308.105C157.458 305.902 161.486 307.021 163.513 309.435C165.54 311.848 166.199 315.079 167.163 318.078C168.644 322.683 170.962 326.966 173.269 331.221C173.698 332.013 174.189 332.862 175.023 333.203C176.993 334.007 178.618 331.559 179.523 329.631C181.042 326.397 183.911 323.033 187.448 323.561C189.629 323.885 191.328 325.656 192.409 327.577C193.45 329.421 194.45 334.608 197.02 334.84C199.26 335.041 201.236 331.053 202.242 329.498C203.907 326.919 205.32 324.063 205.446 320.94C205.623 316.561 203.243 312.456 200.322 309.193C196.688 305.132 192.171 301.98 187.697 298.87L176.615 291.164C174.85 289.936 173.056 288.694 171.028 287.979C168.961 287.251 166.743 287.101 164.553 287.05C159.766 286.937 154.781 287.316 150.603 289.657C146.425 291.998 143.287 296.749 144.129 301.461C144.614 304.177 145.413 310.356 140.496 307.736C137.827 306.314 133.759 304.18 134.327 300.727C135.79 291.854 142.964 284.195 151.723 282.157C153.19 281.815 154.713 281.611 156.057 280.93C157.402 280.25 158.563 278.947 158.544 277.441C158.512 274.929 155.508 273.629 153.007 273.389C146.248 272.743 139.45 275.232 133.945 279.207C130.847 281.445 128.065 284.181 126.089 287.453C124.56 290.042 123.478 292.869 122.889 295.817ZM137.768 179.475C137.654 176.487 137.124 173.533 136.994 170.547C136.725 164.391 136.734 158.235 135.847 152.122C134.937 145.848 133.568 139.612 133.419 133.253C133.361 130.792 133.689 126.552 130.548 126.046C129.153 125.821 128.4 126.67 127.883 127.824C126.113 131.784 124.228 135.447 123.41 139.723C122.542 144.313 122.112 148.975 122.125 153.646C122.136 160.481 123.071 167.282 124.902 173.867C125.824 177.177 127.068 180.322 128.315 183.515C129.34 186.138 132.975 188.883 135.82 187.144C138.104 185.749 137.855 181.768 137.767 179.475L137.768 179.475ZM154.868 176.379C154.364 171.987 154.22 167.564 154.08 163.144C153.669 150.333 153.258 137.52 153.281 124.703C153.283 123.367 153.283 121.992 152.794 120.749C152.368 119.721 151.635 118.85 150.697 118.253C149.758 117.656 148.659 117.361 147.547 117.41C144.742 117.587 142.339 120.272 142.467 123.083C142.823 130.964 143.263 138.836 143.981 146.729C144.712 154.759 145.38 162.813 145.271 170.883C145.269 171.026 145.267 171.168 145.265 171.311C145.216 174.164 145.069 177.033 145.483 179.856C145.659 181.05 145.95 182.266 146.657 183.244C147.084 183.836 147.647 184.316 148.297 184.646C148.948 184.975 149.669 185.144 150.398 185.138C151.128 185.132 151.845 184.952 152.491 184.612C153.136 184.272 153.691 183.782 154.108 183.184C155.444 181.269 155.134 178.7 154.867 176.378L154.868 176.379ZM173.326 147.561C173.226 144.956 173.125 142.351 173.025 139.747L172.51 126.378C172.433 124.374 172.29 122.356 172.255 120.357C172.225 118.648 172.381 116.804 171.042 115.491C170.102 114.569 168.708 114.295 167.393 114.223C165.631 114.127 163.686 114.398 162.486 115.692C161.185 117.096 161.164 119.222 161.219 121.136C161.568 133.438 162.177 145.736 162.382 158.037C162.501 165.148 162.014 172.507 164.351 179.35C164.803 180.672 165.543 181.962 166.729 182.701C167.351 183.067 168.049 183.283 168.769 183.334C169.489 183.385 170.211 183.268 170.878 182.993C173.82 181.809 174.424 178.917 174.424 176.067C174.424 166.676 173.69 157.024 173.325 147.561L173.326 147.561ZM195.872 176.759C195.808 173.85 195.746 170.94 195.683 168.03C195.328 151.457 195.468 134.758 194.189 118.225C194.107 117.17 193.984 116.03 193.272 115.248C192.662 114.576 191.735 114.3 190.847 114.113C188.768 113.674 185.384 113.087 183.342 113.928C181.46 114.703 181.136 117.009 181.059 118.787C180.238 137.983 181.473 157.497 182.881 176.642C183 178.264 183.178 180.013 184.258 181.231C185.525 182.662 187.624 182.918 189.528 183.082C191.166 183.222 192.982 183.313 194.266 182.287C195.824 181.047 195.915 178.752 195.871 176.76L195.872 176.759ZM157.076 198.446C150.494 200.662 142.846 203.813 137.389 208.209C130.357 213.875 136.185 217.828 143.24 215.032C155.645 210.118 170.403 211.633 181.55 218.965C182.512 219.598 183.597 220.304 184.723 220.062C187.821 219.399 185.764 214.675 186.174 211.534C186.678 207.679 193.206 206.8 194.712 210.384C196.112 213.713 193.695 218.736 196.825 220.536C197.591 220.977 198.508 221.045 199.39 221.103C204.96 221.469 212.338 220.527 213.356 215.039C213.914 212.028 212.444 207.984 215.099 206.459C217.52 205.069 220.346 207.934 220.858 210.677C221.37 213.421 220.845 216.452 222.251 218.863C223.183 220.461 224.954 221.827 224.76 223.665C224.474 226.389 220.658 226.658 217.937 226.329C215.203 226 212.449 225.866 209.696 225.928C198.901 226.165 188.372 229.328 179.232 235.078C176.907 236.551 174.458 239.588 176.259 241.669C177.457 243.054 179.63 242.738 181.446 242.51C190.735 241.343 199.807 245.653 209.141 246.394C214.5 246.82 219.876 246.06 225.2 245.303L248.584 241.978C250.171 241.752 251.915 241.44 252.913 240.187C253.778 239.102 253.841 237.6 253.823 236.212C253.732 229.253 253.312 220.732 259.256 217.112C260.483 216.364 262.285 216.023 263.202 217.13C264.433 218.617 262.807 220.745 262.681 222.671C262.512 225.273 265.344 227.228 267.952 227.25C270.56 227.273 272.97 225.989 275.374 224.98C293.526 217.365 314.574 224.865 331.033 235.66C334.493 237.93 338.847 240.423 342.475 238.433C330.016 223.264 310.313 214.33 290.692 214.955C287.439 215.058 282.749 213.902 283.442 210.722C283.849 208.852 286.046 208.064 287.929 207.716C306.452 204.298 325.437 212.47 340.182 224.192C342.596 226.112 345.178 228.23 348.263 228.366C349.417 228.418 350.613 228.186 351.703 228.566C353.678 229.254 354.502 231.768 353.996 233.796C353.491 235.825 352.025 237.453 350.571 238.957C342.199 247.606 332.672 255.057 322.26 261.098C320.66 262.025 318.861 263.174 318.625 265.006C318.482 266.091 318.946 267.153 319.398 268.148L326.343 283.452C327.135 285.196 327.949 286.973 329.246 288.381C331.196 290.501 334.007 291.555 336.506 292.986C344.781 297.724 349.919 307.455 349.166 316.959C348.806 321.471 347.337 326.41 349.751 330.239C350.94 332.125 352.893 333.368 354.724 334.643C363.389 340.685 370.542 348.648 375.623 357.909C376.949 360.332 379.433 363.286 381.831 361.916C382.711 361.41 383.201 360.434 383.605 359.502C388.518 348.216 388.699 335.206 385.5 323.322C382.301 311.438 375.887 300.6 368.134 291.044C367.085 289.753 365.985 287.899 367.002 286.585C368.068 285.214 370.249 285.955 371.721 286.875C383.421 294.28 391.758 305.97 394.948 319.444C395.727 322.811 398.061 327.349 401.184 325.871C402.357 325.314 402.977 324.029 403.439 322.814C409.509 306.765 402.551 288.701 393.145 274.35C383.739 259.999 371.667 247.033 365.937 230.86C363.285 223.367 361.79 214.896 355.917 209.54C350.139 204.27 341.683 203.482 333.873 203.068C297.993 201.169 261.959 201.584 226.235 197.724C203.112 195.226 179.116 191.024 157.074 198.446H157.076V198.446ZM370.51 176.872C369.734 155.825 368.955 134.77 367.276 113.775C367.104 111.613 366.796 109.207 365.113 107.842C363.924 106.878 362.309 106.669 360.782 106.566C358.314 106.399 355.836 106.411 353.37 106.601C351.557 106.741 349.589 107.057 348.355 108.394C346.987 109.878 346.959 112.117 347.01 114.135C347.01 131.517 347.817 148.928 348.339 166.316C348.428 169.342 348.508 172.366 348.577 175.39C348.65 179.003 348.985 182.607 349.579 186.172C349.77 187.305 350.04 188.525 350.918 189.266C351.92 190.107 353.37 190.053 354.674 189.954L365.689 189.117C366.761 189.036 367.899 188.931 368.761 188.287C369.855 187.468 370.214 186.001 370.383 184.644C370.701 182.07 370.605 179.464 370.51 176.872V176.872ZM339.877 180.733C339.775 170.671 339.591 160.626 339.101 150.575C338.621 140.666 337.403 130.731 337.238 120.835C337.199 118.648 337.238 116.387 336.993 114.214C336.827 112.771 336.271 111.259 335.05 110.476C334.296 110.055 333.457 109.808 332.595 109.754C329.269 109.354 323.611 108.81 323.189 113.371C322.918 116.267 322.642 119.175 322.626 122.08C322.591 127.954 322.759 133.829 322.788 139.704C322.823 147.194 322.928 154.685 323.252 162.169C323.561 169.295 324.095 176.438 324.626 183.551C324.667 184.08 324.705 184.608 324.743 185.136C325.227 191.58 331.275 192.212 336.506 191.029C337.354 190.885 338.165 190.576 338.894 190.12C341.55 188.239 339.902 183.379 339.877 180.733V180.733ZM314.672 133.434C314.743 129.773 314.452 126.113 313.804 122.509C313.289 119.815 312.59 114.818 309.972 113.299C308.472 112.427 306.211 112.796 304.538 112.891C302.496 113.007 300.366 113.096 298.375 113.594C297.37 113.844 296.372 114.36 295.863 115.261C294.915 116.934 295.087 119.724 294.96 121.589C293.611 140.924 297.637 160.204 295.637 179.489C295.214 183.566 295.806 188.145 299.215 190.859C301.422 192.617 304.328 193.342 307.241 193.312C309.565 193.288 315.054 193.287 315.28 190.105C316.196 177.33 313.706 164.665 313.858 151.899C313.932 145.736 314.625 139.595 314.672 133.434V133.434ZM286.657 122.993C286.644 120.503 285.757 118.012 283.181 117.216C280.526 116.397 277.514 116.972 274.824 117.33C269.103 118.089 269.93 122.696 269.908 127.167C269.886 132.261 269.941 137.355 270.073 142.449C270.337 152.635 270.911 162.806 271.794 172.963C272.099 176.488 272.442 180.009 272.824 183.527C273.053 185.642 272.655 191.197 274.83 192.35C277.616 193.824 282.113 193.984 285.029 192.864C288.155 191.662 288.463 187.807 288.527 184.935C288.613 181.096 288.845 177.17 288.676 173.341C288.374 166.46 287.363 159.626 286.981 152.748C286.65 146.815 286.628 140.893 286.628 134.969C286.631 130.971 286.673 126.982 286.657 122.993V122.993ZM260.931 124.131C260.192 121.112 258.306 118.841 255.274 117.943C253.818 117.471 252.252 117.459 250.79 117.911C247.018 119.203 246.944 122.876 246.885 126.196C246.799 131.002 246.712 135.808 246.624 140.615C246.49 148.054 246.887 155.487 247.29 162.912C247.69 170.293 247.152 177.691 247.66 185.064C247.828 187.501 248.294 190.23 250.294 191.632C253.266 193.716 259.4 193.836 262.561 192.04C264.158 191.133 264.562 189.328 264.624 187.62C264.844 181.557 263.599 175.263 263.2 169.198C262.765 162.583 262.421 155.964 262.122 149.344C261.943 145.379 261.776 141.413 261.623 137.446C261.577 136.293 261.531 135.14 261.485 133.987C261.356 130.708 261.72 127.354 260.932 124.13L260.931 124.131ZM218.643 174.889C217.387 167.587 217.495 160.344 217.488 152.947C217.481 143.474 216.201 134.057 215.557 124.561C215.351 121.529 215.119 118.091 212.764 116.171C211.153 114.857 208.909 114.619 206.839 114.816C203.69 115.116 202.85 117.955 202.804 120.693C202.747 124.117 203.231 127.594 203.31 131.023C203.429 136.121 203.433 141.22 203.422 146.32C203.409 152.878 203.37 159.438 203.523 165.995C203.591 168.944 203.765 172.088 203.946 175.107C204.096 177.605 203.941 180.444 205.36 182.63C207.141 185.371 211.459 186.55 214.539 186.243C220.239 185.673 219.339 178.935 218.643 174.889ZM226.821 116.312C225.143 117.211 225.522 119.877 225.54 121.434C225.626 129.104 225.681 136.774 225.765 144.443C225.834 150.6 225.944 156.956 226.069 163.189C226.179 168.699 225.361 174.412 226.255 179.948C226.753 183.03 227.92 186.481 230.336 188.598C232.023 190.076 234.964 190.585 237.093 189.791C240.45 188.54 239.466 184.565 239.406 181.732C238.978 161.475 238.687 141.083 237.431 120.861C237.401 119.974 237.212 119.099 236.87 118.279C235.627 115.489 229.184 115.046 226.822 116.311L226.821 116.312ZM383.968 64.4369C375.086 52.143 359.091 42.894 344.727 38.6931C337.234 36.502 329.285 35.6812 321.519 36.6101C313.556 37.5642 306.64 41.4334 298.811 42.7843C289.935 44.3158 280.879 42.4612 271.902 41.698C256.727 40.4075 240.779 44.8863 236.135 61.1064C232.173 74.9417 239.764 86.4518 251.522 93.1494C262.021 99.1012 274.048 101.809 286.084 100.931C299.046 99.9583 311.143 94.8504 323.745 92.1025C338.993 88.7767 353.716 92.2071 368.961 92.9888C376.634 93.3825 385.901 92.2672 390.674 85.3766C394.977 79.163 387.599 69.4666 383.968 64.4369ZM389.679 114.857C389.758 113.384 389.854 111.827 389.176 110.517C388.659 109.628 387.933 108.878 387.062 108.331C385.721 107.405 384.238 106.707 382.67 106.264C380.724 105.715 378.333 105.699 377.019 107.236C375.906 108.54 375.992 110.451 376.129 112.16C377.36 127.598 377.741 143.09 378.126 158.573C378.147 159.527 378.16 160.489 378.164 161.458C378.193 168.336 377.868 175.537 379.035 182.214C379.334 183.929 380.247 185.697 381.869 186.321C382.826 186.688 383.888 186.609 384.909 186.525L388.728 186.207C389.507 186.143 390.331 186.063 390.967 185.608C391.739 185.056 392.067 184.079 392.296 183.157C393.002 180.308 393.202 177.358 393.279 174.424C393.79 154.519 388.62 134.742 389.679 114.857ZM415.15 166.645C415.109 164.094 415.056 161.543 414.991 158.992C414.591 143.177 413.754 127.381 412.482 111.604C412.381 110.323 412.257 108.991 411.598 107.887C410.756 106.475 409.14 105.665 407.515 105.407C405.89 105.148 404.23 105.368 402.602 105.588C401.496 105.737 400.325 105.914 399.467 106.628C398.09 107.773 398.017 109.827 398.077 111.618C398.427 121.638 399.508 131.611 400.363 141.596C400.796 146.631 401.171 151.673 401.368 156.724C401.556 161.625 400.968 166.695 401.368 171.556C401.607 174.482 401.849 177.784 403.496 180.326C405.095 182.795 408.399 184.385 411.077 183.165C413.863 181.895 414.747 178.4 414.995 175.347C415.23 172.455 415.198 169.547 415.15 166.645ZM427.851 110.948C427.667 109.648 427.295 108.117 426.067 107.66C424.948 107.243 423.67 108.032 423.126 109.094C422.582 110.156 422.582 111.404 422.595 112.597C422.595 127.116 423.053 141.645 423.202 156.169C423.259 161.848 423.272 167.526 423.189 173.203C423.161 174.949 423.282 176.783 424.147 178.342C425.18 180.209 427.67 181.445 429.518 180.378C431.295 179.353 431.566 176.943 431.616 174.895C432.144 153.512 430.885 132.121 427.851 110.948ZM450.925 159.932C450.75 148.719 448.903 137.417 444.34 127.173C443.85 126.07 443.312 124.959 442.466 124.095C442.097 123.66 441.577 123.38 441.01 123.311C440.225 123.279 439.544 123.926 439.271 124.662C438.997 125.398 439.042 126.208 439.089 126.991C439.63 135.94 439.989 144.909 440.069 153.878C440.104 157.673 440.086 161.468 440.015 165.262C439.948 168.653 439.22 172.806 440.953 175.913C441.659 177.389 443.115 178.631 444.75 178.573C446.998 178.495 448.451 176.181 449.192 174.058C450.763 169.555 450.998 164.702 450.925 159.932ZM426.557 266.942C429.855 261.434 432.535 255.503 436.603 250.537C440.221 246.12 444.867 242.559 448.028 237.803C450.865 233.529 452.356 228.499 453.333 223.46C453.862 220.885 454.167 218.269 454.242 215.641C454.277 213.838 454.121 212.036 453.775 210.267C452.89 205.925 450.477 201.735 446.629 199.536C444.177 198.132 441.331 197.618 438.663 196.685C433.556 194.9 429.05 191.56 423.813 190.191C419.475 189.055 414.902 189.346 410.431 189.736C403.696 190.324 396.982 191.119 390.289 192.121C387.838 192.488 385.338 192.9 383.15 194.061C372.084 199.928 375.289 216.303 378.011 225.828C381.707 238.757 388.264 250.713 395.826 261.763C398.691 265.95 401.814 270.136 406.122 272.816C410.431 275.496 416.206 276.381 420.553 273.768C423.177 272.191 424.983 269.57 426.557 266.942V266.942ZM422.709 367.624C415.354 369.141 416.003 380.783 418.124 385.785C418.591 386.882 419.186 387.97 420.124 388.704C421.425 389.725 423.167 389.922 424.814 390.062C432.071 390.689 439.346 391.012 446.639 391.032C447.892 391.039 449.144 391.033 450.397 391.016C451.428 391.004 452.607 390.915 453.228 390.091C453.972 389.102 453.447 387.674 452.757 386.647C451.135 384.227 448.753 382.43 446.381 380.735C440.861 376.789 435.137 373.132 429.33 369.621C427.308 368.4 425.024 367.147 422.709 367.624ZM457.616 317.168C457.072 316.494 456.175 316.227 455.326 316.043C452.61 315.464 449.829 315.241 447.055 315.381C443.227 315.53 439.379 316.214 435.623 317.019C427.889 318.682 431.712 330.986 435.598 335.005C436.402 335.839 437.375 336.58 438.517 336.764C440.333 337.06 442.037 335.912 443.506 334.802C446.279 332.706 449.001 330.546 451.673 328.321C454.388 326.063 457.196 323.503 457.998 320.065C458.226 319.083 458.246 317.957 457.616 317.168ZM417.485 259.432C416.258 259.961 414.948 260.27 413.614 260.344C410.288 260.545 406.835 259.413 404.049 257.503C400.15 254.832 397.365 250.84 394.999 246.75C390.309 238.627 386.947 229.807 385.039 220.624C384.473 217.901 380.33 196.176 389.571 201.96C393.059 204.145 393.002 209.395 393.348 212.989C393.927 219.196 395.851 225.202 398.987 230.59C401.575 235.096 406.51 244.445 412.587 244.489C417.147 244.521 419.828 239.624 422.429 235.877C426.073 230.654 431.247 226.689 437.239 224.529C438.959 223.914 440.886 223.459 442.584 224.138C444.282 224.817 445.414 227.075 444.346 228.558C443.796 229.326 442.848 229.679 441.964 230.018C438.705 231.272 435.515 232.932 433.114 235.469C429.766 239.004 428.274 243.844 426.423 248.348C424.573 252.852 421.946 257.481 417.485 259.432ZM156.124 294.241C158.026 294.25 160.21 295.995 160.258 297.546C160.304 299.022 158.59 300.912 157.213 300.902C155.461 300.893 152.952 298.618 152.932 297.026C152.912 295.385 154.233 294.233 156.124 294.241ZM297.027 431.33C294.085 427.492 291.538 423.218 290.18 418.55C289.691 416.861 287.713 405.146 292.594 409.041C293.586 409.833 294.022 411.111 294.48 412.294C296.122 416.443 298.601 420.209 301.762 423.358C304.923 426.506 308.699 428.97 312.854 430.596C315.394 431.572 318.132 432.227 320.832 431.89C323.764 431.528 326.429 430.03 328.881 428.379C331.79 426.417 334.547 424.169 336.761 421.444C342.749 414.075 344.18 404.102 345.092 394.651C345.531 390.107 345.89 385.483 345.916 380.888C345.96 373.316 345.092 365.82 342.176 358.888C340.78 355.571 338.942 352.458 337.559 349.135C337.19 348.247 336.875 347.15 337.46 346.384C337.852 345.95 338.39 345.676 338.971 345.614C341.47 345.159 344.062 346.231 345.964 347.913C347.865 349.596 349.182 351.831 350.358 354.083C358.032 368.873 360.902 385.689 358.569 402.188C358.13 405.238 357.513 408.259 356.896 411.277C356.483 413.299 356.07 415.331 355.329 417.255C354.559 419.246 353.456 421.091 352.33 422.906C349.996 426.662 347.525 430.367 344.475 433.572C339.562 438.734 333.113 442.508 326.108 443.796C319.102 445.084 311.566 443.784 305.644 439.824C302.277 437.573 299.491 434.546 297.027 431.33ZM303.908 335.024C304.416 334.9 304.935 334.831 305.457 334.818C306.098 334.855 306.736 334.94 307.365 335.072C308.503 335.39 309.457 336.036 309.464 337.336C309.47 338.583 308.882 339.76 307.619 339.998C306.228 340.251 304.804 340.263 303.409 340.033C302.283 339.852 301.711 338.834 301.736 337.642C301.768 336.211 302.7 335.463 303.908 335.024ZM315.382 351.411C314.894 351.641 314.358 351.748 313.82 351.723C312.577 351.561 311.944 350.019 312.195 348.788C312.446 347.557 313.283 346.543 313.938 345.474C316.8 340.8 316.288 334.745 314.409 329.596C313.455 326.982 312.071 324.368 309.734 322.854C307.397 321.341 303.908 321.334 302.124 323.471C300.566 325.332 300.668 328.21 299.027 329.997C297.981 331.135 296.416 331.619 294.922 332.013C293.446 332.401 291.557 332.611 290.689 331.355C289.91 330.229 290.508 328.712 291.023 327.443C292.544 323.594 293.128 319.438 292.728 315.318C292.328 311.199 290.954 307.233 288.721 303.748C287.337 301.633 285.41 299.595 282.904 299.268C281.709 299.113 280.488 299.369 279.292 299.211C275.139 298.666 277.362 295.66 280.081 294.972C284.559 293.841 289.302 294.508 293.295 296.831C297.288 299.153 300.213 302.947 301.444 307.399C302.232 310.252 302.601 313.734 305.215 315.123C306.506 315.807 308.042 315.772 309.495 315.941C313.979 316.459 318.059 319.134 320.807 322.721C323.554 326.308 325.055 330.731 325.663 335.206C325.767 335.998 325.844 336.805 325.876 337.616C326.009 340.93 325.418 344.298 323.309 346.788C321.309 349.147 318.279 350.324 315.382 351.411ZM279.168 312.757C280.965 312.748 282.284 313.737 282.383 315.162C282.482 316.548 281.225 317.744 279.47 317.931C279.206 317.96 278.942 317.96 278.821 317.966C276.878 317.96 275.514 316.968 275.438 315.607C275.362 314.29 276.681 313.025 278.373 312.799C278.637 312.767 278.902 312.754 279.168 312.757ZM75.4305 209.97C69.5562 214.215 65.3287 220.56 67.5938 228.154C70.2554 237.08 78.275 244.288 76.685 254.35C76.1419 257.784 74.6798 261.028 72.7848 263.947C71.322 266.201 69.5886 268.292 68.3646 270.688C66.4146 274.507 66.643 278.609 68.6273 282.369C70.0153 285 72.4324 286.433 74.1093 288.788C74.5444 289.352 74.8221 290.021 74.9138 290.727C75.248 294.584 69.8856 294.204 67.6889 293.041C63.0082 290.56 59.8378 284.663 58.825 279.601C58.4554 277.673 58.5808 275.682 59.1894 273.815C60.918 268.413 66.11 264.644 67.7566 259.216C68.1295 257.972 68.3135 256.678 68.3026 255.38C68.2877 251.408 66.6385 247.45 64.8091 243.991C62.9434 240.463 60.7549 237.086 59.3265 233.359C55.1521 222.472 61.4485 211.268 70.9388 205.632C72.4725 204.721 74.4454 203.961 75.9657 204.893C76.5543 205.284 76.9731 205.884 77.1383 206.571C77.3034 207.258 77.2026 207.982 76.8561 208.598C76.4759 209.145 75.9914 209.611 75.4305 209.97ZM49.6876 283.221C50.669 284.436 51.4166 286.014 51.0452 287.532C50.668 289.071 49.1591 290.169 47.5863 290.367C46.0135 290.565 44.4219 289.988 43.1117 289.095C37.8272 285.495 34.1337 278.228 33.9435 271.891C33.9321 271.506 33.9353 271.121 33.9531 270.739C34.1413 266.659 35.9402 262.743 38.2778 259.363C38.7685 258.734 39.1676 258.04 39.4633 257.299C39.7734 256.369 39.7111 255.36 39.6201 254.383C39.0143 247.893 37.3223 241.55 34.6148 235.62C33.4064 232.979 31.9894 230.393 31.3655 227.557C30.5387 223.795 31.1776 219.829 32.516 216.217C34.3242 211.339 37.466 204.265 43.389 203.354C45.049 203.1 47.0167 204.02 47.289 205.675C47.4743 206.804 46.8495 207.906 46.1225 208.788C45.2865 209.803 44.288 210.672 43.4418 211.678C41.4066 214.095 41.4416 217.203 41.4922 220.21C41.5526 223.804 41.6194 227.443 42.5854 230.904C43.1846 233.05 44.1185 235.086 44.9816 237.141C46.6009 240.998 47.9794 244.952 49.1092 248.98C49.4994 250.371 49.8628 251.815 49.6679 253.247C49.4221 255.052 48.3269 256.607 47.371 258.159C45.5104 261.178 44.0568 264.513 43.6654 268.037C43.2819 271.771 44.087 275.53 45.9658 278.778C46.9385 280.472 48.4745 281.718 49.6876 283.221Z" fill="#181818"/>
</g>
<defs>
<filter id="filter0_d" x="0.996273" y="0" width="505.006" height="581" filterUnits="userSpaceOnUse" color-interpolation-filters="sRGB">
<feFlood flood-opacity="0" result="BackgroundImageFix"/>
<feColorMatrix in="SourceAlpha" type="matrix" values="0 0 0 0 0 0 0 0 0 0 0 0 0 0 0 0 0 0 127 0"/>
<feOffset dy="4"/>
<feGaussianBlur stdDeviation="15"/>
<feColorMatrix type="matrix" values="0 0 0 0 0.691667 0 0 0 0 0.679217 0 0 0 0 0.613854 0 0 0 0.7 0"/>
<feBlend mode="normal" in2="BackgroundImageFix" result="effect1_dropShadow"/>
<feBlend mode="normal" in="SourceGraphic" in2="effect1_dropShadow" result="shape"/>
</filter>
</defs>
</svg>
