<svg width="22" height="22" viewBox="0 0 22 22" fill="none" xmlns="http://www.w3.org/2000/svg">
<g clip-path="url(#clip0)">
<path d="M21.9787 6.46806C21.9272 5.29912 21.7382 4.49548 21.4674 3.79911C21.188 3.05994 20.7583 2.39816 20.1952 1.84802C19.6451 1.28931 18.9789 0.855178 18.2483 0.580191C17.5479 0.309402 16.7485 0.12037 15.5795 0.0688306C14.4019 0.0129267 14.028 0 11.0411 0C8.05418 0 7.68031 0.0129267 6.507 0.0644657C5.33806 0.116005 4.53442 0.305205 3.83823 0.575827C3.09889 0.855178 2.43711 1.28495 1.88697 1.84802C1.32827 2.39816 0.8943 3.0643 0.619146 3.79492C0.348357 4.49548 0.159325 5.29475 0.107786 6.4637C0.0518824 7.64137 0.0389557 8.01524 0.0389557 11.0021C0.0389557 13.9891 0.0518824 14.3629 0.103421 15.5362C0.15496 16.7052 0.34416 17.5088 0.614949 18.2052C0.8943 18.9444 1.32827 19.6061 1.88697 20.1563C2.43711 20.715 3.10325 21.1491 3.83386 21.4241C4.53442 21.6949 5.3337 21.8839 6.50281 21.9355C7.67595 21.9872 8.04998 21.9999 11.0369 21.9999C14.0238 21.9999 14.3977 21.9872 15.571 21.9355C16.7399 21.8839 17.5435 21.6949 18.2397 21.4241C19.7183 20.8525 20.8872 19.6835 21.4588 18.2052C21.7294 17.5046 21.9186 16.7052 21.9702 15.5362C22.0217 14.3629 22.0346 13.9891 22.0346 11.0021C22.0346 8.01524 22.0303 7.64137 21.9787 6.46806ZM19.9976 15.4503C19.9503 16.5247 19.7698 17.1049 19.6194 17.4917C19.2497 18.4501 18.489 19.2108 17.5306 19.5805C17.1438 19.7309 16.5594 19.9113 15.4892 19.9585C14.3288 20.0102 13.9808 20.023 11.0454 20.023C8.11008 20.023 7.7577 20.0102 6.60152 19.9585C5.52709 19.9113 4.9469 19.7309 4.56011 19.5805C4.08316 19.4042 3.64903 19.1248 3.29665 18.7595C2.93135 18.4028 2.65199 17.973 2.47572 17.4961C2.3253 17.1093 2.14483 16.5247 2.09766 15.4546C2.04595 14.2943 2.03319 13.9461 2.03319 11.0107C2.03319 8.07534 2.04595 7.72296 2.09766 6.56694C2.14483 5.49251 2.3253 4.91232 2.47572 4.52553C2.65199 4.04841 2.93135 3.61445 3.30102 3.2619C3.65759 2.89659 4.08736 2.61724 4.56447 2.44114C4.95127 2.29072 5.53582 2.11024 6.60588 2.0629C7.76626 2.01136 8.11445 1.99844 11.0496 1.99844C13.9894 1.99844 14.3374 2.01136 15.4936 2.0629C16.568 2.11024 17.1482 2.29072 17.535 2.44114C18.0119 2.61724 18.4461 2.89659 18.7984 3.2619C19.1637 3.61864 19.4431 4.04841 19.6194 4.52553C19.7698 4.91232 19.9503 5.49671 19.9976 6.56694C20.0491 7.72732 20.0621 8.07534 20.0621 11.0107C20.0621 13.9461 20.0491 14.2899 19.9976 15.4503Z" fill="black"/>
<path d="M11.0408 5.35065C7.92073 5.35065 5.38927 7.88193 5.38927 11.0021C5.38927 14.1223 7.92073 16.6536 11.0408 16.6536C14.161 16.6536 16.6923 14.1223 16.6923 11.0021C16.6923 7.88193 14.161 5.35065 11.0408 5.35065ZM11.0408 14.6681C9.01665 14.6681 7.37479 13.0264 7.37479 11.0021C7.37479 8.97785 9.01665 7.33616 11.0408 7.33616C13.0651 7.33616 14.7068 8.97785 14.7068 11.0021C14.7068 13.0264 13.0651 14.6681 11.0408 14.6681Z" fill="black"/>
<path d="M18.2361 5.12717C18.2361 5.85577 17.6453 6.44654 16.9166 6.44654C16.188 6.44654 15.5972 5.85577 15.5972 5.12717C15.5972 4.3984 16.188 3.8078 16.9166 3.8078C17.6453 3.8078 18.2361 4.3984 18.2361 5.12717Z" fill="black"/>
</g>
<defs>
<clipPath id="clip0">
<rect width="22" height="22" fill="white"/>
</clipPath>
</defs>
</svg>
