<svg width="477" height="471" viewBox="0 0 477 471" fill="none" xmlns="http://www.w3.org/2000/svg">
<g filter="url(#filter0_d)">
<path d="M409.451 185.497C411.997 185.338 414.543 185.144 417.084 185.001C420.839 184.802 424.628 184.787 428.328 184.117C430.448 183.735 433.727 182.917 435.307 184.916C437.179 187.278 434.896 188.816 432.736 189.218C425 190.657 416.604 190.171 408.768 190.324C404.137 190.414 399.481 190.245 394.859 190.488C391.749 190.657 388.42 190.905 386.483 193.674C385.532 195.038 385.101 196.65 384.428 198.164C383.586 200.019 382.347 201.061 381.094 202.575C379.019 205.08 380.302 206.852 383.076 207.368C391.179 208.856 399.342 209.992 407.416 211.674C411.977 212.622 416.534 213.609 421.126 214.393C423.355 214.78 425.936 214.597 428.061 215.42C430.186 216.244 430.691 218.69 428.383 219.757C426.248 220.749 423.355 219.757 421.186 219.355C412.27 217.723 403.354 216.547 394.513 214.592C390.094 213.599 385.676 212.607 381.188 211.997C377.637 211.501 373.699 210.508 371.074 213.51C370.024 214.711 369.142 215.991 367.973 217.087C366.804 218.184 365.497 219.117 364.674 220.466C362.693 223.652 363.614 228.846 363.342 232.468C362.693 241.136 358.884 249.085 354.307 256.339C353.208 258.08 352.108 260.005 350.736 261.544C349.527 262.898 347.824 263.682 346.773 265.215C344.995 267.865 345.396 271.263 346.278 274.146C348.547 281.375 353.708 286.104 358.522 291.646C361.083 294.623 363.396 297.788 364.848 301.455C365.526 303.162 367.889 310.098 363.758 309.22C360.925 308.615 359.246 304.685 356.932 303.177C354.54 301.619 351.172 301.867 352.653 305.459C354.169 309.131 357.155 312.872 359.672 315.908C362.364 319.142 364.855 322.539 367.131 326.079C371.825 333.424 375.649 341.292 378.524 349.523C381.322 357.491 384.106 366.03 384.254 374.55C384.299 377.328 384.537 383.064 380.787 383.724C377.384 384.319 374.705 378.385 373.08 376.152C368.018 369.206 361.371 364.775 353.441 361.833C349.438 360.344 345.604 358.533 341.35 357.864C338.873 357.462 334.658 356.549 332.691 358.613C330.25 361.183 333.722 363.932 335.247 365.792C337.533 368.654 339.126 372.006 339.903 375.587C341.616 384.221 340.987 393.158 338.081 401.466C337.12 404.151 331.859 417.984 327.124 415.761C324.539 414.545 325.252 410.353 325.197 408.095C325.163 406.711 325.093 405.118 324.068 404.051C322.79 402.732 321.096 403.188 320.308 404.726C319.521 406.264 319.318 408.001 318.55 409.534C317.663 411.275 316.569 412.888 315.529 414.555C314.315 416.54 313.23 420.797 310.972 421.859C307.906 423.298 306.9 419.437 307.034 417.264C307.247 413.791 307.638 411.067 306.756 407.554C306.326 405.838 305.86 401.01 303.205 401.531C301.194 401.923 300.233 405.302 299.659 406.909C298.464 410.036 296.908 413.011 295.022 415.776C293.432 418.177 292.006 421.08 290.069 423.218C288.132 425.357 285.78 425.069 284.744 422.285C283.783 419.685 284.249 416.689 283.719 413.989C283.278 411.851 282.644 409.762 282.233 407.619C281.941 406.061 281.817 403.888 280.376 402.875C278.137 401.313 276.502 404.815 275.66 406.403C274.258 409.058 266.036 424.186 262.529 420.588C260.449 418.45 261.539 413.146 261.539 410.511C261.447 406.435 260.65 402.406 259.181 398.603C257.16 393.642 252.999 397.537 250.76 399.933C248.418 402.414 245.451 406.091 243.519 401.198C242.176 397.815 242.256 394.252 242.033 390.67C241.76 386.348 240.225 382.468 238.135 378.727C233.917 371.225 228.694 364.335 222.611 358.251C216.667 352.366 209.872 347.3 203.294 342.19C196.716 337.079 190.019 332.058 183.778 326.506C177.537 320.954 172.148 314.568 166.581 308.302C160.852 301.778 155.701 294.768 151.186 287.349C149.67 284.893 148.665 281.817 146.545 279.792C143.92 277.282 140.859 278.8 138.431 280.815C135.465 283.363 132.735 286.174 130.274 289.215C127.619 292.355 124.666 295.332 122.581 298.91C120.387 302.685 119.287 307.002 118.079 311.17C116.87 315.338 115.602 319.634 115.052 324.01C114.451 328.302 114.752 332.672 115.934 336.841C116.464 338.608 120.734 343.787 116.865 344.497C114.334 344.968 112.288 341.475 111.119 339.754C109.089 336.777 106.984 333.854 105.22 330.689C103.246 327.056 101.466 323.321 99.8856 319.5C99.3556 318.26 96.9979 311.185 94.655 314.196C93.8427 315.238 94.5757 316.995 93.5257 317.992C92.6836 318.796 91.6682 318.488 90.8063 317.863C88.1267 315.923 87.0914 310.713 86.076 307.746C83.2295 299.286 81.7057 290.436 81.5587 281.509C81.4794 278.17 82.3562 274.469 81.4993 271.204C80.6275 267.85 76.7789 267.85 75.174 264.947C73.1927 261.37 73.1531 257.475 73.1432 253.496C73.1432 248.901 73.1432 244.302 73.4305 239.707C73.9258 230.717 75.3672 221.846 79.201 213.624C80.4591 210.925 83.1239 207.06 81.7222 203.974C80.3204 200.888 75.5158 200.029 72.7073 198.645C68.7051 196.66 64.906 196.581 60.5323 196.348C56.382 196.171 52.394 194.682 49.1399 192.096C44.9148 188.762 37.5346 180.868 42.8593 175.449C45.2319 173.028 49.2142 172.512 51.9831 170.547C55.5494 168.017 57.2037 164.673 59.72 161.264C62.2467 157.958 64.2837 154.303 65.7679 150.413C67.3628 146.211 68.7893 141.944 70.4239 137.761C73.4612 130.202 77.917 123.297 83.5499 117.418C89.1817 111.653 97.0474 109.48 102.793 103.858C109.183 97.5917 114.186 89.7821 119.426 82.5728C124.875 75.0957 130.66 67.936 136.515 60.7764C141.468 54.7332 149.507 50.1387 156.778 47.514C165.045 44.537 173.966 45.0332 182.599 44.8843C191.812 44.7156 200.431 41.7536 209.312 39.6449C227.144 35.4076 244.975 33.9688 263.257 35.745C271.465 36.5438 280.133 38.598 286.924 43.505C292.263 47.3551 297.207 51.7262 301.684 56.5541C305.905 61.1188 309.387 66.4029 314.389 70.1985C317.644 72.6794 321.215 74.664 324.722 76.7826C332.28 81.2828 339.581 85.4903 346.021 91.5782C349.196 94.5998 352.613 97.5321 355.471 100.851C357.72 103.461 359.191 106.805 362.029 108.864C366.388 112.045 373.09 114.03 373.887 120.251C374.061 121.825 373.783 123.416 373.085 124.836C372.505 126.171 371.653 127.595 372.431 129.033C373.209 130.472 375.19 130.84 375.992 132.343C376.983 134.208 375.992 136.382 376.087 138.351C376.285 141.735 378.95 144.365 378.335 147.888C377.721 151.41 375.002 154.164 376.939 157.811C378.226 160.232 380.213 163.581 382.981 164.464C386.642 165.63 391.689 164.013 395.394 163.566C402.537 162.708 409.759 161.83 416.931 161.254C418.516 161.125 421.389 160.852 422.28 162.564C424.148 166.097 418.867 166.479 416.866 166.697C408.565 167.61 400.303 168.186 391.962 168.29C388.99 168.335 385.413 168.464 382.991 170.453C379.801 173.078 382.437 176.596 384.056 179.305C385.755 182.143 387.36 185.045 390.862 185.725C395.057 186.534 399.699 185.849 403.943 185.76C405.771 185.705 407.614 185.611 409.451 185.497Z" fill="white"/>
<path d="M409.451 185.497C411.997 185.338 414.543 185.145 417.084 185.001C420.839 184.802 424.628 184.787 428.328 184.117C430.448 183.735 433.727 182.917 435.307 184.916C437.179 187.278 434.896 188.816 432.736 189.218C425 190.657 416.604 190.171 408.768 190.324C404.137 190.414 399.481 190.245 394.859 190.488C391.749 190.657 388.42 190.905 386.483 193.674C385.532 195.038 385.101 196.65 384.428 198.164C383.586 200.019 382.347 201.061 381.094 202.575C379.019 205.08 380.302 206.852 383.076 207.368C391.179 208.856 399.342 209.992 407.416 211.674C411.978 212.622 416.534 213.609 421.126 214.393C423.355 214.78 425.936 214.597 428.061 215.42C430.186 216.244 430.691 218.69 428.383 219.757C426.248 220.749 423.355 219.757 421.186 219.355C412.27 217.723 403.354 216.547 394.513 214.592C390.094 213.599 385.676 212.607 381.188 211.997C377.637 211.501 373.699 210.508 371.074 213.51C370.024 214.711 369.142 215.991 367.973 217.087C366.804 218.184 365.497 219.117 364.674 220.466C362.693 223.652 363.614 228.846 363.342 232.468C362.693 241.136 358.884 249.085 354.307 256.339C353.208 258.08 352.108 260.005 350.736 261.544C349.527 262.898 347.824 263.682 346.773 265.215C344.995 267.865 345.396 271.263 346.278 274.146C348.547 281.375 353.708 286.104 358.522 291.646C361.083 294.623 363.396 297.788 364.848 301.455C365.526 303.162 367.889 310.098 363.758 309.22C360.925 308.615 359.246 304.685 356.933 303.177C354.54 301.619 351.172 301.867 352.653 305.459C354.169 309.131 357.155 312.872 359.672 315.908C362.364 319.142 364.855 322.539 367.131 326.079C371.825 333.424 375.649 341.292 378.524 349.523C381.322 357.491 384.106 366.03 384.254 374.55C384.299 377.328 384.537 383.064 380.787 383.724C377.384 384.319 374.705 378.385 373.08 376.152C368.018 369.206 361.371 364.775 353.441 361.833C349.438 360.344 345.605 358.533 341.35 357.864C338.873 357.462 334.658 356.549 332.691 358.613C330.25 361.183 333.722 363.932 335.247 365.792C337.533 368.654 339.126 372.006 339.903 375.587C341.616 384.221 340.987 393.158 338.081 401.466C337.12 404.151 331.859 417.984 327.124 415.761C324.539 414.545 325.252 410.353 325.197 408.095C325.163 406.711 325.093 405.118 324.068 404.051C322.79 402.732 321.096 403.188 320.308 404.726C319.521 406.264 319.318 408.001 318.55 409.534C317.663 411.275 316.569 412.888 315.529 414.555C314.315 416.54 313.23 420.797 310.972 421.859C307.906 423.298 306.9 419.437 307.034 417.264C307.247 413.791 307.638 411.067 306.757 407.554C306.326 405.838 305.86 401.01 303.205 401.531C301.194 401.923 300.233 405.302 299.659 406.909C298.464 410.036 296.908 413.011 295.022 415.776C293.432 418.177 292.006 421.08 290.069 423.218C288.132 425.357 285.78 425.069 284.744 422.285C283.783 419.685 284.249 416.689 283.719 413.99C283.278 411.851 282.644 409.762 282.233 407.619C281.941 406.061 281.817 403.888 280.376 402.875C278.137 401.313 276.502 404.815 275.66 406.403C274.258 409.058 266.036 424.186 262.529 420.588C260.449 418.45 261.539 413.146 261.539 410.511C261.447 406.435 260.65 402.406 259.181 398.604C257.16 393.642 252.999 397.537 250.76 399.933C248.418 402.414 245.451 406.091 243.519 401.198C242.176 397.815 242.256 394.252 242.033 390.67C241.76 386.348 240.225 382.468 238.135 378.727C233.917 371.225 228.694 364.335 222.611 358.251C216.667 352.366 209.872 347.3 203.294 342.19C196.716 337.079 190.019 332.058 183.778 326.506C177.537 320.954 172.148 314.568 166.581 308.302C160.852 301.779 155.701 294.768 151.186 287.349C149.67 284.893 148.665 281.817 146.545 279.792C143.92 277.282 140.859 278.8 138.431 280.815C135.465 283.363 132.735 286.174 130.274 289.215C127.619 292.355 124.667 295.332 122.581 298.91C120.387 302.685 119.287 307.002 118.079 311.17C116.87 315.338 115.602 319.634 115.052 324.01C114.451 328.302 114.752 332.672 115.934 336.841C116.464 338.608 120.734 343.787 116.865 344.497C114.334 344.968 112.288 341.475 111.119 339.754C109.089 336.777 106.984 333.854 105.22 330.689C103.246 327.056 101.466 323.321 99.8856 319.5C99.3556 318.26 96.9979 311.185 94.655 314.196C93.8427 315.238 94.5758 316.995 93.5257 317.992C92.6836 318.796 91.6682 318.488 90.8064 317.863C88.1267 315.923 87.0914 310.713 86.076 307.746C83.2295 299.286 81.7057 290.436 81.5587 281.509C81.4795 278.17 82.3562 274.469 81.4993 271.204C80.6275 267.85 76.7789 267.85 75.174 264.947C73.1927 261.37 73.1531 257.475 73.1432 253.496C73.1432 248.901 73.1432 244.302 73.4305 239.707C73.9258 230.717 75.3672 221.846 79.201 213.624C80.4591 210.925 83.1239 207.06 81.7222 203.974C80.3204 200.888 75.5158 200.029 72.7073 198.645C68.7051 196.66 64.906 196.581 60.5323 196.348C56.382 196.171 52.394 194.682 49.1399 192.096C44.9149 188.762 37.5346 180.868 42.8593 175.449C45.2319 173.028 49.2142 172.512 51.9831 170.547C55.5494 168.017 57.2038 164.673 59.72 161.264C62.2468 157.958 64.2837 154.303 65.7679 150.413C67.3628 146.211 68.7893 141.944 70.4239 137.761C73.4612 130.202 77.917 123.297 83.5499 117.418C89.1817 111.653 97.0474 109.48 102.793 103.858C109.183 97.5917 114.186 89.7821 119.426 82.5728C124.875 75.0957 130.66 67.936 136.515 60.7764C141.468 54.7332 149.507 50.1387 156.778 47.514C165.045 44.537 173.966 45.0332 182.599 44.8843C191.812 44.7156 200.431 41.7536 209.312 39.6449C227.143 35.4076 244.975 33.9688 263.257 35.745C271.465 36.5438 280.133 38.598 286.924 43.505C292.263 47.3551 297.207 51.7262 301.684 56.5541C305.905 61.1188 309.387 66.4029 314.389 70.1985C317.644 72.6794 321.215 74.664 324.722 76.7826C332.28 81.2828 339.581 85.4903 346.021 91.5782C349.196 94.5998 352.613 97.5321 355.471 100.851C357.72 103.461 359.191 106.805 362.029 108.864C366.388 112.045 373.09 114.03 373.887 120.251C374.061 121.825 373.783 123.416 373.085 124.836C372.505 126.171 371.653 127.595 372.431 129.033C373.209 130.472 375.19 130.84 375.992 132.343C376.983 134.208 375.992 136.382 376.087 138.351C376.285 141.735 378.95 144.365 378.335 147.888C377.721 151.41 375.002 154.164 376.939 157.811C378.226 160.232 380.213 163.581 382.981 164.464C386.642 165.63 391.689 164.013 395.394 163.566C402.537 162.708 409.759 161.83 416.931 161.254C418.516 161.125 421.389 160.852 422.28 162.564C424.148 166.097 418.867 166.479 416.866 166.697C408.565 167.61 400.303 168.186 391.962 168.29C388.99 168.335 385.413 168.464 382.991 170.453C379.801 173.078 382.437 176.596 384.056 179.305C385.755 182.143 387.36 185.045 390.862 185.725C395.057 186.534 399.699 185.849 403.943 185.76C405.771 185.705 407.614 185.611 409.451 185.497ZM251.91 199.166C255.451 198.982 258.998 199.027 262.549 199.037C264.53 199.037 265.982 200.099 266.016 201.493C266.051 202.887 264.719 204.118 262.821 204.366C262.658 204.391 262.492 204.401 262.326 204.396C257.784 204.138 253.232 204.396 248.69 204.396C244.282 204.396 240.141 203.671 235.782 203.22C232.724 202.934 229.645 202.944 226.589 203.249C225.887 203.303 225.214 203.549 224.643 203.962C224.072 204.375 223.627 204.937 223.355 205.588C223.083 206.238 222.996 206.951 223.104 207.648C223.211 208.344 223.509 208.998 223.964 209.536C226.604 212.553 227.243 216.765 230.214 219.568C233.256 222.441 237.342 223.706 241.443 223.994C250.527 224.605 259.635 223.23 268.136 219.965C271.836 218.571 275.482 217.038 279.197 215.703C282.605 214.478 286.012 213.059 289.544 212.394C294.061 211.545 298.722 211.506 303.284 210.841C306.514 210.345 310.085 209.928 311.982 206.871C315.177 201.657 318.084 196.283 317.886 189.799C317.777 186.444 316.044 184.475 312.73 184.063C310.556 183.795 308.242 183.418 306.355 182.411C303.22 180.744 300.005 179.101 297.306 176.759C295.136 174.879 293.343 172.636 291.426 170.498C289.712 168.573 287.697 166.767 286.627 164.37C284.809 160.297 281.772 158.823 277.859 158.114C276.652 157.887 275.467 157.555 274.318 157.121C270.212 155.588 265.897 154.68 261.851 152.983C260.058 152.229 258.428 151.113 256.541 150.612C254.52 150.076 252.41 150.056 250.364 149.709C246.669 149.083 243.004 149.257 239.284 149.54C235.391 149.833 231.606 150.706 228.273 152.859C225.979 154.348 226.103 156.308 228.491 157.603C229.152 157.941 229.857 158.185 230.586 158.327C234.702 159.19 238.833 159.969 242.944 160.857C250.443 162.47 257.928 164.137 265.417 165.819C265.897 165.925 266.361 166.092 266.799 166.315C267.302 166.524 267.722 166.895 267.991 167.369C268.26 167.844 268.364 168.395 268.285 168.935C268.136 170.245 267.2 170.83 266.051 170.82C264.576 170.817 263.105 170.66 261.662 170.354C254.173 168.682 246.709 166.92 239.224 165.224C234.653 164.187 230.056 163.239 225.489 162.177C223.354 161.681 222.265 161.959 221.15 163.968C219.714 166.563 218.416 169.233 217.148 171.907C215.731 174.919 216.593 176.869 219.862 177.538C223.131 178.208 226.336 178.66 229.595 179.027C233.033 179.414 236.495 179.558 239.943 179.88C245.277 180.376 250.612 180.902 255.937 181.493C258.478 181.776 261.009 182.182 263.52 182.639C264.719 182.857 265.704 183.502 265.788 184.901C265.863 186.062 264.709 187.412 263.312 187.601C262.414 187.644 261.514 187.579 260.632 187.407C258.274 187.144 255.917 186.836 253.559 186.588C252.331 186.459 251.082 186.504 249.864 186.325C244.386 185.532 238.942 184.45 233.404 184.122C227.839 183.799 222.304 183.079 216.841 181.969C214.265 181.448 212.423 183.522 213.334 186.033C214.166 188.33 215.9 190.21 217.257 192.2C219.095 194.889 219.659 197.246 223.374 197.588C226.698 197.891 229.987 197.658 233.31 197.752C235.93 197.826 238.154 198.69 240.676 199.111C244.306 199.712 248.006 199.384 251.657 199.181L251.91 199.166ZM318.486 240.189C318.709 238.001 318.768 235.694 317.738 234.101C316.281 231.833 312.874 233.069 310.689 232.612C307.653 231.962 306.231 228.971 302.943 230.132C299.654 231.293 297.742 233.064 295.017 229.883C293.393 227.993 291.198 225.602 288.702 227.676C286.329 229.66 285.398 233.808 284.333 236.582C283.08 239.836 282.089 243.032 282.025 246.559C281.961 250.226 282.808 253.893 283.397 257.475C284.011 261.206 284.482 264.957 284.977 268.708C285.473 272.459 285.968 276.116 286.409 279.822C286.691 282.065 288.36 287.627 285.913 289.249C282.56 291.437 282.515 284.784 282.446 283.191C282.357 279.566 282.001 275.952 281.381 272.38C280.782 268.996 279.969 265.706 279.449 262.318C278.93 259.334 277.732 256.511 275.947 254.066C271.985 248.385 267.527 243.439 264.619 237.023C263.9 235.422 263.252 233.792 262.678 232.131C262.331 231.139 262.069 229.764 261.271 228.995C259.612 227.393 255.961 228.698 254.044 228.995C251.162 229.492 247.145 229.387 244.826 231.402C243.737 232.349 243.123 233.719 242.132 234.761C241.141 235.803 239.903 236.473 238.63 237.242C235.391 239.226 235.549 241.618 237.733 244.391C239.759 246.961 242.048 249.08 243.633 252.007C247.1 258.428 248.586 265.314 248.725 272.563C248.863 279.673 250.751 286.262 253.029 292.956C254.02 295.868 255.233 298.746 257.15 301.182C259.067 303.618 261.251 305.151 261.692 308.421C262.004 310.783 260.796 315.397 263.109 317.024C265.422 318.652 268.988 316.166 270.563 314.598C275.17 310.009 280.296 305.876 286.448 303.583C289.596 302.384 292.943 301.796 296.31 301.852C298 301.904 299.68 302.122 301.328 302.502C302.432 302.755 303.75 303.271 304.879 302.829C307.257 301.892 306.608 298.215 306.588 296.245C306.599 292.526 306.8 288.81 307.192 285.111C307.549 281.345 307.95 277.589 308.337 273.829C308.688 270.415 310.486 267.101 311.739 263.905C314.375 257.217 317.738 251.114 318.099 243.806C318.159 242.774 318.352 241.504 318.486 240.189ZM174.134 201.706C170.746 201.821 167.353 201.945 163.99 201.736C162.474 201.642 159.948 201.171 160.275 199.097C160.627 196.859 163.584 196.923 165.228 196.923C176.789 196.923 188.315 197.171 199.866 197.678C202.298 197.782 210.654 199.613 211.11 195.747C211.348 193.718 209.624 191.342 208.846 189.59C207.856 187.362 207.232 184.534 205.756 182.584C204.279 180.634 202.026 180.6 199.787 180.347C196.909 180.014 194.031 179.712 191.153 179.419C185.423 178.848 179.682 178.426 173.961 177.796C168.24 177.166 162.395 176.481 156.625 175.683C154.406 175.375 150.74 175.405 148.818 174.194C147.283 173.227 147.209 170.657 148.843 169.729C150.874 168.607 154.475 169.793 156.605 170.121C159.488 170.562 162.365 170.979 165.258 171.351C171.034 172.095 176.819 172.864 182.619 173.415C188.419 173.966 194.115 174.279 199.851 175.112C201.981 175.42 204.636 176.174 206.741 175.355C208.589 174.641 210 172.229 211.08 170.657C213.096 167.724 218.218 161.631 212.824 159.324C210.466 158.332 207.454 158.138 204.953 157.583C202.1 156.951 199.249 156.321 196.399 155.692C190.891 154.477 185.115 153.827 179.687 152.383C177.052 151.683 174.58 150.676 171.89 150.115C169.037 149.52 166.184 148.916 163.331 148.304C161.479 147.903 157.437 147.808 156.783 145.501C156.01 142.797 159.919 142.782 161.543 142.936C166.789 143.432 171.905 145.372 177.062 146.409C188.33 148.696 199.529 151.663 210.842 153.688C213.042 154.08 215.692 154.908 217.856 154.015C219.719 153.241 222.161 150.835 221.036 148.657C220.046 146.776 217.272 146.429 215.454 145.963C212.665 145.248 209.857 144.613 207.068 143.903C201.506 142.484 195.963 141.056 190.366 139.775C179.806 137.354 168.572 133.281 157.6 134.015C154.396 134.233 148.625 134.591 147.372 138.346C146.035 142.38 150.032 146.484 150.473 150.428C151.087 155.886 147.065 158.486 143.201 161.448C141.007 163.13 139.734 164.579 139.021 167.337C138.337 169.802 138.511 172.427 139.516 174.78C140.628 177.142 142.032 179.354 143.697 181.364C145.158 183.234 147.238 184.916 148.095 187.179C148.927 189.367 148.318 191.421 147.719 193.569C147.001 196.149 146.342 198.987 146.317 201.677C146.272 206.757 150.854 208.29 154.896 209.819C160.24 211.843 165.298 212.146 170.954 212.002C176.611 211.858 182.312 211.803 187.969 211.084C193.516 210.374 199.049 209.481 204.661 210.017C207.316 210.27 209.614 211.148 212.135 211.873C213.7 212.319 216.89 213.451 218.079 211.833C220.372 208.707 216.821 204.152 213.834 203.374C211.412 202.733 208.574 203.16 206.092 203.19C203.234 203.225 200.376 203.254 197.518 203.19C191.812 203.076 186.235 201.662 180.524 201.607C178.404 201.563 176.269 201.632 174.134 201.706ZM201.194 214.393C199.61 214.255 198.015 214.36 196.463 214.706C192.912 215.594 194.482 217.772 196.032 219.732C198.321 222.595 195.819 223.701 192.847 223.418C188.598 222.982 184.09 223.696 179.969 224.753C176.903 225.532 171.355 227.73 170.063 230.896C167.239 237.797 178.696 232.602 178.31 236.408C178.156 237.941 175.744 238.775 174.644 239.35C172.715 240.375 170.945 241.676 169.389 243.21C166.724 245.867 164.801 249.177 163.812 252.811C163.158 255.034 162.692 258.418 165.729 258.919C168.542 259.385 170.385 256.438 172.846 255.674C174.1 255.282 175.259 255.515 176.012 256.666C177.176 258.472 175.704 260.521 175.115 262.278C173.633 266.92 173.177 271.83 173.778 276.667C174.03 278.964 174.892 285.275 178.027 281.197C179.513 279.276 181.713 272.598 184.932 276.324C186.161 277.748 185.967 279.946 185.789 281.678C185.537 284.159 185.254 286.421 185.611 288.897C186.18 292.866 186.81 297.188 187.944 301.048C188.637 303.4 190.42 307.538 192.991 304.551C194.601 302.685 195.166 299.232 198.177 299.187C202.61 299.123 202.536 305.712 203.011 308.729C203.68 312.941 205.057 317.56 207.355 321.207C209.426 324.487 211.59 322.75 213.017 320.155C214.503 317.471 216.776 315.447 218.565 319.213C220.496 323.286 221.002 328.526 222.032 332.907C222.458 334.693 222.527 336.935 223.547 338.503C224.568 340.071 226.49 340.716 227.55 338.826C228.54 337.025 227.792 334.063 229.367 332.569C231.621 330.426 234.227 334.45 234.999 336.147C235.99 338.364 236.639 343.177 238.883 344.532C242.533 346.735 243.43 339.248 242.538 337.218C240.918 333.522 236.703 330.54 233.974 327.697C230.507 324.115 227.505 320.254 224.38 316.409C212.621 301.951 201.1 286.992 195.076 269.11C193.516 264.466 192.104 259.658 192.055 254.721C192.01 250.077 193.244 245.324 194.759 240.968C197.186 233.957 201.768 226.415 208.569 223.041C210.258 222.203 214.082 220.943 213.562 218.437C212.982 215.668 208.43 215.276 206.251 214.964C204.666 214.77 202.922 214.497 201.194 214.393ZM368.682 190.955C367.235 191.024 365.789 191.118 364.352 191.237C362.411 191.396 359.85 191.962 358.047 190.94C355.927 189.729 357.096 187.655 358.889 186.876C361.163 185.884 363.961 186.315 366.368 186.301C369.147 186.301 371.921 186.211 374.7 186.236C376.527 186.236 379.281 186.529 379.821 184.222C380.341 181.999 378.573 178.764 377.875 176.695C377.231 174.814 376.849 172.388 374.903 171.386C371.802 169.788 367.711 172.651 364.783 170.924C362.906 169.813 363.758 167.551 365.412 166.757C367.146 165.928 369.236 166.3 371.084 166.037C375.195 165.452 374.551 162.455 372.005 160.083C369.558 157.811 366.091 156.476 362.837 155.925C358.508 155.196 353.579 156.278 351.187 160.267C348.938 164.018 348.968 168.657 346.556 172.358C343.92 176.402 339.423 179.989 335.104 182.078C331.721 183.716 325.108 183.031 324.657 187.893C324.311 191.669 326.639 195.678 328.035 199.022C329.105 201.548 330.18 204.068 331.404 206.524C332.449 208.638 333.385 211.019 335.629 212.032C340.48 214.13 345.667 215.344 350.944 215.619C353.916 215.773 363.778 216.487 364.645 212.364C365.437 208.573 356.224 208.102 354.074 207.591C352.643 207.249 348.913 206.648 349.998 204.356C350.989 202.282 354.392 202.679 356.155 202.957C360.613 203.666 366.126 206.078 370.415 203.84C373.739 202.103 377.35 198.427 379.564 195.405C383.383 190.215 374.913 190.746 372.134 190.806C370.995 190.855 369.836 190.9 368.682 190.955ZM197.796 255.084C197.89 261.39 199.638 267.572 201.783 273.724C205.052 283.117 212.016 290.981 217.46 299.143C223.15 307.688 229.492 315.778 236.431 323.341C237.833 324.869 243.737 333.041 245.906 330.917C247.12 329.731 247.021 326.903 246.575 325.42C245.926 323.266 244.188 321.852 242.612 320.349C238.798 316.662 235.148 312.817 231.438 309.026C228.025 305.553 225.202 301.177 222.463 297.143C219.639 292.99 217.643 288.629 215.375 284.179C213.106 279.728 211.239 275.679 209.812 270.901C207.479 263.077 206.979 253.377 212.423 246.629C218.342 239.296 228.273 238.507 236.307 234.865C238.08 234.061 239.061 232.558 238.115 230.702C237.169 228.846 235.113 228.355 233.295 227.7C231.22 226.909 229.293 225.77 227.599 224.331C223.706 221.186 219.461 222.004 215.216 224.014C209.208 226.857 203.378 232.617 201.035 238.948C199.108 244.113 197.692 249.546 197.776 255.084H197.796ZM86.4327 278.488C86.3303 282.88 86.456 287.276 86.8091 291.656C87.0072 293.715 86.923 302.219 90.1823 302.353C92.2824 302.437 92.8025 298.061 93.1195 296.642C93.3672 295.551 93.4662 294.385 94.447 293.665C96.4926 292.177 98.048 294.365 98.5482 296.146C99.9995 301.371 100.609 306.898 102.015 312.167C102.828 315.214 103.407 318.384 104.492 321.346C105.136 323.122 106.889 327.116 109.262 324.913C111.352 322.969 111.293 318.463 111.585 315.883C112.011 312.063 114.909 308.138 114.235 304.318C113.779 301.723 111.783 300.492 110.149 298.686C108.425 296.791 107.444 294.29 106.186 292.077C100.522 282.048 96.3105 271.263 93.6792 260.045C90.9946 248.48 89.4492 236.726 88.0078 224.967C87.7687 223.548 87.6132 222.117 87.5422 220.68C87.5422 219.057 88.5923 216.14 86.6803 215.093C85.234 214.304 83.7084 215.877 83.1041 217.078C82.0441 219.231 81.5141 221.811 80.895 224.118C79.4018 229.907 78.445 235.821 78.037 241.786C77.7299 245.681 77.3534 249.695 77.4525 253.61C77.502 255.709 77.9478 259.147 80.8009 257.634C82.3413 256.825 83.119 254.716 84.8427 254.27C86.9874 253.714 87.8642 255.679 87.879 257.445C87.9236 262.977 86.4773 268.515 86.4624 274.092C86.4574 275.57 86.4426 277.029 86.4327 278.488ZM182.475 109.758C181.361 109.758 180.246 109.713 179.127 109.758C177.701 109.792 174.223 109.519 173.357 110.993C171.291 114.506 180.786 115.458 182.366 115.568C191.52 116.362 200.262 114.699 209.327 113.856C217.99 113.052 226.856 113.628 235.148 116.411C243.326 119.155 250.646 124.196 257.17 129.748C258.443 130.83 260.667 132.303 261.232 133.926C261.841 135.667 260.29 136.808 259.181 137.895C257.635 139.413 251.677 142.673 254.782 145.149C256.105 146.206 258.666 146.766 260.285 147.183C262.212 147.679 264.535 148.146 266.526 147.843C270.276 147.272 271.93 143.179 272.351 139.84C273.728 128.89 265.011 121.978 257.586 115.597C251.424 110.308 244.574 107.044 236.782 104.885C228.298 102.533 219.446 103.074 210.808 104.275C202.169 105.476 194.205 109.42 185.477 109.753C184.477 109.787 183.476 109.772 182.475 109.758ZM79.3545 170.121C78.1047 170.032 76.8488 170.082 75.6099 170.27C67.1201 171.599 61.6121 178.551 53.6127 180.897C52.1267 181.329 49.4916 181.061 48.4366 182.272C47.1636 183.725 48.6644 185.447 49.769 186.425C53.2362 189.491 57.3326 190.746 61.8647 190.994C66.2285 191.237 70.4487 191.347 74.4806 193.267C78.3936 195.137 81.3259 197.841 85.9819 197.554C90.5537 197.271 92.5994 193.356 94.6154 189.744C95.9329 187.382 97.092 184.951 98.1916 182.49C99.0287 180.629 101.406 177.528 100.668 175.355C100.039 173.49 97.201 173.519 95.6357 173.177C93.2037 172.656 90.7618 172.185 88.3198 171.713C85.3331 171.123 82.3611 170.309 79.3545 170.121ZM352.594 296.498C354.486 296.374 355.595 295.556 354.53 292.975C353.411 290.252 350.84 288.202 348.884 286.089C347.013 284.002 345.522 281.602 344.48 278.999C343.846 277.51 343.38 274.533 341.34 274.305C339.963 274.166 338.616 275.53 337.749 276.409C335.5 278.686 333.761 281.504 332.166 284.258C329.061 289.607 327.991 294.975 326.624 300.914C325.965 303.772 325.519 306.694 326.183 309.597C326.881 312.658 328.66 315.551 329.972 318.404C331.201 321.083 331.879 324.09 333.821 326.382C335.589 328.466 338.774 330.59 341.459 331.19C344.143 331.79 344.104 328.153 343.866 326.303C343.499 323.47 341.667 320.81 340.314 318.364C339.448 316.796 336.783 313.378 339.324 312.053C341.652 310.832 344.971 314.256 346.754 315.382C348.046 316.191 350.716 317.253 351.816 315.65C353.475 313.259 349.929 309.503 348.973 307.508C347.72 304.903 346.546 302.318 344.515 300.195C343.381 298.994 340.711 296.622 343.712 295.843C345.496 295.377 349.859 296.672 352.594 296.498ZM263.243 325.891C263.265 327.067 263.576 328.219 264.149 329.245C265.907 332.162 270.885 330.054 273.525 329.711C277.904 329.146 281.668 326.293 286.146 327.613C288.553 328.322 289.955 329.066 292.526 328.734C294.837 328.493 297.172 328.707 299.401 329.364C301.947 330.019 304.201 329.319 306.677 328.605C308.584 328.049 311.566 327.796 313.082 326.372C315.836 323.787 312.557 318.473 311.051 316.072C308.53 312.048 304.978 308.327 300.416 306.719C298.232 305.95 296.38 306.372 294.16 306.501C291.941 306.63 289.906 306.635 287.761 307.32C279.747 309.87 275.289 317.962 267.705 321.396C266.17 322.09 264.194 322.328 263.51 324.09C263.303 324.667 263.212 325.279 263.243 325.891ZM328.09 353.036V352.907C327.421 347.042 318.679 344.77 313.924 344.626C308.015 344.447 302.071 344.75 296.157 344.844C290.109 344.934 284.071 344.81 278.023 344.686C272.381 344.566 266.452 345.286 260.905 344.065C259.364 343.728 255.763 342.393 255.689 345.127C255.62 347.732 258.775 349.181 260.573 350.327C264.996 353.145 269.568 355.616 274.779 356.588C280.182 357.581 285.458 356.698 290.748 355.527C295.996 354.392 301.44 354.533 306.623 355.938C311.477 357.224 316.331 360.93 321.443 360.786C325.316 360.702 328.452 356.921 328.09 353.036ZM305.553 148.27C304.379 148.27 303.185 148.339 301.932 148.389C300.679 148.438 299.148 148.27 297.875 148.657C295.889 149.297 294.123 150.487 292.783 152.09C291.397 153.683 289.836 155.742 289.955 157.965C290.094 160.624 292.273 161.492 294.606 160.753C297.395 159.875 299.559 158.615 302.561 158.272C305.482 157.963 308.43 157.996 311.343 158.372C316.96 159.076 322.349 161.994 327.966 159.86C330.809 158.769 333.127 156.972 336.198 156.437C337.59 156.193 339.517 156.585 340.736 155.722C342.301 154.611 341.285 152.77 340.131 151.753C337.422 149.371 332.701 148.776 329.234 148.925C326.658 149.019 324.306 150.086 321.755 150.324C318.575 150.622 315.464 149.798 312.413 148.994C310.17 148.439 307.862 148.195 305.553 148.27ZM99.7519 168.657C101.428 168.698 103.1 168.47 104.705 167.982C106.85 167.322 113.16 165.328 112.501 162.132C111.843 158.937 105.621 160.098 103.427 159.969C99.5389 159.751 95.8042 158.138 92.2032 156.754C88.7359 155.414 85.026 153.251 81.2467 152.993C77.715 152.745 73.7029 154.854 70.8449 156.744C69.4441 157.679 68.2087 158.841 67.1894 160.183C66.283 161.339 64.7128 162.832 64.2175 164.201C63.747 165.467 63.9005 167.074 65.2082 167.521C66.8229 168.067 68.2197 166.97 69.6165 166.399C77.4178 163.204 84.8377 165.973 92.644 167.625C94.9754 168.193 97.3553 168.539 99.7519 168.657ZM334.995 108.175C331.032 108.234 327.644 110.879 324.593 113.92C323.479 115.022 323.459 116.59 324.34 118.068C324.814 118.932 325.214 119.835 325.534 120.767C326.678 123.744 328.788 124.791 331.592 123.248C336.362 120.579 341.498 119.924 346.818 119.428C352.009 118.932 356.363 120.966 360.459 123.645C361.97 124.637 363.362 125.416 365.145 125.536C366.388 125.625 367.711 125.937 368.409 124.508C368.772 123.85 368.944 123.103 368.906 122.352C368.869 121.601 368.623 120.875 368.196 120.256C367.102 118.588 365.642 117.192 363.928 116.174C362.214 115.156 360.291 114.543 358.305 114.382C356.599 114.237 354.935 113.778 353.396 113.027C347.828 110.095 341.914 108.611 334.995 108.175ZM308.416 130.338C301.224 130.423 293.888 131.524 286.85 132.12C283.878 132.373 276.735 131.623 277.171 136.372C277.547 140.43 284.001 138.535 286.537 138.237C291.208 137.687 295.82 136.868 300.525 136.645C305.404 136.416 310.11 136.972 314.944 137.538C317.649 137.855 320.393 138.059 323.077 138.426C325.554 138.763 325.896 139.974 327.406 141.686C328.754 143.209 333.444 144.415 334.945 142.579C337.625 139.294 330.066 134.144 327.773 133.152C325.925 132.363 324.053 132.259 322.106 131.941C319.828 131.569 317.649 130.874 315.345 130.631C313.043 130.399 310.729 130.301 308.416 130.338ZM353.49 221.999L352.45 222.054C349.443 222.178 347.591 222.987 347.061 226.207C346.818 227.666 346.882 229.159 346.407 230.578C345.931 231.997 345.04 233.183 344.52 234.547C343.331 237.708 344.921 240.799 345.917 243.791C346.615 245.88 347.457 255.595 351.722 252.379C354.273 250.459 355.248 246.252 356.318 243.409C358.022 238.869 360.39 234.24 360.365 229.273C360.365 227.219 359.949 224.411 358.275 222.992C356.947 221.895 355.13 221.915 353.465 221.999H353.49ZM279.687 97.0558C273.52 97.0161 267.032 98.8172 261.088 99.5019C259.265 99.7103 252.866 100.99 252.979 103.551C253.083 105.912 257.551 107.103 259.334 106.88C263.089 106.413 266.675 105.391 270.504 105.193C274.333 104.994 277.934 104.776 281.708 104.225C285.988 103.6 289.088 105.595 292.605 107.654C294.468 108.735 296.83 110.06 299.044 110.1C302.234 110.164 301.442 106.711 300.223 104.836C296.964 99.8046 289.395 98.3855 283.947 97.418C282.525 97.1724 281.085 97.0512 279.643 97.0558H279.687ZM296.756 115.071C294.468 115.071 292.179 115.071 289.861 115.136C285.854 115.22 282.065 116.252 278.122 116.803C276.101 117.091 270.197 116.624 270.95 120.276C271.703 123.928 277.676 122.34 280.083 122.033C287.875 121.04 295.637 120.237 303.497 120.862C307.289 121.124 310.964 122.284 314.221 124.246C316.643 125.64 321.428 126.558 321.091 122.261C320.779 118.262 315.677 117.408 312.596 116.565C308.931 115.573 305.196 114.828 301.382 114.977C299.787 115.037 298.247 115.062 296.711 115.071H296.756ZM218.991 127.436C218.743 133.687 219.486 134.794 225.197 137.047C225.425 137.141 225.653 137.24 225.885 137.329C230.492 139.086 234.534 137.969 237.58 134.104C238.284 133.198 238.776 132.145 239.021 131.024C239.267 129.902 239.259 128.74 238.998 127.622C238.738 126.504 238.231 125.458 237.515 124.562C236.799 123.665 235.892 122.94 234.861 122.439C231.75 120.887 228.446 120.306 225.078 120.003C221.219 119.661 219.169 121.591 218.991 125.461C218.961 126.111 218.991 126.786 218.991 127.436ZM266.967 228.926C267.636 230.861 268.206 232.836 268.983 234.726C270.304 237.918 271.696 241.079 273.159 244.208C273.438 244.818 273.913 245.318 274.508 245.627C275.103 245.936 275.784 246.037 276.443 245.914C278.038 245.716 278.553 244.51 278.751 243.111C278.82 242.615 278.845 242.119 278.88 241.623C279.068 237.985 280.038 234.431 281.723 231.203C282.961 228.876 284.17 226.529 285.319 224.158C285.889 222.987 286.007 221.751 284.947 220.729C284.006 219.816 282.897 219.801 281.738 220.283C277.646 221.99 273.56 223.716 269.454 225.398C267.889 226.058 267.111 227.15 266.967 228.926ZM345.976 142.971C346.51 142.957 347.04 142.881 347.556 142.742C349.77 142.162 350.682 140.222 351.39 138.227C352.608 134.779 354.213 131.346 351.311 128.304C349.285 126.181 345.892 124.598 342.92 124.757C339.948 124.915 333.643 126.354 335.203 130.457C335.941 132.388 337.59 133.683 339.061 134.997C340.532 136.312 340.646 137.582 341.043 139.374C341.587 141.825 343.668 143.025 345.976 142.971ZM120.605 282.804C120.501 285.156 120.976 286.773 122.755 287.667C124.439 288.495 125.568 287.289 126.643 286.282C128.322 284.709 129.843 282.953 131.596 281.469C134.216 279.252 137.045 277.272 139.645 275.019C140.391 274.307 140.836 273.336 140.888 272.305C140.888 270.365 140.304 268.525 138.327 267.572C136.47 266.674 134.999 267.726 133.508 268.599C133.299 268.733 133.104 268.885 132.924 269.055C130.12 271.432 127.173 273.665 124.562 276.24C122.651 278.155 120.253 279.996 120.625 282.804H120.605ZM330.472 333.274C330.284 332.13 330.032 330.997 329.72 329.88C329.224 328.139 326.52 318.498 323.691 321.073C323.567 321.193 323.455 321.324 323.355 321.465C322.364 322.8 322.488 325.638 322.092 327.25C321.513 329.305 320.786 331.315 319.917 333.264C319.308 334.752 317.822 337.04 318.114 338.722C318.406 340.404 320.923 341.366 322.295 342.125C323.781 342.944 325.698 344.244 327.476 343.902C331.319 343.167 331.191 337.456 330.492 333.274H330.472ZM290.847 395.597V395.552C289.608 395.552 288.37 395.527 287.137 395.552C284.244 395.632 283.283 396.867 283.982 399.7C285.007 403.843 287.152 407.683 287.335 412.064C287.375 412.309 287.466 412.542 287.602 412.749C288.593 414.62 290.079 414.768 291.515 413.196C295.022 409.326 296.335 404.414 297.742 399.611C298.524 396.946 297.172 395.641 294.309 395.597C293.155 395.587 292.001 395.597 290.847 395.597ZM265.382 391.662C262.41 391.558 261.553 392.957 262.222 395.388C263.074 398.465 263.738 401.595 264.451 404.706C264.689 405.748 264.818 406.82 265.041 407.867C265.308 409.117 265.689 410.308 267.235 410.482C268.637 410.64 269.28 409.693 269.865 408.641C271.024 406.552 272.342 404.543 273.332 402.379C274.133 400.586 274.737 398.711 275.135 396.788C275.551 394.848 274.902 393.766 272.966 393.255C270.261 392.54 267.497 392.099 265.382 391.662ZM328.288 272.772C328.288 268.763 326.064 265.667 323.335 265.047C319.704 264.228 316.43 265.806 314.979 269.11C314.585 270.014 314.254 270.944 313.988 271.894C313.111 275.004 313.953 276.587 317.02 277.51C318.59 278.006 320.195 278.339 321.794 278.716C324.643 279.381 325.698 278.994 327.005 276.419C327.529 275.239 327.958 274.02 328.288 272.772ZM212.878 123.834C211.972 121.819 210.63 120.232 209.069 119.864C206.761 119.329 202.902 119.939 200.649 120.718C192.932 123.397 205.077 131.524 207.811 133.375C209.04 134.208 210.734 135.285 212.17 134.328C214.706 132.616 214.498 127.51 212.844 123.834H212.878ZM233.944 289.056C229.13 288.996 226.514 292.415 228.233 296.875C229.016 298.91 230.353 300.77 231.666 302.537C233.068 304.427 234.454 304.645 236.327 303.172C238.107 301.725 239.744 300.11 241.216 298.349C241.711 297.763 241.746 296.662 241.78 295.789C241.874 292.504 237.486 288.743 233.91 289.031L233.944 289.056ZM337.962 167.327C335.926 167.585 333.811 167.575 331.864 168.151C327.694 169.391 323.731 171.049 322.84 176.124C322.344 178.933 323.384 180.094 326.138 179.597C331.229 178.669 336.001 176.462 340.007 173.182C341.632 171.877 342.316 170.309 341.726 168.95C340.963 167.188 339.453 167.263 337.927 167.312L337.962 167.327ZM218.287 279.52C218.461 281.807 220.055 284.188 221.066 286.039C222.884 289.368 224.345 288.604 227.416 286.883C229.843 285.518 232.82 283.697 232.344 280.477C231.869 277.257 228.927 274.429 225.707 274.186C223.384 274.012 220.011 274.836 218.797 277.034C218.383 277.793 218.205 278.658 218.287 279.52ZM257.794 338.33C258.111 338.285 258.424 338.215 258.73 338.121C262.5 337.005 261.207 333.209 260.33 330.371C259.518 327.786 259.017 325.117 258.21 322.527C257.883 321.48 256.992 317.565 255.565 317.461C253.822 317.317 252.449 321.996 252.157 323.276C251.732 325.405 251.451 327.56 251.315 329.726C251.152 331.453 250.597 333.517 250.934 335.244C251.474 338.002 255.194 338.727 257.794 338.33ZM244.886 303.39C243.803 303.274 242.713 303.526 241.79 304.104C239.12 305.742 239.893 308.57 240.799 311.051C241.825 313.928 245.094 321.723 248.863 317.278C251.236 314.474 251.934 310.5 250.131 307.21C249.037 305.226 247.055 303.618 244.886 303.39ZM312.319 179.483C312.675 179.52 313.035 179.497 313.384 179.414C318.337 178.203 312.21 171.242 310.194 169.828C307.46 167.918 304.131 167.868 300.946 167.521C299.767 167.387 298.4 166.945 297.791 168.295C297.182 169.644 298.43 170.964 299.277 171.872C301.59 174.422 305.107 176.149 308.104 177.772C309.273 178.422 310.853 179.379 312.319 179.483ZM335.901 394.064C335.901 390.59 334.579 389.544 331.864 390.238C330.824 390.5 329.789 390.771 328.759 391.052C325.826 391.841 324.717 393.136 325.494 396.063C326.272 398.991 327.614 401.764 328.962 404.498C329.289 405.153 330.646 405.669 331.438 405.58C332.053 405.515 332.781 404.468 333.058 403.714C333.855 401.556 334.47 399.328 335.119 397.115C335.48 395.914 335.743 394.714 335.901 394.064ZM333.271 226.827C333.392 227.961 333.594 229.086 333.875 230.191C334.544 232.176 336.352 232.672 338.155 232.994C339.7 233.287 340.532 232.424 341.424 231.337C343.172 229.214 343.445 226.683 343.519 224.148C343.589 221.821 341.35 219.831 338.616 219.444C336.446 219.137 335.039 220.005 334.212 222.456C333.811 223.893 333.497 225.352 333.271 226.827ZM316.554 292.846C318.039 292.91 319.514 292.567 320.819 291.854C326.391 288.46 320.675 280.676 315.553 281.152C312.918 281.4 312.086 283.216 311.67 285.573C311.234 288.113 310.942 290.802 313.651 292.187C314.559 292.617 315.55 292.843 316.554 292.846ZM134.741 260.68C134.528 258.795 132.478 257.807 130.66 258.279C126.316 259.41 121.967 264.679 119.916 268.48C119.862 268.579 119.812 268.678 119.763 268.783C118.584 271.239 119.52 274.116 122.685 272.836C125.053 271.879 126.707 269.442 128.629 267.845C130.551 266.247 134.276 264.312 134.717 261.504C134.762 261.232 134.77 260.955 134.741 260.68ZM307.876 399.05C307.937 399.464 308.027 399.874 308.143 400.276C308.837 402.26 309.565 404.245 310.273 406.269C310.704 407.495 311.323 408.576 312.75 408.651C314.176 408.725 314.731 407.594 315.157 406.522C316.148 404.175 317.054 401.804 317.951 399.427C318.147 398.885 318.244 398.312 318.238 397.735C318.208 395.562 316.693 394.262 314.543 394.55C313.164 394.723 311.798 394.993 310.457 395.359C308.713 395.87 307.856 397.13 307.876 399.05ZM328.922 221.583C329.105 218.288 327.773 215.49 323.87 216.487C321.393 217.107 321.037 218.834 320.744 221.077C320.452 223.319 319.66 226.41 321.175 228.33C324.776 232.895 328.64 226.653 328.922 221.583ZM310.169 301.961C310.318 304.784 311.655 308.704 313.636 309.468C315.266 310.093 317.495 307.677 318.293 306.56C320.482 303.504 319.283 297.193 314.989 296.667C312.869 296.409 311.081 297.848 310.382 299.783C310.171 300.495 310.099 301.241 310.169 301.981V301.961ZM118.767 257.535C118.695 258.009 118.759 258.494 118.952 258.934C119.145 259.373 119.459 259.748 119.857 260.015C121.66 261.137 124.399 257.758 125.504 256.726C127.059 255.282 129.347 253.923 130.001 251.764C130.496 250.132 129.704 247.795 127.797 247.661C124.825 247.423 121.437 251.69 120.04 253.913C119.345 255.006 118.909 256.246 118.767 257.535ZM316.168 219.613C316.117 218.559 315.679 217.561 314.939 216.81C312.656 214.825 308.173 216.978 307.95 219.891C307.777 222.188 308.02 225.096 309.644 226.902C309.976 227.256 310.382 227.531 310.834 227.708C311.285 227.885 311.77 227.959 312.254 227.924C312.737 227.889 313.207 227.747 313.629 227.508C314.051 227.268 314.414 226.937 314.691 226.539C315.672 225.115 316.445 222.049 316.168 219.613ZM299.668 216.983C297.113 216.983 295.75 217.579 295.166 218.903C294.081 221.345 295.022 224.679 297.187 226.252C298.247 227.021 299.218 226.956 300.025 225.984C300.96 224.94 301.789 223.807 302.502 222.6C303.894 220.025 302.279 216.968 299.668 216.983ZM246.139 391.077C246.139 391.181 246.139 391.28 246.139 391.365C246.045 393.056 245.54 396.326 247.749 396.822C249.418 397.18 251.459 395.721 252.291 394.376C253.376 392.615 253.46 389.95 252.093 388.333C251.191 387.261 248.893 385.569 247.392 385.951C245.782 386.363 246.139 389.598 246.139 391.077ZM361.103 137.498C361.183 138.254 361.349 138.998 361.598 139.716C361.864 140.282 362.344 140.719 362.931 140.931C363.877 141.214 368.166 138.719 368.523 137.771C368.7 137.32 368.751 136.83 368.672 136.352C368.315 134.63 365.7 132.819 363.976 133.057C362.252 133.296 361.138 134.819 361.103 137.498ZM287.325 336.166C287.389 333.715 286.458 332.381 284.561 332.197C282.832 332.043 281.698 333.026 281.416 334.921C280.921 338.106 281.564 339.575 283.551 339.942C286.037 340.419 287.251 339.198 287.325 336.166ZM296.275 339.997C298.499 339.997 299.55 339.163 299.609 337.273C299.688 334.623 298.381 332.882 296.315 332.902C294.25 332.922 292.848 334.39 292.783 336.563C292.719 338.925 293.779 339.972 296.275 339.997ZM120.615 242.079C120.6 242.557 120.709 243.031 120.932 243.454C123.067 247.353 128.52 241.295 125.811 238.303C123.641 235.907 120.64 239.375 120.615 242.079ZM312.051 336.603C312.086 334.916 310.655 333.175 309.179 333.13C307.703 333.085 306.167 334.971 306.207 337.035C306.207 338.806 307.257 339.957 308.847 339.967C309.279 339.961 309.706 339.869 310.102 339.696C310.498 339.523 310.856 339.273 311.155 338.96C311.453 338.646 311.686 338.276 311.84 337.872C311.994 337.467 312.066 337.036 312.051 336.603ZM272.812 334.747C272.116 334.805 271.467 335.122 270.995 335.637C270.522 336.152 270.26 336.826 270.261 337.526C270.319 338.185 270.63 338.796 271.127 339.23C271.625 339.665 272.271 339.89 272.931 339.858C273.257 339.845 273.578 339.768 273.874 339.631C274.17 339.493 274.436 339.299 274.657 339.058C274.878 338.817 275.05 338.535 275.161 338.228C275.273 337.921 275.323 337.595 275.309 337.268C275.29 336.609 275.022 335.981 274.558 335.513C274.094 335.045 273.47 334.771 272.812 334.747ZM248.353 135.91C249.993 135.856 251.053 134.963 251.048 133.762C251.052 133.472 250.996 133.185 250.883 132.919C250.77 132.652 250.602 132.413 250.39 132.215C250.179 132.018 249.928 131.867 249.655 131.773C249.382 131.679 249.092 131.643 248.804 131.668C247.585 131.752 246.139 133.132 246.208 134.243C246.293 135.682 247.377 135.846 248.353 135.91Z" fill="black"/>
<path d="M229.238 125.017C230.636 125.047 231.872 126.317 231.777 127.64C231.682 128.964 230.198 130.386 228.924 130.391C228.254 130.343 227.626 130.04 227.161 129.54C226.696 129.041 226.428 128.381 226.408 127.69C226.399 126.326 227.825 124.993 229.238 125.017Z" fill="black"/>
<path d="M343.617 135.765C342.672 135.623 341.901 135.175 341.955 133.954C341.965 133.394 342.184 132.857 342.569 132.448C342.955 132.038 343.479 131.784 344.042 131.735C344.303 131.735 344.561 131.788 344.801 131.889C345.041 131.99 345.257 132.138 345.438 132.324C345.619 132.51 345.761 132.73 345.854 132.971C345.947 133.212 345.991 133.47 345.982 133.728C345.959 134.811 344.884 135.778 343.617 135.765Z" fill="black"/>
</g>
<defs>
<filter id="filter0_d" x="0.77549" y="0.138757" width="475.449" height="470.075" filterUnits="userSpaceOnUse" color-interpolation-filters="sRGB">
<feFlood flood-opacity="0" result="BackgroundImageFix"/>
<feColorMatrix in="SourceAlpha" type="matrix" values="0 0 0 0 0 0 0 0 0 0 0 0 0 0 0 0 0 0 127 0"/>
<feOffset dy="5.36327"/>
<feGaussianBlur stdDeviation="20.1123"/>
<feColorMatrix type="matrix" values="0 0 0 0 0.691667 0 0 0 0 0.679217 0 0 0 0 0.613854 0 0 0 0.7 0"/>
<feBlend mode="normal" in2="BackgroundImageFix" result="effect1_dropShadow"/>
<feBlend mode="normal" in="SourceGraphic" in2="effect1_dropShadow" result="shape"/>
</filter>
</defs>
</svg>
